<svg xmlns="http://www.w3.org/2000/svg" xmlns:xlink="http://www.w3.org/1999/xlink" width="1920" zoomAndPan="magnify" viewBox="0 0 1440 809.999993" height="1080" preserveAspectRatio="xMidYMid meet" version="1.0"><defs><g/></defs><g fill="#5e17eb" fill-opacity="1"><g transform="translate(274.629748, 419.094)"><g><path d="M 31.675781 -39.984375 L 31.675781 -45.4375 L 6.167969 -45.4375 L 6.167969 0 L 11.878906 0 L 11.878906 -19.730469 L 29.988281 -19.730469 L 29.988281 -24.988281 L 11.878906 -24.988281 L 11.878906 -39.984375 Z M 31.675781 -39.984375 "/></g></g></g><g fill="#5e17eb" fill-opacity="1"><g transform="translate(308.574803, 419.094)"><g><path d="M 21.550781 -35.179688 C 16.488281 -35.179688 12.851562 -33.296875 10.320312 -29.664062 L 9.476562 -35.050781 L 5.515625 -35.050781 L 5.515625 0 L 11.035156 0 L 11.035156 -19.019531 C 11.035156 -25.832031 14.667969 -29.988281 21.09375 -29.988281 L 24.664062 -29.988281 L 24.664062 -35.179688 Z M 21.550781 -35.179688 "/></g></g></g><g fill="#5e17eb" fill-opacity="1"><g transform="translate(333.627947, 419.094)"><g><path d="M 38.296875 -17.332031 C 38.296875 -27.585938 31.285156 -35.765625 20.640625 -35.765625 C 10.449219 -35.765625 2.792969 -27.910156 2.792969 -17.527344 C 2.792969 -7.074219 10.449219 0.777344 20.640625 0.777344 C 28.234375 0.777344 34.402344 -3.441406 37.386719 -10.644531 L 31.546875 -10.644531 C 29.402344 -6.878906 25.507812 -4.609375 20.640625 -4.609375 C 14.019531 -4.609375 9.152344 -8.890625 8.308594 -15.382812 L 38.167969 -15.382812 C 38.230469 -16.03125 38.296875 -16.683594 38.296875 -17.332031 Z M 20.640625 -30.570312 C 26.871094 -30.570312 31.609375 -26.675781 32.777344 -20.445312 L 8.4375 -20.445312 C 9.542969 -26.546875 14.28125 -30.570312 20.640625 -30.570312 Z M 20.640625 -30.570312 "/></g></g></g><g fill="#5e17eb" fill-opacity="1"><g transform="translate(374.6476, 419.094)"><g><path d="M 38.296875 -17.332031 C 38.296875 -27.585938 31.285156 -35.765625 20.640625 -35.765625 C 10.449219 -35.765625 2.792969 -27.910156 2.792969 -17.527344 C 2.792969 -7.074219 10.449219 0.777344 20.640625 0.777344 C 28.234375 0.777344 34.402344 -3.441406 37.386719 -10.644531 L 31.546875 -10.644531 C 29.402344 -6.878906 25.507812 -4.609375 20.640625 -4.609375 C 14.019531 -4.609375 9.152344 -8.890625 8.308594 -15.382812 L 38.167969 -15.382812 C 38.230469 -16.03125 38.296875 -16.683594 38.296875 -17.332031 Z M 20.640625 -30.570312 C 26.871094 -30.570312 31.609375 -26.675781 32.777344 -20.445312 L 8.4375 -20.445312 C 9.542969 -26.546875 14.28125 -30.570312 20.640625 -30.570312 Z M 20.640625 -30.570312 "/></g></g></g><g fill="#5e17eb" fill-opacity="1"><g transform="translate(415.667253, 419.094)"><g/></g></g><g fill="#5e17eb" fill-opacity="1"><g transform="translate(432.672215, 419.094)"><g><path d="M 19.730469 0.585938 C 28.753906 0.585938 35.765625 -4.285156 35.765625 -12.851562 C 35.765625 -22.328125 27.714844 -24.210938 20.578125 -25.964844 C 14.734375 -27.328125 9.476562 -28.625 9.476562 -33.558594 C 9.476562 -37.90625 13.632812 -40.503906 19.148438 -40.503906 C 24.664062 -40.503906 28.820312 -37.582031 28.820312 -32.519531 L 34.464844 -32.519531 C 34.464844 -40.761719 28.691406 -45.957031 19.277344 -45.957031 C 9.867188 -45.957031 3.828125 -41.21875 3.828125 -33.363281 C 3.828125 -24.277344 11.554688 -22.394531 18.5625 -20.769531 C 24.472656 -19.34375 29.859375 -18.109375 29.859375 -12.789062 C 29.859375 -7.984375 25.378906 -4.996094 19.667969 -4.996094 C 13.371094 -4.996094 8.761719 -8.308594 8.761719 -13.957031 L 2.921875 -13.957031 C 2.921875 -4.996094 9.738281 0.585938 19.730469 0.585938 Z M 19.730469 0.585938 "/></g></g></g><g fill="#5e17eb" fill-opacity="1"><g transform="translate(471.420199, 419.094)"><g><path d="M 23.042969 -35.765625 C 17.980469 -35.765625 13.761719 -33.6875 11.035156 -30.246094 L 11.035156 -47.511719 L 5.515625 -47.511719 L 5.515625 0 L 11.035156 0 L 11.035156 -19.082031 C 11.035156 -25.640625 15.644531 -30.765625 21.679688 -30.765625 C 27.714844 -30.765625 31.089844 -26.742188 31.089844 -19.667969 L 31.089844 0 L 36.609375 0 L 36.609375 -20.964844 C 36.609375 -30.054688 31.417969 -35.765625 23.042969 -35.765625 Z M 23.042969 -35.765625 "/></g></g></g><g fill="#5e17eb" fill-opacity="1"><g transform="translate(513.088895, 419.094)"><g><path d="M 5.324219 -41.085938 L 11.292969 -41.085938 L 11.292969 -47.382812 L 5.324219 -47.382812 Z M 5.515625 0 L 11.035156 0 L 11.035156 -35.050781 L 5.515625 -35.050781 Z M 5.515625 0 "/></g></g></g><g fill="#5e17eb" fill-opacity="1"><g transform="translate(529.704447, 419.094)"><g><path d="M 24.144531 -35.765625 C 18.5 -35.765625 13.695312 -33.492188 10.449219 -29.664062 L 9.347656 -35.050781 L 5.515625 -35.050781 L 5.515625 12.527344 L 11.035156 12.527344 L 11.035156 -4.671875 C 14.28125 -1.234375 18.886719 0.777344 24.144531 0.777344 C 34.597656 0.777344 42.125 -7.074219 42.125 -17.527344 C 42.125 -27.976562 34.597656 -35.765625 24.144531 -35.765625 Z M 23.757812 -4.542969 C 16.292969 -4.542969 10.839844 -10.125 10.839844 -17.527344 C 10.839844 -24.859375 16.292969 -30.441406 23.757812 -30.441406 C 31.15625 -30.441406 36.609375 -24.925781 36.609375 -17.527344 C 36.609375 -10.0625 31.15625 -4.542969 23.757812 -4.542969 Z M 23.757812 -4.542969 "/></g></g></g><g fill="#5e17eb" fill-opacity="1"><g transform="translate(574.683263, 419.094)"><g><path d="M 24.144531 -35.765625 C 18.5 -35.765625 13.695312 -33.492188 10.449219 -29.664062 L 9.347656 -35.050781 L 5.515625 -35.050781 L 5.515625 12.527344 L 11.035156 12.527344 L 11.035156 -4.671875 C 14.28125 -1.234375 18.886719 0.777344 24.144531 0.777344 C 34.597656 0.777344 42.125 -7.074219 42.125 -17.527344 C 42.125 -27.976562 34.597656 -35.765625 24.144531 -35.765625 Z M 23.757812 -4.542969 C 16.292969 -4.542969 10.839844 -10.125 10.839844 -17.527344 C 10.839844 -24.859375 16.292969 -30.441406 23.757812 -30.441406 C 31.15625 -30.441406 36.609375 -24.925781 36.609375 -17.527344 C 36.609375 -10.0625 31.15625 -4.542969 23.757812 -4.542969 Z M 23.757812 -4.542969 "/></g></g></g><g fill="#5e17eb" fill-opacity="1"><g transform="translate(619.66208, 419.094)"><g><path d="M 5.324219 -41.085938 L 11.292969 -41.085938 L 11.292969 -47.382812 L 5.324219 -47.382812 Z M 5.515625 0 L 11.035156 0 L 11.035156 -35.050781 L 5.515625 -35.050781 Z M 5.515625 0 "/></g></g></g><g fill="#5e17eb" fill-opacity="1"><g transform="translate(636.277632, 419.094)"><g><path d="M 23.042969 -35.765625 C 17.65625 -35.765625 13.175781 -33.429688 10.515625 -29.535156 L 9.476562 -35.050781 L 5.515625 -35.050781 L 5.515625 0 L 11.035156 0 L 11.035156 -19.082031 C 11.035156 -25.640625 15.644531 -30.765625 21.679688 -30.765625 C 27.714844 -30.765625 31.089844 -26.742188 31.089844 -19.667969 L 31.089844 0 L 36.609375 0 L 36.609375 -20.964844 C 36.609375 -29.535156 31.417969 -35.765625 23.042969 -35.765625 Z M 23.042969 -35.765625 "/></g></g></g><g fill="#5e17eb" fill-opacity="1"><g transform="translate(677.946328, 419.094)"><g><path d="M 34.464844 -35.050781 L 33.621094 -29.597656 C 30.441406 -33.429688 25.640625 -35.765625 19.992188 -35.765625 C 10.253906 -35.765625 2.792969 -28.171875 2.792969 -18.433594 C 2.792969 -8.632812 10.253906 -1.101562 19.992188 -1.101562 C 25.183594 -1.101562 29.664062 -3.050781 32.777344 -6.296875 L 32.777344 -4.152344 C 32.777344 3.636719 27.976562 8.242188 20.964844 8.242188 C 15.902344 8.242188 11.488281 5.777344 9.929688 1.429688 L 4.414062 1.429688 C 6.296875 8.828125 12.398438 13.304688 20.964844 13.304688 C 31.675781 13.304688 38.167969 6.425781 38.167969 -4.867188 L 38.167969 -34.984375 Z M 20.578125 -6.359375 C 13.566406 -6.359375 8.375 -11.554688 8.375 -18.433594 C 8.375 -25.316406 13.566406 -30.507812 20.578125 -30.507812 C 27.585938 -30.507812 32.714844 -25.378906 32.714844 -18.433594 C 32.714844 -11.488281 27.652344 -6.359375 20.578125 -6.359375 Z M 20.578125 -6.359375 "/></g></g></g><g fill="#5e17eb" fill-opacity="1"><g transform="translate(721.691967, 419.094)"><g/></g></g><g fill="#5e17eb" fill-opacity="1"><g transform="translate(738.696928, 419.094)"><g><path d="M 31.933594 -24.796875 L 19.730469 -24.796875 L 19.730469 -37.191406 L 14.34375 -37.191406 L 14.34375 -24.796875 L 2.140625 -24.796875 L 2.140625 -19.730469 L 14.34375 -19.730469 L 14.34375 -6.945312 L 19.730469 -6.945312 L 19.730469 -19.730469 L 31.933594 -19.730469 Z M 31.933594 -24.796875 "/></g></g></g><g fill="#5e17eb" fill-opacity="1"><g transform="translate(772.771799, 419.094)"><g/></g></g><g fill="#5e17eb" fill-opacity="1"><g transform="translate(789.776761, 419.094)"><g><path d="M 1.621094 -43.164062 L 1.621094 -38.230469 L 9.929688 -38.230469 L 9.929688 0 L 15.1875 0 L 15.1875 -43.164062 Z M 1.621094 -43.164062 "/></g></g></g><g fill="#5e17eb" fill-opacity="1"><g transform="translate(811.260151, 419.094)"><g><path d="M 20.1875 0.777344 C 30.378906 0.777344 36.804688 -7.855469 36.804688 -21.550781 C 36.804688 -35.375 30.441406 -43.878906 20.1875 -43.878906 C 9.867188 -43.878906 3.441406 -35.375 3.441406 -21.550781 C 3.441406 -7.855469 9.929688 0.777344 20.1875 0.777344 Z M 20.1875 -4.285156 C 13.113281 -4.285156 8.890625 -10.773438 8.890625 -21.550781 C 8.890625 -32.324219 13.175781 -38.816406 20.1875 -38.816406 C 27.132812 -38.816406 31.417969 -32.324219 31.417969 -21.550781 C 31.417969 -10.773438 27.132812 -4.285156 20.1875 -4.285156 Z M 20.1875 -4.285156 "/></g></g></g><g fill="#5e17eb" fill-opacity="1"><g transform="translate(851.630762, 419.094)"><g><path d="M 11.8125 -24.339844 C 17.527344 -24.339844 21.613281 -28.300781 21.613281 -34.011719 C 21.613281 -39.660156 17.589844 -43.683594 11.8125 -43.683594 C 6.035156 -43.683594 2.011719 -39.660156 2.011719 -34.011719 C 2.011719 -28.300781 6.035156 -24.339844 11.8125 -24.339844 Z M 8.632812 0 L 14.148438 0 L 40.179688 -43.164062 L 34.660156 -43.164062 Z M 11.8125 -28.496094 C 8.632812 -28.496094 6.359375 -30.832031 6.359375 -34.011719 C 6.359375 -37.191406 8.632812 -39.53125 11.8125 -39.53125 C 14.992188 -39.53125 17.265625 -37.191406 17.265625 -34.011719 C 17.265625 -30.832031 14.992188 -28.496094 11.8125 -28.496094 Z M 37.90625 0.519531 C 43.617188 0.519531 47.707031 -3.441406 47.707031 -9.085938 C 47.707031 -14.734375 43.617188 -18.628906 37.90625 -18.628906 C 32.195312 -18.628906 28.171875 -14.734375 28.171875 -9.085938 C 28.171875 -3.441406 32.195312 0.519531 37.90625 0.519531 Z M 37.90625 -3.636719 C 34.792969 -3.636719 32.519531 -5.90625 32.519531 -9.085938 C 32.519531 -12.203125 34.792969 -14.476562 37.90625 -14.476562 C 41.085938 -14.476562 43.292969 -12.203125 43.292969 -9.085938 C 43.292969 -5.90625 41.085938 -3.636719 37.90625 -3.636719 Z M 37.90625 -3.636719 "/></g></g></g><g fill="#5e17eb" fill-opacity="1"><g transform="translate(901.3476, 419.094)"><g/></g></g><g fill="#5e17eb" fill-opacity="1"><g transform="translate(918.352562, 419.094)"><g><path d="M 21.289062 -45.4375 L 6.167969 -45.4375 L 6.167969 0 L 21.289062 0 C 34.660156 0 44.332031 -9.542969 44.332031 -22.71875 C 44.332031 -35.828125 34.660156 -45.371094 21.289062 -45.371094 Z M 21.160156 -5.324219 L 11.878906 -5.324219 L 11.878906 -40.050781 L 21.160156 -40.050781 C 31.351562 -40.050781 38.554688 -32.714844 38.554688 -22.71875 C 38.554688 -12.65625 31.351562 -5.324219 21.160156 -5.324219 Z M 21.160156 -5.324219 "/></g></g></g><g fill="#5e17eb" fill-opacity="1"><g transform="translate(965.927509, 419.094)"><g><path d="M 5.324219 -41.085938 L 11.292969 -41.085938 L 11.292969 -47.382812 L 5.324219 -47.382812 Z M 5.515625 0 L 11.035156 0 L 11.035156 -35.050781 L 5.515625 -35.050781 Z M 5.515625 0 "/></g></g></g><g fill="#5e17eb" fill-opacity="1"><g transform="translate(982.543061, 419.094)"><g><path d="M 16.617188 0.777344 C 24.925781 0.777344 30.507812 -3.441406 30.507812 -9.996094 C 30.507812 -18.5625 23.367188 -19.730469 17.332031 -20.707031 C 12.65625 -21.421875 8.632812 -22.132812 8.632812 -25.832031 C 8.632812 -28.882812 11.617188 -30.832031 16.355469 -30.832031 C 21.289062 -30.832031 24.277344 -28.753906 24.472656 -24.925781 L 29.664062 -24.925781 C 29.46875 -31.546875 24.40625 -35.765625 16.488281 -35.765625 C 8.566406 -35.765625 3.246094 -31.675781 3.246094 -25.640625 C 3.246094 -17.71875 9.996094 -16.488281 15.96875 -15.449219 C 20.707031 -14.667969 25.054688 -13.890625 25.054688 -9.738281 C 25.054688 -6.359375 21.613281 -4.285156 16.8125 -4.285156 C 11.878906 -4.285156 8.308594 -6.554688 8.046875 -10.710938 L 2.597656 -10.710938 C 2.921875 -3.636719 8.308594 0.777344 16.617188 0.777344 Z M 16.617188 0.777344 "/></g></g></g><g fill="#5e17eb" fill-opacity="1"><g transform="translate(1015.839072, 419.094)"><g><path d="M 20.964844 0.777344 C 29.273438 0.777344 35.960938 -4.21875 38.101562 -11.941406 L 32.519531 -11.941406 C 30.378906 -7.269531 26.09375 -4.542969 20.964844 -4.542969 C 13.824219 -4.542969 8.375 -10.191406 8.375 -17.527344 C 8.375 -24.796875 13.761719 -30.441406 20.964844 -30.441406 C 26.160156 -30.441406 30.507812 -27.714844 32.519531 -23.171875 L 38.035156 -23.171875 C 35.894531 -30.832031 29.339844 -35.765625 20.964844 -35.765625 C 10.582031 -35.765625 2.726562 -27.976562 2.726562 -17.527344 C 2.726562 -7.074219 10.582031 0.777344 20.964844 0.777344 Z M 20.964844 0.777344 "/></g></g></g><g fill="#5e17eb" fill-opacity="1"><g transform="translate(1056.079867, 419.094)"><g><path d="M 21.355469 0.777344 C 31.933594 0.777344 39.917969 -7.011719 39.917969 -17.527344 C 39.917969 -27.976562 31.933594 -35.765625 21.355469 -35.765625 C 10.710938 -35.765625 2.726562 -28.039062 2.726562 -17.527344 C 2.726562 -7.011719 10.710938 0.777344 21.355469 0.777344 Z M 21.355469 -4.542969 C 13.824219 -4.542969 8.375 -9.996094 8.375 -17.527344 C 8.375 -24.988281 13.824219 -30.441406 21.355469 -30.441406 C 28.820312 -30.441406 34.273438 -24.988281 34.273438 -17.460938 C 34.273438 -9.996094 28.820312 -4.542969 21.355469 -4.542969 Z M 21.355469 -4.542969 "/></g></g></g><g fill="#5e17eb" fill-opacity="1"><g transform="translate(1098.851923, 419.094)"><g><path d="M 20.445312 0.777344 C 29.988281 0.777344 36.023438 -5.324219 36.023438 -14.734375 L 36.023438 -35.050781 L 30.507812 -35.050781 L 30.507812 -15.644531 C 30.507812 -8.828125 26.742188 -4.542969 20.445312 -4.542969 C 14.28125 -4.542969 10.449219 -8.761719 10.449219 -15.644531 L 10.449219 -35.050781 L 4.933594 -35.050781 L 4.933594 -14.734375 C 4.933594 -5.324219 11.035156 0.777344 20.445312 0.777344 Z M 20.445312 0.777344 "/></g></g></g><g fill="#5e17eb" fill-opacity="1"><g transform="translate(1139.871537, 419.094)"><g><path d="M 23.042969 -35.765625 C 17.65625 -35.765625 13.175781 -33.429688 10.515625 -29.535156 L 9.476562 -35.050781 L 5.515625 -35.050781 L 5.515625 0 L 11.035156 0 L 11.035156 -19.082031 C 11.035156 -25.640625 15.644531 -30.765625 21.679688 -30.765625 C 27.714844 -30.765625 31.089844 -26.742188 31.089844 -19.667969 L 31.089844 0 L 36.609375 0 L 36.609375 -20.964844 C 36.609375 -29.535156 31.417969 -35.765625 23.042969 -35.765625 Z M 23.042969 -35.765625 "/></g></g></g><g fill="#5e17eb" fill-opacity="1"><g transform="translate(1181.540233, 419.094)"><g><path d="M 20.058594 -5.0625 C 15.253906 -5.0625 12.65625 -7.660156 12.65625 -12.398438 L 12.65625 -30.054688 L 23.691406 -30.054688 L 23.691406 -35.050781 L 12.65625 -35.050781 L 12.65625 -42.449219 L 11.8125 -42.449219 L 0.972656 -31.027344 L 0.972656 -30.054688 L 7.140625 -30.054688 L 7.140625 -12.203125 C 7.140625 -4.609375 11.8125 0 19.34375 0 L 23.886719 0 L 23.886719 -5.0625 Z M 20.058594 -5.0625 "/></g></g></g></svg>