<svg xmlns="http://www.w3.org/2000/svg" xmlns:xlink="http://www.w3.org/1999/xlink" width="1920" zoomAndPan="magnify" viewBox="0 0 1440 809.999993" height="1080" preserveAspectRatio="xMidYMid meet" version="1.0"><defs><g/><clipPath id="9d87b7aebd"><path d="M 81 191.871094 L 1358.832031 191.871094 L 1358.832031 712.769531 L 81 712.769531 Z M 81 191.871094 " clip-rule="nonzero"/></clipPath><clipPath id="8812d4517b"><path d="M 119.25 191.871094 L 1320.75 191.871094 C 1341.875 191.871094 1359 208.996094 1359 230.121094 L 1359 674.519531 C 1359 695.644531 1341.875 712.769531 1320.75 712.769531 L 119.25 712.769531 C 98.125 712.769531 81 695.644531 81 674.519531 L 81 230.121094 C 81 208.996094 98.125 191.871094 119.25 191.871094 Z M 119.25 191.871094 " clip-rule="nonzero"/></clipPath><linearGradient x1="-0.00000165867" gradientTransform="matrix(2.034764, 0, 0, 2.034764, 81.000006, 191.870318)" y1="0" x2="627.999981" gradientUnits="userSpaceOnUse" y2="0" id="f1c89abc31"><stop stop-opacity="1" stop-color="rgb(0%, 0%, 0%)" offset="0"/><stop stop-opacity="1" stop-color="rgb(0.0808716%, 0.0778198%, 0.312805%)" offset="0.00390625"/><stop stop-opacity="1" stop-color="rgb(0.161743%, 0.15564%, 0.627136%)" offset="0.0078125"/><stop stop-opacity="1" stop-color="rgb(0.242615%, 0.233459%, 0.941467%)" offset="0.0117188"/><stop stop-opacity="1" stop-color="rgb(0.323486%, 0.311279%, 1.255798%)" offset="0.015625"/><stop stop-opacity="1" stop-color="rgb(0.404358%, 0.389099%, 1.568604%)" offset="0.0195312"/><stop stop-opacity="1" stop-color="rgb(0.486755%, 0.468445%, 1.882935%)" offset="0.0234375"/><stop stop-opacity="1" stop-color="rgb(0.567627%, 0.546265%, 2.197266%)" offset="0.0273437"/><stop stop-opacity="1" stop-color="rgb(0.648499%, 0.624084%, 2.511597%)" offset="0.03125"/><stop stop-opacity="1" stop-color="rgb(0.72937%, 0.701904%, 2.824402%)" offset="0.0351562"/><stop stop-opacity="1" stop-color="rgb(0.811768%, 0.779724%, 3.138733%)" offset="0.0390625"/><stop stop-opacity="1" stop-color="rgb(0.892639%, 0.857544%, 3.453064%)" offset="0.0429687"/><stop stop-opacity="1" stop-color="rgb(0.973511%, 0.93689%, 3.767395%)" offset="0.046875"/><stop stop-opacity="1" stop-color="rgb(1.054382%, 1.014709%, 4.081726%)" offset="0.0507812"/><stop stop-opacity="1" stop-color="rgb(1.13678%, 1.092529%, 4.396057%)" offset="0.0546875"/><stop stop-opacity="1" stop-color="rgb(1.217651%, 1.170349%, 4.708862%)" offset="0.0585938"/><stop stop-opacity="1" stop-color="rgb(1.298523%, 1.249695%, 5.023193%)" offset="0.0625"/><stop stop-opacity="1" stop-color="rgb(1.379395%, 1.327515%, 5.337524%)" offset="0.0664062"/><stop stop-opacity="1" stop-color="rgb(1.461792%, 1.405334%, 5.651855%)" offset="0.0703125"/><stop stop-opacity="1" stop-color="rgb(1.542664%, 1.483154%, 5.964661%)" offset="0.0742187"/><stop stop-opacity="1" stop-color="rgb(1.623535%, 1.560974%, 6.278992%)" offset="0.078125"/><stop stop-opacity="1" stop-color="rgb(1.704407%, 1.638794%, 6.593323%)" offset="0.0820312"/><stop stop-opacity="1" stop-color="rgb(1.786804%, 1.71814%, 6.907654%)" offset="0.0859375"/><stop stop-opacity="1" stop-color="rgb(1.867676%, 1.795959%, 7.221985%)" offset="0.0898438"/><stop stop-opacity="1" stop-color="rgb(1.948547%, 1.873779%, 7.536316%)" offset="0.09375"/><stop stop-opacity="1" stop-color="rgb(2.029419%, 1.951599%, 7.849121%)" offset="0.0976562"/><stop stop-opacity="1" stop-color="rgb(2.111816%, 2.030945%, 8.163452%)" offset="0.101562"/><stop stop-opacity="1" stop-color="rgb(2.192688%, 2.108765%, 8.477783%)" offset="0.105469"/><stop stop-opacity="1" stop-color="rgb(2.27356%, 2.186584%, 8.792114%)" offset="0.109375"/><stop stop-opacity="1" stop-color="rgb(2.354431%, 2.264404%, 9.104919%)" offset="0.113281"/><stop stop-opacity="1" stop-color="rgb(2.436829%, 2.342224%, 9.41925%)" offset="0.117187"/><stop stop-opacity="1" stop-color="rgb(2.5177%, 2.420044%, 9.733582%)" offset="0.121094"/><stop stop-opacity="1" stop-color="rgb(2.598572%, 2.49939%, 10.047913%)" offset="0.125"/><stop stop-opacity="1" stop-color="rgb(2.679443%, 2.577209%, 10.362244%)" offset="0.128906"/><stop stop-opacity="1" stop-color="rgb(2.761841%, 2.655029%, 10.676575%)" offset="0.132812"/><stop stop-opacity="1" stop-color="rgb(2.842712%, 2.732849%, 10.98938%)" offset="0.136719"/><stop stop-opacity="1" stop-color="rgb(2.923584%, 2.810669%, 11.303711%)" offset="0.140625"/><stop stop-opacity="1" stop-color="rgb(3.004456%, 2.888489%, 11.618042%)" offset="0.144531"/><stop stop-opacity="1" stop-color="rgb(3.086853%, 2.967834%, 11.932373%)" offset="0.148438"/><stop stop-opacity="1" stop-color="rgb(3.167725%, 3.045654%, 12.245178%)" offset="0.152344"/><stop stop-opacity="1" stop-color="rgb(3.248596%, 3.123474%, 12.559509%)" offset="0.15625"/><stop stop-opacity="1" stop-color="rgb(3.329468%, 3.201294%, 12.87384%)" offset="0.160156"/><stop stop-opacity="1" stop-color="rgb(3.411865%, 3.28064%, 13.188171%)" offset="0.164063"/><stop stop-opacity="1" stop-color="rgb(3.492737%, 3.358459%, 13.502502%)" offset="0.167969"/><stop stop-opacity="1" stop-color="rgb(3.573608%, 3.436279%, 13.816833%)" offset="0.171875"/><stop stop-opacity="1" stop-color="rgb(3.65448%, 3.514099%, 14.129639%)" offset="0.175781"/><stop stop-opacity="1" stop-color="rgb(3.736877%, 3.591919%, 14.44397%)" offset="0.179688"/><stop stop-opacity="1" stop-color="rgb(3.817749%, 3.669739%, 14.758301%)" offset="0.183594"/><stop stop-opacity="1" stop-color="rgb(3.898621%, 3.749084%, 15.072632%)" offset="0.1875"/><stop stop-opacity="1" stop-color="rgb(3.979492%, 3.826904%, 15.385437%)" offset="0.191406"/><stop stop-opacity="1" stop-color="rgb(4.06189%, 3.904724%, 15.699768%)" offset="0.195312"/><stop stop-opacity="1" stop-color="rgb(4.142761%, 3.982544%, 16.014099%)" offset="0.199219"/><stop stop-opacity="1" stop-color="rgb(4.223633%, 4.06189%, 16.32843%)" offset="0.203125"/><stop stop-opacity="1" stop-color="rgb(4.304504%, 4.139709%, 16.642761%)" offset="0.207031"/><stop stop-opacity="1" stop-color="rgb(4.386902%, 4.217529%, 16.957092%)" offset="0.210937"/><stop stop-opacity="1" stop-color="rgb(4.467773%, 4.295349%, 17.269897%)" offset="0.214844"/><stop stop-opacity="1" stop-color="rgb(4.548645%, 4.373169%, 17.584229%)" offset="0.21875"/><stop stop-opacity="1" stop-color="rgb(4.629517%, 4.450989%, 17.89856%)" offset="0.222656"/><stop stop-opacity="1" stop-color="rgb(4.710388%, 4.530334%, 18.212891%)" offset="0.226562"/><stop stop-opacity="1" stop-color="rgb(4.79126%, 4.608154%, 18.525696%)" offset="0.230469"/><stop stop-opacity="1" stop-color="rgb(4.873657%, 4.685974%, 18.840027%)" offset="0.234375"/><stop stop-opacity="1" stop-color="rgb(4.954529%, 4.763794%, 19.154358%)" offset="0.238281"/><stop stop-opacity="1" stop-color="rgb(5.0354%, 4.84314%, 19.468689%)" offset="0.242188"/><stop stop-opacity="1" stop-color="rgb(5.116272%, 4.920959%, 19.78302%)" offset="0.246094"/><stop stop-opacity="1" stop-color="rgb(5.198669%, 4.998779%, 20.097351%)" offset="0.25"/><stop stop-opacity="1" stop-color="rgb(5.279541%, 5.076599%, 20.410156%)" offset="0.253906"/><stop stop-opacity="1" stop-color="rgb(5.360413%, 5.154419%, 20.724487%)" offset="0.257812"/><stop stop-opacity="1" stop-color="rgb(5.441284%, 5.232239%, 21.038818%)" offset="0.261719"/><stop stop-opacity="1" stop-color="rgb(5.523682%, 5.311584%, 21.353149%)" offset="0.265625"/><stop stop-opacity="1" stop-color="rgb(5.604553%, 5.389404%, 21.665955%)" offset="0.269531"/><stop stop-opacity="1" stop-color="rgb(5.685425%, 5.467224%, 21.980286%)" offset="0.273438"/><stop stop-opacity="1" stop-color="rgb(5.766296%, 5.545044%, 22.294617%)" offset="0.277344"/><stop stop-opacity="1" stop-color="rgb(5.848694%, 5.622864%, 22.608948%)" offset="0.28125"/><stop stop-opacity="1" stop-color="rgb(5.929565%, 5.700684%, 22.923279%)" offset="0.285156"/><stop stop-opacity="1" stop-color="rgb(6.010437%, 5.780029%, 23.23761%)" offset="0.289062"/><stop stop-opacity="1" stop-color="rgb(6.091309%, 5.857849%, 23.550415%)" offset="0.292969"/><stop stop-opacity="1" stop-color="rgb(6.173706%, 5.935669%, 23.864746%)" offset="0.296875"/><stop stop-opacity="1" stop-color="rgb(6.254578%, 6.013489%, 24.179077%)" offset="0.300781"/><stop stop-opacity="1" stop-color="rgb(6.335449%, 6.092834%, 24.493408%)" offset="0.304688"/><stop stop-opacity="1" stop-color="rgb(6.416321%, 6.170654%, 24.806213%)" offset="0.308594"/><stop stop-opacity="1" stop-color="rgb(6.498718%, 6.248474%, 25.120544%)" offset="0.3125"/><stop stop-opacity="1" stop-color="rgb(6.57959%, 6.326294%, 25.434875%)" offset="0.316406"/><stop stop-opacity="1" stop-color="rgb(6.660461%, 6.404114%, 25.749207%)" offset="0.320313"/><stop stop-opacity="1" stop-color="rgb(6.741333%, 6.481934%, 26.063538%)" offset="0.324219"/><stop stop-opacity="1" stop-color="rgb(6.82373%, 6.561279%, 26.377869%)" offset="0.328125"/><stop stop-opacity="1" stop-color="rgb(6.904602%, 6.639099%, 26.690674%)" offset="0.332031"/><stop stop-opacity="1" stop-color="rgb(6.985474%, 6.716919%, 27.005005%)" offset="0.335938"/><stop stop-opacity="1" stop-color="rgb(7.066345%, 6.794739%, 27.319336%)" offset="0.339844"/><stop stop-opacity="1" stop-color="rgb(7.148743%, 6.874084%, 27.633667%)" offset="0.34375"/><stop stop-opacity="1" stop-color="rgb(7.229614%, 6.951904%, 27.946472%)" offset="0.347656"/><stop stop-opacity="1" stop-color="rgb(7.310486%, 7.029724%, 28.260803%)" offset="0.351563"/><stop stop-opacity="1" stop-color="rgb(7.391357%, 7.107544%, 28.575134%)" offset="0.355469"/><stop stop-opacity="1" stop-color="rgb(7.473755%, 7.185364%, 28.889465%)" offset="0.359375"/><stop stop-opacity="1" stop-color="rgb(7.554626%, 7.263184%, 29.203796%)" offset="0.363281"/><stop stop-opacity="1" stop-color="rgb(7.635498%, 7.342529%, 29.518127%)" offset="0.367188"/><stop stop-opacity="1" stop-color="rgb(7.71637%, 7.420349%, 29.830933%)" offset="0.371094"/><stop stop-opacity="1" stop-color="rgb(7.798767%, 7.498169%, 30.145264%)" offset="0.375"/><stop stop-opacity="1" stop-color="rgb(7.879639%, 7.575989%, 30.459595%)" offset="0.378906"/><stop stop-opacity="1" stop-color="rgb(7.96051%, 7.653809%, 30.773926%)" offset="0.382812"/><stop stop-opacity="1" stop-color="rgb(8.041382%, 7.731628%, 31.086731%)" offset="0.386719"/><stop stop-opacity="1" stop-color="rgb(8.123779%, 7.810974%, 31.401062%)" offset="0.390625"/><stop stop-opacity="1" stop-color="rgb(8.204651%, 7.888794%, 31.715393%)" offset="0.394531"/><stop stop-opacity="1" stop-color="rgb(8.285522%, 7.966614%, 32.029724%)" offset="0.398437"/><stop stop-opacity="1" stop-color="rgb(8.366394%, 8.044434%, 32.344055%)" offset="0.402344"/><stop stop-opacity="1" stop-color="rgb(8.448792%, 8.123779%, 32.658386%)" offset="0.40625"/><stop stop-opacity="1" stop-color="rgb(8.529663%, 8.201599%, 32.971191%)" offset="0.410156"/><stop stop-opacity="1" stop-color="rgb(8.610535%, 8.279419%, 33.285522%)" offset="0.414062"/><stop stop-opacity="1" stop-color="rgb(8.691406%, 8.357239%, 33.599854%)" offset="0.417969"/><stop stop-opacity="1" stop-color="rgb(8.773804%, 8.435059%, 33.914185%)" offset="0.421875"/><stop stop-opacity="1" stop-color="rgb(8.854675%, 8.512878%, 34.22699%)" offset="0.425781"/><stop stop-opacity="1" stop-color="rgb(8.935547%, 8.592224%, 34.541321%)" offset="0.429687"/><stop stop-opacity="1" stop-color="rgb(9.016418%, 8.670044%, 34.855652%)" offset="0.433594"/><stop stop-opacity="1" stop-color="rgb(9.098816%, 8.747864%, 35.169983%)" offset="0.4375"/><stop stop-opacity="1" stop-color="rgb(9.179688%, 8.825684%, 35.484314%)" offset="0.441406"/><stop stop-opacity="1" stop-color="rgb(9.260559%, 8.905029%, 35.798645%)" offset="0.445312"/><stop stop-opacity="1" stop-color="rgb(9.341431%, 8.982849%, 36.11145%)" offset="0.449219"/><stop stop-opacity="1" stop-color="rgb(9.422302%, 9.060669%, 36.425781%)" offset="0.453125"/><stop stop-opacity="1" stop-color="rgb(9.503174%, 9.138489%, 36.740112%)" offset="0.457031"/><stop stop-opacity="1" stop-color="rgb(9.585571%, 9.216309%, 37.054443%)" offset="0.460938"/><stop stop-opacity="1" stop-color="rgb(9.666443%, 9.294128%, 37.367249%)" offset="0.464844"/><stop stop-opacity="1" stop-color="rgb(9.747314%, 9.373474%, 37.68158%)" offset="0.46875"/><stop stop-opacity="1" stop-color="rgb(9.828186%, 9.451294%, 37.995911%)" offset="0.472656"/><stop stop-opacity="1" stop-color="rgb(9.910583%, 9.529114%, 38.310242%)" offset="0.476562"/><stop stop-opacity="1" stop-color="rgb(9.991455%, 9.606934%, 38.624573%)" offset="0.480469"/><stop stop-opacity="1" stop-color="rgb(10.072327%, 9.686279%, 38.938904%)" offset="0.484375"/><stop stop-opacity="1" stop-color="rgb(10.153198%, 9.764099%, 39.251709%)" offset="0.488281"/><stop stop-opacity="1" stop-color="rgb(10.235596%, 9.841919%, 39.56604%)" offset="0.492188"/><stop stop-opacity="1" stop-color="rgb(10.316467%, 9.919739%, 39.880371%)" offset="0.496094"/><stop stop-opacity="1" stop-color="rgb(10.397339%, 9.997559%, 40.194702%)" offset="0.5"/><stop stop-opacity="1" stop-color="rgb(10.47821%, 10.075378%, 40.507507%)" offset="0.503906"/><stop stop-opacity="1" stop-color="rgb(10.560608%, 10.154724%, 40.821838%)" offset="0.507813"/><stop stop-opacity="1" stop-color="rgb(10.641479%, 10.232544%, 41.136169%)" offset="0.511719"/><stop stop-opacity="1" stop-color="rgb(10.722351%, 10.310364%, 41.4505%)" offset="0.515625"/><stop stop-opacity="1" stop-color="rgb(10.803223%, 10.388184%, 41.763306%)" offset="0.519531"/><stop stop-opacity="1" stop-color="rgb(10.88562%, 10.466003%, 42.077637%)" offset="0.523438"/><stop stop-opacity="1" stop-color="rgb(10.966492%, 10.543823%, 42.391968%)" offset="0.527344"/><stop stop-opacity="1" stop-color="rgb(11.047363%, 10.623169%, 42.706299%)" offset="0.53125"/><stop stop-opacity="1" stop-color="rgb(11.128235%, 10.700989%, 43.02063%)" offset="0.535156"/><stop stop-opacity="1" stop-color="rgb(11.210632%, 10.778809%, 43.334961%)" offset="0.539063"/><stop stop-opacity="1" stop-color="rgb(11.291504%, 10.856628%, 43.647766%)" offset="0.542969"/><stop stop-opacity="1" stop-color="rgb(11.372375%, 10.935974%, 43.962097%)" offset="0.546875"/><stop stop-opacity="1" stop-color="rgb(11.453247%, 11.013794%, 44.276428%)" offset="0.550781"/><stop stop-opacity="1" stop-color="rgb(11.535645%, 11.091614%, 44.590759%)" offset="0.554688"/><stop stop-opacity="1" stop-color="rgb(11.616516%, 11.169434%, 44.903564%)" offset="0.558594"/><stop stop-opacity="1" stop-color="rgb(11.697388%, 11.247253%, 45.217896%)" offset="0.5625"/><stop stop-opacity="1" stop-color="rgb(11.778259%, 11.325073%, 45.532227%)" offset="0.566406"/><stop stop-opacity="1" stop-color="rgb(11.860657%, 11.404419%, 45.846558%)" offset="0.570313"/><stop stop-opacity="1" stop-color="rgb(11.941528%, 11.482239%, 46.160889%)" offset="0.574219"/><stop stop-opacity="1" stop-color="rgb(12.0224%, 11.560059%, 46.47522%)" offset="0.578125"/><stop stop-opacity="1" stop-color="rgb(12.103271%, 11.637878%, 46.788025%)" offset="0.582031"/><stop stop-opacity="1" stop-color="rgb(12.185669%, 11.717224%, 47.102356%)" offset="0.585938"/><stop stop-opacity="1" stop-color="rgb(12.266541%, 11.795044%, 47.416687%)" offset="0.589844"/><stop stop-opacity="1" stop-color="rgb(12.347412%, 11.872864%, 47.731018%)" offset="0.59375"/><stop stop-opacity="1" stop-color="rgb(12.428284%, 11.950684%, 48.043823%)" offset="0.597656"/><stop stop-opacity="1" stop-color="rgb(12.510681%, 12.028503%, 48.358154%)" offset="0.601563"/><stop stop-opacity="1" stop-color="rgb(12.591553%, 12.106323%, 48.672485%)" offset="0.605469"/><stop stop-opacity="1" stop-color="rgb(12.672424%, 12.185669%, 48.986816%)" offset="0.609375"/><stop stop-opacity="1" stop-color="rgb(12.753296%, 12.263489%, 49.301147%)" offset="0.613281"/><stop stop-opacity="1" stop-color="rgb(12.835693%, 12.341309%, 49.615479%)" offset="0.617188"/><stop stop-opacity="1" stop-color="rgb(12.916565%, 12.419128%, 49.928284%)" offset="0.621094"/><stop stop-opacity="1" stop-color="rgb(12.997437%, 12.496948%, 50.242615%)" offset="0.625"/><stop stop-opacity="1" stop-color="rgb(13.078308%, 12.574768%, 50.556946%)" offset="0.628906"/><stop stop-opacity="1" stop-color="rgb(13.160706%, 12.654114%, 50.871277%)" offset="0.632813"/><stop stop-opacity="1" stop-color="rgb(13.241577%, 12.731934%, 51.184082%)" offset="0.636719"/><stop stop-opacity="1" stop-color="rgb(13.322449%, 12.809753%, 51.498413%)" offset="0.640625"/><stop stop-opacity="1" stop-color="rgb(13.40332%, 12.887573%, 51.812744%)" offset="0.644531"/><stop stop-opacity="1" stop-color="rgb(13.485718%, 12.966919%, 52.127075%)" offset="0.648438"/><stop stop-opacity="1" stop-color="rgb(13.566589%, 13.044739%, 52.441406%)" offset="0.652344"/><stop stop-opacity="1" stop-color="rgb(13.647461%, 13.122559%, 52.755737%)" offset="0.65625"/><stop stop-opacity="1" stop-color="rgb(13.728333%, 13.200378%, 53.068542%)" offset="0.660156"/><stop stop-opacity="1" stop-color="rgb(13.81073%, 13.278198%, 53.382874%)" offset="0.664063"/><stop stop-opacity="1" stop-color="rgb(13.891602%, 13.356018%, 53.697205%)" offset="0.667969"/><stop stop-opacity="1" stop-color="rgb(13.972473%, 13.435364%, 54.011536%)" offset="0.671875"/><stop stop-opacity="1" stop-color="rgb(14.053345%, 13.513184%, 54.324341%)" offset="0.675781"/><stop stop-opacity="1" stop-color="rgb(14.134216%, 13.591003%, 54.638672%)" offset="0.679688"/><stop stop-opacity="1" stop-color="rgb(14.215088%, 13.668823%, 54.953003%)" offset="0.683594"/><stop stop-opacity="1" stop-color="rgb(14.297485%, 13.748169%, 55.267334%)" offset="0.6875"/><stop stop-opacity="1" stop-color="rgb(14.378357%, 13.825989%, 55.581665%)" offset="0.691406"/><stop stop-opacity="1" stop-color="rgb(14.459229%, 13.903809%, 55.895996%)" offset="0.695313"/><stop stop-opacity="1" stop-color="rgb(14.5401%, 13.981628%, 56.208801%)" offset="0.699219"/><stop stop-opacity="1" stop-color="rgb(14.622498%, 14.059448%, 56.523132%)" offset="0.703125"/><stop stop-opacity="1" stop-color="rgb(14.703369%, 14.137268%, 56.837463%)" offset="0.707031"/><stop stop-opacity="1" stop-color="rgb(14.784241%, 14.216614%, 57.151794%)" offset="0.710938"/><stop stop-opacity="1" stop-color="rgb(14.865112%, 14.294434%, 57.4646%)" offset="0.714844"/><stop stop-opacity="1" stop-color="rgb(14.94751%, 14.372253%, 57.778931%)" offset="0.71875"/><stop stop-opacity="1" stop-color="rgb(15.028381%, 14.450073%, 58.093262%)" offset="0.722656"/><stop stop-opacity="1" stop-color="rgb(15.109253%, 14.529419%, 58.407593%)" offset="0.726562"/><stop stop-opacity="1" stop-color="rgb(15.190125%, 14.607239%, 58.721924%)" offset="0.730469"/><stop stop-opacity="1" stop-color="rgb(15.272522%, 14.685059%, 59.036255%)" offset="0.734375"/><stop stop-opacity="1" stop-color="rgb(15.353394%, 14.762878%, 59.34906%)" offset="0.738281"/><stop stop-opacity="1" stop-color="rgb(15.434265%, 14.840698%, 59.663391%)" offset="0.742188"/><stop stop-opacity="1" stop-color="rgb(15.515137%, 14.918518%, 59.977722%)" offset="0.746094"/><stop stop-opacity="1" stop-color="rgb(15.597534%, 14.997864%, 60.292053%)" offset="0.75"/><stop stop-opacity="1" stop-color="rgb(15.678406%, 15.075684%, 60.604858%)" offset="0.753906"/><stop stop-opacity="1" stop-color="rgb(15.759277%, 15.153503%, 60.919189%)" offset="0.757812"/><stop stop-opacity="1" stop-color="rgb(15.840149%, 15.231323%, 61.233521%)" offset="0.761719"/><stop stop-opacity="1" stop-color="rgb(15.922546%, 15.309143%, 61.547852%)" offset="0.765625"/><stop stop-opacity="1" stop-color="rgb(16.003418%, 15.386963%, 61.862183%)" offset="0.769531"/><stop stop-opacity="1" stop-color="rgb(16.08429%, 15.466309%, 62.176514%)" offset="0.773438"/><stop stop-opacity="1" stop-color="rgb(16.165161%, 15.544128%, 62.489319%)" offset="0.777344"/><stop stop-opacity="1" stop-color="rgb(16.247559%, 15.621948%, 62.80365%)" offset="0.78125"/><stop stop-opacity="1" stop-color="rgb(16.32843%, 15.699768%, 63.117981%)" offset="0.785156"/><stop stop-opacity="1" stop-color="rgb(16.409302%, 15.779114%, 63.432312%)" offset="0.789062"/><stop stop-opacity="1" stop-color="rgb(16.490173%, 15.856934%, 63.745117%)" offset="0.792969"/><stop stop-opacity="1" stop-color="rgb(16.572571%, 15.934753%, 64.059448%)" offset="0.796875"/><stop stop-opacity="1" stop-color="rgb(16.653442%, 16.012573%, 64.373779%)" offset="0.800781"/><stop stop-opacity="1" stop-color="rgb(16.734314%, 16.090393%, 64.68811%)" offset="0.804687"/><stop stop-opacity="1" stop-color="rgb(16.815186%, 16.168213%, 65.002441%)" offset="0.808594"/><stop stop-opacity="1" stop-color="rgb(16.897583%, 16.247559%, 65.316772%)" offset="0.8125"/><stop stop-opacity="1" stop-color="rgb(16.978455%, 16.325378%, 65.629578%)" offset="0.816406"/><stop stop-opacity="1" stop-color="rgb(17.059326%, 16.403198%, 65.943909%)" offset="0.820312"/><stop stop-opacity="1" stop-color="rgb(17.140198%, 16.481018%, 66.25824%)" offset="0.824219"/><stop stop-opacity="1" stop-color="rgb(17.222595%, 16.560364%, 66.572571%)" offset="0.828125"/><stop stop-opacity="1" stop-color="rgb(17.303467%, 16.638184%, 66.885376%)" offset="0.832031"/><stop stop-opacity="1" stop-color="rgb(17.384338%, 16.716003%, 67.199707%)" offset="0.835937"/><stop stop-opacity="1" stop-color="rgb(17.46521%, 16.793823%, 67.514038%)" offset="0.839844"/><stop stop-opacity="1" stop-color="rgb(17.547607%, 16.871643%, 67.828369%)" offset="0.84375"/><stop stop-opacity="1" stop-color="rgb(17.628479%, 16.949463%, 68.1427%)" offset="0.847656"/><stop stop-opacity="1" stop-color="rgb(17.709351%, 17.028809%, 68.457031%)" offset="0.851562"/><stop stop-opacity="1" stop-color="rgb(17.790222%, 17.106628%, 68.769836%)" offset="0.855469"/><stop stop-opacity="1" stop-color="rgb(17.87262%, 17.184448%, 69.084167%)" offset="0.859375"/><stop stop-opacity="1" stop-color="rgb(17.953491%, 17.262268%, 69.398499%)" offset="0.863281"/><stop stop-opacity="1" stop-color="rgb(18.034363%, 17.340088%, 69.71283%)" offset="0.867187"/><stop stop-opacity="1" stop-color="rgb(18.115234%, 17.417908%, 70.025635%)" offset="0.871094"/><stop stop-opacity="1" stop-color="rgb(18.197632%, 17.497253%, 70.339966%)" offset="0.875"/><stop stop-opacity="1" stop-color="rgb(18.278503%, 17.575073%, 70.654297%)" offset="0.878906"/><stop stop-opacity="1" stop-color="rgb(18.359375%, 17.652893%, 70.968628%)" offset="0.882812"/><stop stop-opacity="1" stop-color="rgb(18.440247%, 17.730713%, 71.282959%)" offset="0.886719"/><stop stop-opacity="1" stop-color="rgb(18.522644%, 17.810059%, 71.59729%)" offset="0.890625"/><stop stop-opacity="1" stop-color="rgb(18.603516%, 17.887878%, 71.910095%)" offset="0.894531"/><stop stop-opacity="1" stop-color="rgb(18.684387%, 17.965698%, 72.224426%)" offset="0.898437"/><stop stop-opacity="1" stop-color="rgb(18.765259%, 18.043518%, 72.538757%)" offset="0.902344"/><stop stop-opacity="1" stop-color="rgb(18.84613%, 18.121338%, 72.853088%)" offset="0.90625"/><stop stop-opacity="1" stop-color="rgb(18.927002%, 18.199158%, 73.165894%)" offset="0.910156"/><stop stop-opacity="1" stop-color="rgb(19.009399%, 18.278503%, 73.480225%)" offset="0.914062"/><stop stop-opacity="1" stop-color="rgb(19.090271%, 18.356323%, 73.794556%)" offset="0.917969"/><stop stop-opacity="1" stop-color="rgb(19.171143%, 18.434143%, 74.108887%)" offset="0.921875"/><stop stop-opacity="1" stop-color="rgb(19.252014%, 18.511963%, 74.423218%)" offset="0.925781"/><stop stop-opacity="1" stop-color="rgb(19.334412%, 18.591309%, 74.737549%)" offset="0.929687"/><stop stop-opacity="1" stop-color="rgb(19.415283%, 18.669128%, 75.050354%)" offset="0.933594"/><stop stop-opacity="1" stop-color="rgb(19.496155%, 18.746948%, 75.364685%)" offset="0.9375"/><stop stop-opacity="1" stop-color="rgb(19.577026%, 18.824768%, 75.679016%)" offset="0.941406"/><stop stop-opacity="1" stop-color="rgb(19.659424%, 18.902588%, 75.993347%)" offset="0.945312"/><stop stop-opacity="1" stop-color="rgb(19.740295%, 18.980408%, 76.306152%)" offset="0.949219"/><stop stop-opacity="1" stop-color="rgb(19.821167%, 19.059753%, 76.620483%)" offset="0.953125"/><stop stop-opacity="1" stop-color="rgb(19.902039%, 19.137573%, 76.934814%)" offset="0.957031"/><stop stop-opacity="1" stop-color="rgb(19.984436%, 19.215393%, 77.249146%)" offset="0.960937"/><stop stop-opacity="1" stop-color="rgb(20.065308%, 19.293213%, 77.563477%)" offset="0.964844"/><stop stop-opacity="1" stop-color="rgb(20.146179%, 19.372559%, 77.877808%)" offset="0.96875"/><stop stop-opacity="1" stop-color="rgb(20.227051%, 19.450378%, 78.190613%)" offset="0.972656"/><stop stop-opacity="1" stop-color="rgb(20.309448%, 19.528198%, 78.504944%)" offset="0.976562"/><stop stop-opacity="1" stop-color="rgb(20.39032%, 19.606018%, 78.819275%)" offset="0.980469"/><stop stop-opacity="1" stop-color="rgb(20.471191%, 19.683838%, 79.133606%)" offset="0.984375"/><stop stop-opacity="1" stop-color="rgb(20.552063%, 19.761658%, 79.446411%)" offset="0.988281"/><stop stop-opacity="1" stop-color="rgb(20.63446%, 19.841003%, 79.760742%)" offset="0.992187"/><stop stop-opacity="1" stop-color="rgb(20.715332%, 19.918823%, 80.075073%)" offset="0.996094"/><stop stop-opacity="1" stop-color="rgb(20.796204%, 19.996643%, 80.389404%)" offset="1"/></linearGradient><clipPath id="cc7298664a"><path d="M 81 191.871094 L 1359 191.871094 L 1359 713 L 81 713 Z M 81 191.871094 " clip-rule="nonzero"/></clipPath><clipPath id="f6cf7ba511"><path d="M 119.25 191.871094 L 1320.75 191.871094 C 1341.875 191.871094 1359 208.996094 1359 230.121094 L 1359 674.519531 C 1359 695.644531 1341.875 712.769531 1320.75 712.769531 L 119.25 712.769531 C 98.125 712.769531 81 695.644531 81 674.519531 L 81 230.121094 C 81 208.996094 98.125 191.871094 119.25 191.871094 Z M 119.25 191.871094 " clip-rule="nonzero"/></clipPath><clipPath id="631bde6ffa"><path d="M 1232 97.230469 L 1357 97.230469 L 1357 217.980469 L 1232 217.980469 Z M 1232 97.230469 " clip-rule="nonzero"/></clipPath><clipPath id="35e7cf01d7"><path d="M 1233 218.242188 L 1356.617188 218.242188 L 1356.617188 328.492188 L 1233 328.492188 Z M 1233 218.242188 " clip-rule="nonzero"/></clipPath></defs><g clip-path="url(#9d87b7aebd)"><g clip-path="url(#8812d4517b)"><path fill="url(#f1c89abc31)" d="M 81 191.871094 L 81 712.769531 L 1358.832031 712.769531 L 1358.832031 191.871094 Z M 81 191.871094 " fill-rule="nonzero"/></g></g><g clip-path="url(#cc7298664a)"><g clip-path="url(#f6cf7ba511)"><path stroke-linecap="butt" transform="matrix(0.75, 0, 0, 0.75, 81.001533, 191.870283)" fill="none" stroke-linejoin="miter" d="M 50.997958 0.0010808 L 1652.998039 0.0010808 C 1681.164707 0.0010808 1703.998041 22.834415 1703.998041 51.001083 L 1703.998041 643.532363 C 1703.998041 671.699031 1681.164707 694.532366 1652.998039 694.532366 L 50.997958 694.532366 C 22.83129 694.532366 -0.00204446 671.699031 -0.00204446 643.532363 L -0.00204446 51.001083 C -0.00204446 22.834415 22.83129 0.0010808 50.997958 0.0010808 Z M 50.997958 0.0010808 " stroke="#000000" stroke-width="8" stroke-opacity="1" stroke-miterlimit="4"/></g></g><g clip-path="url(#631bde6ffa)"><path fill="#5e17eb" d="M 1354.003906 156.398438 L 1294.816406 97.210938 L 1235.628906 156.398438 C 1231.917969 160.105469 1231.917969 166.121094 1235.628906 169.832031 C 1239.335938 173.542969 1245.351562 173.542969 1249.0625 169.832031 L 1285.316406 133.578125 L 1285.316406 276.640625 C 1285.316406 281.890625 1289.570312 286.140625 1294.816406 286.140625 C 1300.0625 286.140625 1304.316406 281.890625 1304.316406 276.640625 L 1304.316406 133.578125 L 1340.570312 169.832031 C 1342.425781 171.6875 1344.855469 172.613281 1347.285156 172.613281 C 1349.71875 172.613281 1352.148438 171.6875 1354.003906 169.832031 C 1357.714844 166.121094 1357.714844 160.105469 1354.003906 156.398438 " fill-opacity="1" fill-rule="nonzero"/></g><g clip-path="url(#35e7cf01d7)"><path fill="#5bffd3" d="M 1355.140625 198.875 L 1295.953125 139.683594 L 1236.761719 198.875 C 1233.050781 202.582031 1233.050781 208.597656 1236.761719 212.308594 C 1240.472656 216.019531 1246.488281 216.019531 1250.195312 212.308594 L 1286.449219 176.054688 L 1286.449219 319.117188 C 1286.449219 324.363281 1290.703125 328.617188 1295.953125 328.617188 C 1301.195312 328.617188 1305.449219 324.363281 1305.449219 319.117188 L 1305.449219 176.054688 L 1341.707031 212.308594 C 1343.558594 214.160156 1345.992188 215.089844 1348.421875 215.089844 C 1350.851562 215.089844 1353.285156 214.160156 1355.140625 212.308594 C 1358.847656 208.597656 1358.847656 202.582031 1355.140625 198.875 " fill-opacity="1" fill-rule="nonzero"/></g><g fill="#f8f9fa" fill-opacity="1"><g transform="translate(388.853403, 318.927513)"><g><path d="M 31.910156 -39.394531 L 31.910156 -9.003906 L 9.847656 -39.394531 L 5.347656 -39.394531 L 5.347656 0 L 10.1875 0 L 10.1875 -30.726562 L 32.585938 0 L 36.75 0 L 36.75 -39.394531 Z M 31.910156 -39.394531 "/></g></g></g><g fill="#f8f9fa" fill-opacity="1"><g transform="translate(431.001404, 318.927513)"><g><path d="M 33.203125 -15.027344 C 33.203125 -23.917969 27.125 -31.007812 17.894531 -31.007812 C 9.058594 -31.007812 2.417969 -24.199219 2.417969 -15.195312 C 2.417969 -6.132812 9.058594 0.675781 17.894531 0.675781 C 24.480469 0.675781 29.828125 -2.984375 32.414062 -9.230469 L 27.351562 -9.230469 C 25.492188 -5.964844 22.117188 -3.996094 17.894531 -3.996094 C 12.15625 -3.996094 7.933594 -7.710938 7.203125 -13.335938 L 33.089844 -13.335938 C 33.148438 -13.898438 33.203125 -14.464844 33.203125 -15.027344 Z M 17.894531 -26.507812 C 23.296875 -26.507812 27.40625 -23.128906 28.417969 -17.726562 L 7.316406 -17.726562 C 8.273438 -23.015625 12.378906 -26.507812 17.894531 -26.507812 Z M 17.894531 -26.507812 "/></g></g></g><g fill="#f8f9fa" fill-opacity="1"><g transform="translate(466.565541, 318.927513)"><g><path d="M 41.8125 -30.390625 L 34.105469 -7.765625 L 24.707031 -29.882812 L 22.960938 -29.882812 L 13.675781 -7.992188 L 6.078125 -30.390625 L 1.125 -30.390625 L 11.367188 0 L 15.25 0 L 23.859375 -20.652344 L 32.414062 0 L 36.296875 0 L 46.652344 -30.390625 Z M 41.8125 -30.390625 "/></g></g></g><g fill="#f8f9fa" fill-opacity="1"><g transform="translate(514.340756, 318.927513)"><g/></g></g><g fill="#f8f9fa" fill-opacity="1"><g transform="translate(529.084098, 318.927513)"><g><path d="M 17.109375 0.507812 C 24.929688 0.507812 31.007812 -3.714844 31.007812 -11.144531 C 31.007812 -19.359375 24.03125 -20.992188 17.839844 -22.511719 C 12.773438 -23.691406 8.214844 -24.816406 8.214844 -29.09375 C 8.214844 -32.867188 11.816406 -35.117188 16.601562 -35.117188 C 21.386719 -35.117188 24.988281 -32.585938 24.988281 -28.195312 L 29.882812 -28.195312 C 29.882812 -35.339844 24.875 -39.84375 16.714844 -39.84375 C 8.554688 -39.84375 3.320312 -35.734375 3.320312 -28.925781 C 3.320312 -21.046875 10.015625 -19.414062 16.09375 -18.007812 C 21.214844 -16.769531 25.886719 -15.699219 25.886719 -11.085938 C 25.886719 -6.921875 22.003906 -4.332031 17.050781 -4.332031 C 11.59375 -4.332031 7.597656 -7.203125 7.597656 -12.097656 L 2.53125 -12.097656 C 2.53125 -4.332031 8.441406 0.507812 17.109375 0.507812 Z M 17.109375 0.507812 "/></g></g></g><g fill="#f8f9fa" fill-opacity="1"><g transform="translate(562.678693, 318.927513)"><g><path d="M 30.726562 -30.390625 L 30.109375 -25.71875 C 27.292969 -29.039062 23.074219 -31.007812 18.121094 -31.007812 C 9.117188 -31.007812 2.363281 -24.253906 2.363281 -15.136719 C 2.363281 -6.132812 9.117188 0.675781 18.121094 0.675781 C 23.074219 0.675781 27.238281 -1.292969 30.050781 -4.558594 L 30.558594 0 L 34.496094 0 L 34.496094 -30.390625 Z M 18.457031 -3.9375 C 12.042969 -3.9375 7.257812 -8.777344 7.257812 -15.195312 C 7.257812 -21.554688 12.042969 -26.394531 18.457031 -26.394531 C 24.929688 -26.394531 29.601562 -21.609375 29.601562 -15.195312 C 29.601562 -8.722656 24.929688 -3.9375 18.457031 -3.9375 Z M 18.457031 -3.9375 "/></g></g></g><g fill="#f8f9fa" fill-opacity="1"><g transform="translate(602.013052, 318.927513)"><g><path d="M 4.785156 0 L 9.566406 0 L 9.566406 -41.195312 L 4.785156 -41.195312 Z M 4.785156 0 "/></g></g></g><g fill="#f8f9fa" fill-opacity="1"><g transform="translate(616.418775, 318.927513)"><g><path d="M 33.203125 -15.027344 C 33.203125 -23.917969 27.125 -31.007812 17.894531 -31.007812 C 9.058594 -31.007812 2.417969 -24.199219 2.417969 -15.195312 C 2.417969 -6.132812 9.058594 0.675781 17.894531 0.675781 C 24.480469 0.675781 29.828125 -2.984375 32.414062 -9.230469 L 27.351562 -9.230469 C 25.492188 -5.964844 22.117188 -3.996094 17.894531 -3.996094 C 12.15625 -3.996094 7.933594 -7.710938 7.203125 -13.335938 L 33.089844 -13.335938 C 33.148438 -13.898438 33.203125 -14.464844 33.203125 -15.027344 Z M 17.894531 -26.507812 C 23.296875 -26.507812 27.40625 -23.128906 28.417969 -17.726562 L 7.316406 -17.726562 C 8.273438 -23.015625 12.378906 -26.507812 17.894531 -26.507812 Z M 17.894531 -26.507812 "/></g></g></g><g fill="#f8f9fa" fill-opacity="1"><g transform="translate(651.982911, 318.927513)"><g><path d="M 14.40625 0.675781 C 21.609375 0.675781 26.449219 -2.984375 26.449219 -8.667969 C 26.449219 -16.09375 20.257812 -17.109375 15.027344 -17.953125 C 10.972656 -18.570312 7.484375 -19.191406 7.484375 -22.398438 C 7.484375 -25.042969 10.074219 -26.730469 14.183594 -26.730469 C 18.457031 -26.730469 21.046875 -24.929688 21.214844 -21.609375 L 25.71875 -21.609375 C 25.550781 -27.351562 21.160156 -31.007812 14.292969 -31.007812 C 7.429688 -31.007812 2.8125 -27.464844 2.8125 -22.230469 C 2.8125 -15.363281 8.667969 -14.292969 13.84375 -13.394531 C 17.953125 -12.71875 21.722656 -12.042969 21.722656 -8.441406 C 21.722656 -5.515625 18.738281 -3.714844 14.574219 -3.714844 C 10.296875 -3.714844 7.203125 -5.683594 6.976562 -9.285156 L 2.25 -9.285156 C 2.53125 -3.152344 7.203125 0.675781 14.40625 0.675781 Z M 14.40625 0.675781 "/></g></g></g><g fill="#f8f9fa" fill-opacity="1"><g transform="translate(680.850632, 318.927513)"><g/></g></g><g fill="#f8f9fa" fill-opacity="1"><g transform="translate(695.593975, 318.927513)"><g><path d="M 21.273438 -19.527344 L 21.273438 -14.855469 L 36.972656 -14.855469 C 35.566406 -8.441406 29.882812 -4.164062 22.679688 -4.164062 C 13.789062 -4.164062 7.710938 -10.523438 7.710938 -19.640625 C 7.710938 -28.699219 13.957031 -35.117188 22.679688 -35.117188 C 29.320312 -35.117188 34.949219 -31.347656 36.636719 -25.605469 L 41.757812 -25.605469 C 40.011719 -34.046875 32.019531 -39.957031 22.566406 -39.957031 C 11.085938 -39.957031 2.703125 -31.347656 2.703125 -19.640625 C 2.703125 -7.933594 11.085938 0.675781 22.679688 0.675781 C 34.046875 0.675781 42.152344 -7.652344 42.375 -19.527344 Z M 21.273438 -19.527344 "/></g></g></g><g fill="#f8f9fa" fill-opacity="1"><g transform="translate(740.499306, 318.927513)"><g><path d="M 33.203125 -15.027344 C 33.203125 -23.917969 27.125 -31.007812 17.894531 -31.007812 C 9.058594 -31.007812 2.417969 -24.199219 2.417969 -15.195312 C 2.417969 -6.132812 9.058594 0.675781 17.894531 0.675781 C 24.480469 0.675781 29.828125 -2.984375 32.414062 -9.230469 L 27.351562 -9.230469 C 25.492188 -5.964844 22.117188 -3.996094 17.894531 -3.996094 C 12.15625 -3.996094 7.933594 -7.710938 7.203125 -13.335938 L 33.089844 -13.335938 C 33.148438 -13.898438 33.203125 -14.464844 33.203125 -15.027344 Z M 17.894531 -26.507812 C 23.296875 -26.507812 27.40625 -23.128906 28.417969 -17.726562 L 7.316406 -17.726562 C 8.273438 -23.015625 12.378906 -26.507812 17.894531 -26.507812 Z M 17.894531 -26.507812 "/></g></g></g><g fill="#f8f9fa" fill-opacity="1"><g transform="translate(776.063443, 318.927513)"><g><path d="M 19.976562 -31.007812 C 15.308594 -31.007812 11.425781 -28.980469 9.117188 -25.605469 L 8.214844 -30.390625 L 4.785156 -30.390625 L 4.785156 0 L 9.566406 0 L 9.566406 -16.546875 C 9.566406 -22.230469 13.5625 -26.675781 18.796875 -26.675781 C 24.03125 -26.675781 26.957031 -23.1875 26.957031 -17.050781 L 26.957031 0 L 31.738281 0 L 31.738281 -18.175781 C 31.738281 -25.605469 27.238281 -31.007812 19.976562 -31.007812 Z M 19.976562 -31.007812 "/></g></g></g><g fill="#f8f9fa" fill-opacity="1"><g transform="translate(812.190301, 318.927513)"><g><path d="M 33.203125 -15.027344 C 33.203125 -23.917969 27.125 -31.007812 17.894531 -31.007812 C 9.058594 -31.007812 2.417969 -24.199219 2.417969 -15.195312 C 2.417969 -6.132812 9.058594 0.675781 17.894531 0.675781 C 24.480469 0.675781 29.828125 -2.984375 32.414062 -9.230469 L 27.351562 -9.230469 C 25.492188 -5.964844 22.117188 -3.996094 17.894531 -3.996094 C 12.15625 -3.996094 7.933594 -7.710938 7.203125 -13.335938 L 33.089844 -13.335938 C 33.148438 -13.898438 33.203125 -14.464844 33.203125 -15.027344 Z M 17.894531 -26.507812 C 23.296875 -26.507812 27.40625 -23.128906 28.417969 -17.726562 L 7.316406 -17.726562 C 8.273438 -23.015625 12.378906 -26.507812 17.894531 -26.507812 Z M 17.894531 -26.507812 "/></g></g></g><g fill="#f8f9fa" fill-opacity="1"><g transform="translate(847.754438, 318.927513)"><g><path d="M 18.683594 -30.5 C 14.292969 -30.5 11.144531 -28.871094 8.949219 -25.71875 L 8.214844 -30.390625 L 4.785156 -30.390625 L 4.785156 0 L 9.566406 0 L 9.566406 -16.488281 C 9.566406 -22.398438 12.71875 -26 18.289062 -26 L 21.386719 -26 L 21.386719 -30.5 Z M 18.683594 -30.5 "/></g></g></g><g fill="#f8f9fa" fill-opacity="1"><g transform="translate(869.475573, 318.927513)"><g><path d="M 30.726562 -30.390625 L 30.109375 -25.71875 C 27.292969 -29.039062 23.074219 -31.007812 18.121094 -31.007812 C 9.117188 -31.007812 2.363281 -24.253906 2.363281 -15.136719 C 2.363281 -6.132812 9.117188 0.675781 18.121094 0.675781 C 23.074219 0.675781 27.238281 -1.292969 30.050781 -4.558594 L 30.558594 0 L 34.496094 0 L 34.496094 -30.390625 Z M 18.457031 -3.9375 C 12.042969 -3.9375 7.257812 -8.777344 7.257812 -15.195312 C 7.257812 -21.554688 12.042969 -26.394531 18.457031 -26.394531 C 24.929688 -26.394531 29.601562 -21.609375 29.601562 -15.195312 C 29.601562 -8.722656 24.929688 -3.9375 18.457031 -3.9375 Z M 18.457031 -3.9375 "/></g></g></g><g fill="#f8f9fa" fill-opacity="1"><g transform="translate(908.809932, 318.927513)"><g><path d="M 17.390625 -4.390625 C 13.226562 -4.390625 10.972656 -6.640625 10.972656 -10.75 L 10.972656 -26.054688 L 20.539062 -26.054688 L 20.539062 -30.390625 L 10.972656 -30.390625 L 10.972656 -36.804688 L 10.242188 -36.804688 L 0.84375 -26.898438 L 0.84375 -26.054688 L 6.191406 -26.054688 L 6.191406 -10.578125 C 6.191406 -3.996094 10.242188 0 16.769531 0 L 20.710938 0 L 20.710938 -4.390625 Z M 17.390625 -4.390625 "/></g></g></g><g fill="#f8f9fa" fill-opacity="1"><g transform="translate(931.093789, 318.927513)"><g><path d="M 33.203125 -15.027344 C 33.203125 -23.917969 27.125 -31.007812 17.894531 -31.007812 C 9.058594 -31.007812 2.417969 -24.199219 2.417969 -15.195312 C 2.417969 -6.132812 9.058594 0.675781 17.894531 0.675781 C 24.480469 0.675781 29.828125 -2.984375 32.414062 -9.230469 L 27.351562 -9.230469 C 25.492188 -5.964844 22.117188 -3.996094 17.894531 -3.996094 C 12.15625 -3.996094 7.933594 -7.710938 7.203125 -13.335938 L 33.089844 -13.335938 C 33.148438 -13.898438 33.203125 -14.464844 33.203125 -15.027344 Z M 17.894531 -26.507812 C 23.296875 -26.507812 27.40625 -23.128906 28.417969 -17.726562 L 7.316406 -17.726562 C 8.273438 -23.015625 12.378906 -26.507812 17.894531 -26.507812 Z M 17.894531 -26.507812 "/></g></g></g><g fill="#f8f9fa" fill-opacity="1"><g transform="translate(966.657892, 318.927513)"><g><path d="M 29.320312 -41.195312 L 29.320312 -26.507812 C 26.507812 -29.320312 22.566406 -31.007812 18.066406 -31.007812 C 8.949219 -31.007812 2.363281 -24.253906 2.363281 -15.136719 C 2.363281 -6.132812 8.949219 0.675781 18.066406 0.675781 C 22.847656 0.675781 26.957031 -1.183594 29.769531 -4.277344 L 30.390625 0.0546875 L 34.105469 0.0546875 L 34.105469 -41.195312 Z M 18.402344 -3.9375 C 11.988281 -3.9375 7.257812 -8.722656 7.257812 -15.136719 C 7.257812 -21.609375 11.988281 -26.394531 18.402344 -26.394531 C 24.875 -26.394531 29.601562 -21.554688 29.601562 -15.136719 C 29.601562 -8.777344 24.875 -3.9375 18.402344 -3.9375 Z M 18.402344 -3.9375 "/></g></g></g><g fill="#5bffd3" fill-opacity="1"><g transform="translate(298.476949, 581.682064)"><g><path d="M 161.253906 -54.324219 C 161.253906 -96.851562 124.136719 -105.207031 92.917969 -112.089844 L 92.671875 -112.089844 L 92.671875 -159.285156 C 106.191406 -156.089844 116.515625 -147.242188 120.203125 -131.753906 L 156.335938 -131.753906 C 151.175781 -167.890625 124.136719 -186.816406 92.671875 -190.257812 L 92.671875 -212.136719 L 82.347656 -212.136719 L 82.347656 -190.996094 L 81.117188 -190.996094 C 43.261719 -190.996094 14.75 -172.070312 14.75 -135.933594 C 14.75 -96.359375 49.652344 -88.738281 80.378906 -81.855469 L 82.347656 -81.363281 L 82.347656 -27.285156 C 65.878906 -29.496094 50.390625 -38.347656 45.230469 -60.960938 L 8.601562 -60.960938 C 12.78125 -16.46875 48.671875 0.738281 82.347656 3.195312 L 82.347656 24.582031 L 92.671875 24.582031 L 92.671875 3.441406 C 135.933594 2.949219 161.253906 -19.417969 161.253906 -54.324219 Z M 49.898438 -138.882812 C 49.898438 -153.140625 62.683594 -160.761719 80.378906 -160.761719 L 82.347656 -160.761719 L 82.347656 -114.546875 C 64.15625 -118.972656 49.898438 -124.382812 49.898438 -138.882812 Z M 92.671875 -79.152344 C 111.105469 -74.480469 125.609375 -68.582031 125.609375 -52.605469 C 125.609375 -35.152344 111.597656 -27.039062 92.671875 -26.792969 Z M 92.671875 -79.152344 "/></g></g></g><g fill="#5bffd3" fill-opacity="1"><g transform="translate(469.539178, 581.682064)"><g><path d="M 94.882812 0 L 94.882812 -187.554688 L 60.46875 -187.554688 C 51.621094 -168.628906 33.183594 -152.402344 8.359375 -147.488281 L 8.359375 -114.792969 C 29.25 -117.988281 47.6875 -129.296875 59.488281 -144.292969 L 59.488281 0 Z M 94.882812 0 "/></g></g></g><g fill="#5bffd3" fill-opacity="1"><g transform="translate(580.385535, 581.682064)"><g><path d="M 60.960938 0 L 136.917969 -156.582031 L 136.917969 -187.554688 L 7.621094 -187.554688 L 7.621094 -155.84375 L 100.539062 -155.84375 L 22.125 0 Z M 60.960938 0 "/></g></g></g><g fill="#5bffd3" fill-opacity="1"><g transform="translate(725.886739, 581.682064)"><g><path d="M 82.839844 3.441406 C 124.871094 3.441406 150.683594 -24.582031 150.683594 -93.164062 C 150.683594 -162.726562 124.382812 -190.996094 81.855469 -190.996094 C 40.066406 -190.996094 14.011719 -162.972656 14.011719 -94.390625 C 14.011719 -24.582031 40.558594 3.441406 82.839844 3.441406 Z M 82.101562 -28.269531 C 62.191406 -28.269531 49.410156 -43.015625 49.410156 -93.898438 C 49.410156 -144.046875 61.699219 -159.039062 81.609375 -159.039062 C 101.273438 -159.039062 115.285156 -144.292969 115.285156 -93.65625 C 115.285156 -43.015625 101.765625 -28.269531 82.101562 -28.269531 Z M 82.101562 -28.269531 "/></g></g></g><g fill="#5bffd3" fill-opacity="1"><g transform="translate(890.558746, 581.682064)"><g><path d="M 147.734375 0 L 147.734375 -31.710938 L 65.878906 -31.710938 L 94.882812 -57.765625 C 114.546875 -75.464844 139.375 -102.257812 139.375 -134.949219 C 139.375 -169.609375 114.058594 -190.75 78.660156 -190.75 C 37.363281 -190.75 13.765625 -166.167969 12.289062 -121.675781 L 44.984375 -121.675781 C 46.457031 -148.46875 58.011719 -160.515625 78.414062 -160.515625 C 98.078125 -160.515625 106.683594 -148.714844 106.683594 -131.753906 C 106.683594 -114.300781 94.882812 -98.078125 72.515625 -78.414062 L 13.519531 -26.792969 L 13.519531 0 Z M 147.734375 0 "/></g></g></g><g fill="#5bffd3" fill-opacity="1"><g transform="translate(1049.823522, 581.682064)"><g><path d="M 82.59375 3.441406 C 122.660156 3.441406 150.191406 -20.894531 150.191406 -55.800781 C 150.191406 -79.398438 136.425781 -99.0625 110.863281 -102.011719 C 128.066406 -105.699219 138.882812 -121.183594 138.882812 -139.867188 C 138.882812 -169.117188 115.285156 -190.75 79.644531 -190.75 C 44.984375 -190.75 19.910156 -167.890625 17.945312 -132.984375 L 50.390625 -132.984375 C 52.851562 -152.15625 63.910156 -160.515625 79.398438 -160.515625 C 95.867188 -160.515625 104.714844 -151.421875 104.714844 -137.410156 C 104.714844 -121.675781 92.179688 -112.828125 76.203125 -112.828125 L 66.125 -112.828125 L 66.125 -84.066406 L 77.429688 -84.066406 C 100.78125 -84.066406 114.792969 -75.464844 114.792969 -56.292969 C 114.792969 -38.347656 103.488281 -26.792969 83.085938 -26.792969 C 60.222656 -26.792969 48.917969 -38.59375 46.457031 -59.242188 L 11.0625 -59.242188 C 13.027344 -20.648438 41.050781 3.441406 82.59375 3.441406 Z M 82.59375 3.441406 "/></g></g></g></svg>