<svg xmlns="http://www.w3.org/2000/svg" xmlns:xlink="http://www.w3.org/1999/xlink" width="1920" zoomAndPan="magnify" viewBox="0 0 1440 809.999993" height="1080" preserveAspectRatio="xMidYMid meet" version="1.0"><defs><g/><clipPath id="954e4acf24"><path d="M 28.035156 81 L 1411.359375 81 L 1411.359375 759.414062 L 28.035156 759.414062 Z M 28.035156 81 " clip-rule="nonzero"/></clipPath><clipPath id="cd76a69ec3"><path d="M 66.285156 81 L 1373.714844 81 C 1383.859375 81 1393.589844 85.03125 1400.761719 92.203125 C 1407.9375 99.375 1411.964844 109.105469 1411.964844 119.25 L 1411.964844 721.164062 C 1411.964844 731.308594 1407.9375 741.035156 1400.761719 748.210938 C 1393.589844 755.382812 1383.859375 759.414062 1373.714844 759.414062 L 66.285156 759.414062 C 56.140625 759.414062 46.410156 755.382812 39.238281 748.210938 C 32.0625 741.035156 28.035156 731.308594 28.035156 721.164062 L 28.035156 119.25 C 28.035156 109.105469 32.0625 99.375 39.238281 92.203125 C 46.410156 85.03125 56.140625 81 66.285156 81 Z M 66.285156 81 " clip-rule="nonzero"/></clipPath><linearGradient x1="0.0000001177" gradientTransform="matrix(2.650048, 0, 0, 2.650048, 28.034153, 81.000019)" y1="0" x2="521.999992" gradientUnits="userSpaceOnUse" y2="0" id="a406e7d9f5"><stop stop-opacity="1" stop-color="rgb(100%, 96.899414%, 67.799377%)" offset="0"/><stop stop-opacity="1" stop-color="rgb(100%, 96.77887%, 67.915344%)" offset="0.0078125"/><stop stop-opacity="1" stop-color="rgb(100%, 96.540833%, 68.147278%)" offset="0.015625"/><stop stop-opacity="1" stop-color="rgb(100%, 96.30127%, 68.380737%)" offset="0.0234375"/><stop stop-opacity="1" stop-color="rgb(100%, 96.061707%, 68.612671%)" offset="0.03125"/><stop stop-opacity="1" stop-color="rgb(100%, 95.823669%, 68.84613%)" offset="0.0390625"/><stop stop-opacity="1" stop-color="rgb(100%, 95.584106%, 69.078064%)" offset="0.046875"/><stop stop-opacity="1" stop-color="rgb(100%, 95.346069%, 69.311523%)" offset="0.0546875"/><stop stop-opacity="1" stop-color="rgb(100%, 95.106506%, 69.543457%)" offset="0.0625"/><stop stop-opacity="1" stop-color="rgb(100%, 94.866943%, 69.776917%)" offset="0.0703125"/><stop stop-opacity="1" stop-color="rgb(100%, 94.628906%, 70.010376%)" offset="0.078125"/><stop stop-opacity="1" stop-color="rgb(100%, 94.389343%, 70.24231%)" offset="0.0859375"/><stop stop-opacity="1" stop-color="rgb(100%, 94.151306%, 70.475769%)" offset="0.09375"/><stop stop-opacity="1" stop-color="rgb(100%, 93.911743%, 70.707703%)" offset="0.101563"/><stop stop-opacity="1" stop-color="rgb(100%, 93.67218%, 70.941162%)" offset="0.109375"/><stop stop-opacity="1" stop-color="rgb(100%, 93.434143%, 71.173096%)" offset="0.117187"/><stop stop-opacity="1" stop-color="rgb(100%, 93.19458%, 71.406555%)" offset="0.125"/><stop stop-opacity="1" stop-color="rgb(100%, 92.956543%, 71.638489%)" offset="0.132813"/><stop stop-opacity="1" stop-color="rgb(100%, 92.71698%, 71.871948%)" offset="0.140625"/><stop stop-opacity="1" stop-color="rgb(100%, 92.477417%, 72.103882%)" offset="0.148438"/><stop stop-opacity="1" stop-color="rgb(100%, 92.23938%, 72.337341%)" offset="0.15625"/><stop stop-opacity="1" stop-color="rgb(100%, 91.999817%, 72.569275%)" offset="0.164063"/><stop stop-opacity="1" stop-color="rgb(100%, 91.76178%, 72.802734%)" offset="0.171875"/><stop stop-opacity="1" stop-color="rgb(100%, 91.522217%, 73.034668%)" offset="0.179688"/><stop stop-opacity="1" stop-color="rgb(100%, 91.282654%, 73.268127%)" offset="0.1875"/><stop stop-opacity="1" stop-color="rgb(100%, 91.044617%, 73.500061%)" offset="0.195313"/><stop stop-opacity="1" stop-color="rgb(100%, 90.805054%, 73.733521%)" offset="0.203125"/><stop stop-opacity="1" stop-color="rgb(100%, 90.567017%, 73.965454%)" offset="0.210938"/><stop stop-opacity="1" stop-color="rgb(100%, 90.327454%, 74.198914%)" offset="0.21875"/><stop stop-opacity="1" stop-color="rgb(100%, 90.087891%, 74.430847%)" offset="0.226563"/><stop stop-opacity="1" stop-color="rgb(100%, 89.849854%, 74.664307%)" offset="0.234375"/><stop stop-opacity="1" stop-color="rgb(100%, 89.610291%, 74.89624%)" offset="0.242188"/><stop stop-opacity="1" stop-color="rgb(100%, 89.370728%, 75.1297%)" offset="0.25"/><stop stop-opacity="1" stop-color="rgb(100%, 89.13269%, 75.361633%)" offset="0.257813"/><stop stop-opacity="1" stop-color="rgb(100%, 88.893127%, 75.595093%)" offset="0.265625"/><stop stop-opacity="1" stop-color="rgb(100%, 88.65509%, 75.827026%)" offset="0.273438"/><stop stop-opacity="1" stop-color="rgb(100%, 88.415527%, 76.060486%)" offset="0.28125"/><stop stop-opacity="1" stop-color="rgb(100%, 88.175964%, 76.292419%)" offset="0.289062"/><stop stop-opacity="1" stop-color="rgb(100%, 87.937927%, 76.525879%)" offset="0.296875"/><stop stop-opacity="1" stop-color="rgb(100%, 87.698364%, 76.757812%)" offset="0.304688"/><stop stop-opacity="1" stop-color="rgb(100%, 87.460327%, 76.991272%)" offset="0.3125"/><stop stop-opacity="1" stop-color="rgb(100%, 87.220764%, 77.223206%)" offset="0.320313"/><stop stop-opacity="1" stop-color="rgb(100%, 86.981201%, 77.456665%)" offset="0.328125"/><stop stop-opacity="1" stop-color="rgb(100%, 86.743164%, 77.688599%)" offset="0.335938"/><stop stop-opacity="1" stop-color="rgb(100%, 86.503601%, 77.922058%)" offset="0.34375"/><stop stop-opacity="1" stop-color="rgb(100%, 86.265564%, 78.153992%)" offset="0.351563"/><stop stop-opacity="1" stop-color="rgb(100%, 86.026001%, 78.387451%)" offset="0.359375"/><stop stop-opacity="1" stop-color="rgb(100%, 85.786438%, 78.619385%)" offset="0.367188"/><stop stop-opacity="1" stop-color="rgb(100%, 85.548401%, 78.852844%)" offset="0.375"/><stop stop-opacity="1" stop-color="rgb(100%, 85.308838%, 79.084778%)" offset="0.382813"/><stop stop-opacity="1" stop-color="rgb(100%, 85.070801%, 79.318237%)" offset="0.390625"/><stop stop-opacity="1" stop-color="rgb(100%, 84.831238%, 79.551697%)" offset="0.398438"/><stop stop-opacity="1" stop-color="rgb(100%, 84.591675%, 79.78363%)" offset="0.40625"/><stop stop-opacity="1" stop-color="rgb(100%, 84.353638%, 80.01709%)" offset="0.414062"/><stop stop-opacity="1" stop-color="rgb(100%, 84.114075%, 80.249023%)" offset="0.421875"/><stop stop-opacity="1" stop-color="rgb(100%, 83.876038%, 80.482483%)" offset="0.429688"/><stop stop-opacity="1" stop-color="rgb(100%, 83.636475%, 80.714417%)" offset="0.4375"/><stop stop-opacity="1" stop-color="rgb(100%, 83.396912%, 80.947876%)" offset="0.445313"/><stop stop-opacity="1" stop-color="rgb(100%, 83.158875%, 81.17981%)" offset="0.453125"/><stop stop-opacity="1" stop-color="rgb(100%, 82.919312%, 81.413269%)" offset="0.460938"/><stop stop-opacity="1" stop-color="rgb(100%, 82.681274%, 81.645203%)" offset="0.46875"/><stop stop-opacity="1" stop-color="rgb(100%, 82.441711%, 81.878662%)" offset="0.476563"/><stop stop-opacity="1" stop-color="rgb(100%, 82.202148%, 82.110596%)" offset="0.484375"/><stop stop-opacity="1" stop-color="rgb(100%, 81.964111%, 82.344055%)" offset="0.492188"/><stop stop-opacity="1" stop-color="rgb(100%, 81.724548%, 82.575989%)" offset="0.5"/><stop stop-opacity="1" stop-color="rgb(100%, 81.484985%, 82.809448%)" offset="0.507812"/><stop stop-opacity="1" stop-color="rgb(100%, 81.246948%, 83.041382%)" offset="0.515625"/><stop stop-opacity="1" stop-color="rgb(100%, 81.007385%, 83.274841%)" offset="0.523438"/><stop stop-opacity="1" stop-color="rgb(100%, 80.769348%, 83.506775%)" offset="0.53125"/><stop stop-opacity="1" stop-color="rgb(100%, 80.529785%, 83.740234%)" offset="0.539062"/><stop stop-opacity="1" stop-color="rgb(100%, 80.290222%, 83.972168%)" offset="0.546875"/><stop stop-opacity="1" stop-color="rgb(100%, 80.052185%, 84.205627%)" offset="0.554688"/><stop stop-opacity="1" stop-color="rgb(100%, 79.812622%, 84.437561%)" offset="0.5625"/><stop stop-opacity="1" stop-color="rgb(100%, 79.574585%, 84.671021%)" offset="0.570312"/><stop stop-opacity="1" stop-color="rgb(100%, 79.335022%, 84.902954%)" offset="0.578125"/><stop stop-opacity="1" stop-color="rgb(100%, 79.095459%, 85.136414%)" offset="0.585937"/><stop stop-opacity="1" stop-color="rgb(100%, 78.857422%, 85.368347%)" offset="0.59375"/><stop stop-opacity="1" stop-color="rgb(100%, 78.617859%, 85.601807%)" offset="0.601562"/><stop stop-opacity="1" stop-color="rgb(100%, 78.379822%, 85.83374%)" offset="0.609375"/><stop stop-opacity="1" stop-color="rgb(100%, 78.140259%, 86.0672%)" offset="0.617188"/><stop stop-opacity="1" stop-color="rgb(100%, 77.900696%, 86.299133%)" offset="0.625"/><stop stop-opacity="1" stop-color="rgb(100%, 77.662659%, 86.532593%)" offset="0.632812"/><stop stop-opacity="1" stop-color="rgb(100%, 77.423096%, 86.764526%)" offset="0.640625"/><stop stop-opacity="1" stop-color="rgb(100%, 77.185059%, 86.997986%)" offset="0.648438"/><stop stop-opacity="1" stop-color="rgb(100%, 76.945496%, 87.229919%)" offset="0.65625"/><stop stop-opacity="1" stop-color="rgb(100%, 76.705933%, 87.463379%)" offset="0.664063"/><stop stop-opacity="1" stop-color="rgb(100%, 76.467896%, 87.695312%)" offset="0.671875"/><stop stop-opacity="1" stop-color="rgb(100%, 76.228333%, 87.928772%)" offset="0.679688"/><stop stop-opacity="1" stop-color="rgb(100%, 75.990295%, 88.160706%)" offset="0.6875"/><stop stop-opacity="1" stop-color="rgb(100%, 75.750732%, 88.394165%)" offset="0.695312"/><stop stop-opacity="1" stop-color="rgb(100%, 75.511169%, 88.626099%)" offset="0.703125"/><stop stop-opacity="1" stop-color="rgb(100%, 75.273132%, 88.859558%)" offset="0.710938"/><stop stop-opacity="1" stop-color="rgb(100%, 75.033569%, 89.093018%)" offset="0.71875"/><stop stop-opacity="1" stop-color="rgb(100%, 74.794006%, 89.324951%)" offset="0.726562"/><stop stop-opacity="1" stop-color="rgb(100%, 74.555969%, 89.558411%)" offset="0.734375"/><stop stop-opacity="1" stop-color="rgb(100%, 74.316406%, 89.790344%)" offset="0.742188"/><stop stop-opacity="1" stop-color="rgb(100%, 74.078369%, 90.023804%)" offset="0.75"/><stop stop-opacity="1" stop-color="rgb(100%, 73.838806%, 90.255737%)" offset="0.757812"/><stop stop-opacity="1" stop-color="rgb(100%, 73.599243%, 90.489197%)" offset="0.765625"/><stop stop-opacity="1" stop-color="rgb(100%, 73.361206%, 90.72113%)" offset="0.773438"/><stop stop-opacity="1" stop-color="rgb(100%, 73.121643%, 90.95459%)" offset="0.78125"/><stop stop-opacity="1" stop-color="rgb(100%, 72.883606%, 91.186523%)" offset="0.789062"/><stop stop-opacity="1" stop-color="rgb(100%, 72.644043%, 91.419983%)" offset="0.796875"/><stop stop-opacity="1" stop-color="rgb(100%, 72.40448%, 91.651917%)" offset="0.804688"/><stop stop-opacity="1" stop-color="rgb(100%, 72.166443%, 91.885376%)" offset="0.8125"/><stop stop-opacity="1" stop-color="rgb(100%, 71.92688%, 92.11731%)" offset="0.820312"/><stop stop-opacity="1" stop-color="rgb(100%, 71.688843%, 92.350769%)" offset="0.828125"/><stop stop-opacity="1" stop-color="rgb(100%, 71.44928%, 92.582703%)" offset="0.835937"/><stop stop-opacity="1" stop-color="rgb(100%, 71.209717%, 92.816162%)" offset="0.84375"/><stop stop-opacity="1" stop-color="rgb(100%, 70.97168%, 93.048096%)" offset="0.851562"/><stop stop-opacity="1" stop-color="rgb(100%, 70.732117%, 93.281555%)" offset="0.859375"/><stop stop-opacity="1" stop-color="rgb(100%, 70.49408%, 93.513489%)" offset="0.867188"/><stop stop-opacity="1" stop-color="rgb(100%, 70.254517%, 93.746948%)" offset="0.875"/><stop stop-opacity="1" stop-color="rgb(100%, 70.014954%, 93.978882%)" offset="0.882812"/><stop stop-opacity="1" stop-color="rgb(100%, 69.776917%, 94.212341%)" offset="0.890625"/><stop stop-opacity="1" stop-color="rgb(100%, 69.537354%, 94.444275%)" offset="0.898438"/><stop stop-opacity="1" stop-color="rgb(100%, 69.299316%, 94.677734%)" offset="0.90625"/><stop stop-opacity="1" stop-color="rgb(100%, 69.059753%, 94.909668%)" offset="0.914063"/><stop stop-opacity="1" stop-color="rgb(100%, 68.82019%, 95.143127%)" offset="0.921875"/><stop stop-opacity="1" stop-color="rgb(100%, 68.582153%, 95.375061%)" offset="0.929688"/><stop stop-opacity="1" stop-color="rgb(100%, 68.34259%, 95.608521%)" offset="0.9375"/><stop stop-opacity="1" stop-color="rgb(100%, 68.104553%, 95.840454%)" offset="0.945312"/><stop stop-opacity="1" stop-color="rgb(100%, 67.86499%, 96.073914%)" offset="0.953125"/><stop stop-opacity="1" stop-color="rgb(100%, 67.625427%, 96.305847%)" offset="0.960938"/><stop stop-opacity="1" stop-color="rgb(100%, 67.38739%, 96.539307%)" offset="0.96875"/><stop stop-opacity="1" stop-color="rgb(100%, 67.147827%, 96.77124%)" offset="0.976562"/><stop stop-opacity="1" stop-color="rgb(100%, 66.908264%, 97.0047%)" offset="0.984375"/><stop stop-opacity="1" stop-color="rgb(100%, 66.670227%, 97.236633%)" offset="0.992188"/><stop stop-opacity="1" stop-color="rgb(100%, 66.430664%, 97.470093%)" offset="1"/></linearGradient></defs><g clip-path="url(#954e4acf24)"><g clip-path="url(#cd76a69ec3)"><path fill="url(#a406e7d9f5)" d="M 28.035156 81 L 28.035156 759.414062 L 1411.359375 759.414062 L 1411.359375 81 Z M 28.035156 81 " fill-rule="nonzero"/></g></g><g fill="#5e17eb" fill-opacity="1"><g transform="translate(162.280368, 244.066366)"><g><path d="M 29.902344 0.867188 C 45.214844 0.867188 56.335938 -10.328125 56.335938 -25.207031 C 56.335938 -40.15625 45.214844 -51.351562 29.902344 -51.351562 C 14.589844 -51.351562 3.394531 -40.15625 3.394531 -25.207031 C 3.394531 -10.328125 14.589844 0.867188 29.902344 0.867188 Z M 29.902344 -5.34375 C 18.417969 -5.34375 9.894531 -13.941406 9.894531 -25.207031 C 9.894531 -36.546875 18.417969 -45.140625 29.902344 -45.140625 C 41.386719 -45.140625 49.90625 -36.617188 49.90625 -25.207031 C 49.90625 -13.867188 41.386719 -5.34375 29.902344 -5.34375 Z M 29.902344 -5.34375 "/></g></g></g><g fill="#5e17eb" fill-opacity="1"><g transform="translate(222.151091, 244.066366)"><g><path d="M 26.867188 -39.796875 C 20.585938 -39.796875 15.238281 -37.269531 11.628906 -33.007812 L 10.402344 -39 L 6.140625 -39 L 6.140625 13.941406 L 12.277344 13.941406 L 12.277344 -5.199219 C 15.890625 -1.371094 21.019531 0.867188 26.867188 0.867188 C 38.496094 0.867188 46.875 -7.871094 46.875 -19.5 C 46.875 -31.128906 38.496094 -39.796875 26.867188 -39.796875 Z M 26.433594 -5.054688 C 18.128906 -5.054688 12.0625 -11.265625 12.0625 -19.5 C 12.0625 -27.664062 18.128906 -33.875 26.433594 -33.875 C 34.667969 -33.875 40.734375 -27.734375 40.734375 -19.5 C 40.734375 -11.195312 34.667969 -5.054688 26.433594 -5.054688 Z M 26.433594 -5.054688 "/></g></g></g><g fill="#5e17eb" fill-opacity="1"><g transform="translate(272.199846, 244.066366)"><g><path d="M 42.613281 -19.285156 C 42.613281 -30.695312 34.8125 -39.796875 22.96875 -39.796875 C 11.628906 -39.796875 3.105469 -31.058594 3.105469 -19.5 C 3.105469 -7.871094 11.628906 0.867188 22.96875 0.867188 C 31.417969 0.867188 38.28125 -3.828125 41.601562 -11.84375 L 35.101562 -11.84375 C 32.71875 -7.65625 28.382812 -5.128906 22.96875 -5.128906 C 15.601562 -5.128906 10.183594 -9.894531 9.246094 -17.117188 L 42.46875 -17.117188 C 42.539062 -17.839844 42.613281 -18.5625 42.613281 -19.285156 Z M 22.96875 -34.019531 C 29.902344 -34.019531 35.175781 -29.683594 36.472656 -22.75 L 9.390625 -22.75 C 10.617188 -29.539062 15.890625 -34.019531 22.96875 -34.019531 Z M 22.96875 -34.019531 "/></g></g></g><g fill="#5e17eb" fill-opacity="1"><g transform="translate(317.843168, 244.066366)"><g><path d="M 23.980469 -39.144531 C 18.34375 -39.144531 14.300781 -37.050781 11.484375 -33.007812 L 10.546875 -39 L 6.140625 -39 L 6.140625 0 L 12.277344 0 L 12.277344 -21.164062 C 12.277344 -28.746094 16.324219 -33.367188 23.472656 -33.367188 L 27.445312 -33.367188 L 27.445312 -39.144531 Z M 23.980469 -39.144531 "/></g></g></g><g fill="#5e17eb" fill-opacity="1"><g transform="translate(345.720261, 244.066366)"><g><path d="M 39.433594 -39 L 38.640625 -33.007812 C 35.03125 -37.269531 29.613281 -39.796875 23.257812 -39.796875 C 11.699219 -39.796875 3.035156 -31.128906 3.035156 -19.429688 C 3.035156 -7.871094 11.699219 0.867188 23.257812 0.867188 C 29.613281 0.867188 34.957031 -1.660156 38.570312 -5.851562 L 39.21875 0 L 44.273438 0 L 44.273438 -39 Z M 23.691406 -5.054688 C 15.457031 -5.054688 9.316406 -11.265625 9.316406 -19.5 C 9.316406 -27.664062 15.457031 -33.875 23.691406 -33.875 C 31.996094 -33.875 37.992188 -27.734375 37.992188 -19.5 C 37.992188 -11.195312 31.996094 -5.054688 23.691406 -5.054688 Z M 23.691406 -5.054688 "/></g></g></g><g fill="#5e17eb" fill-opacity="1"><g transform="translate(396.202319, 244.066366)"><g><path d="M 22.316406 -5.632812 C 16.972656 -5.632812 14.085938 -8.523438 14.085938 -13.796875 L 14.085938 -33.441406 L 26.363281 -33.441406 L 26.363281 -39 L 14.085938 -39 L 14.085938 -47.234375 L 13.144531 -47.234375 L 1.082031 -34.523438 L 1.082031 -33.441406 L 7.945312 -33.441406 L 7.945312 -13.578125 C 7.945312 -5.128906 13.144531 0 21.523438 0 L 26.578125 0 L 26.578125 -5.632812 Z M 22.316406 -5.632812 "/></g></g></g><g fill="#5e17eb" fill-opacity="1"><g transform="translate(424.801614, 244.066366)"><g><path d="M 5.921875 -45.71875 L 12.566406 -45.71875 L 12.566406 -52.726562 L 5.921875 -52.726562 Z M 6.140625 0 L 12.277344 0 L 12.277344 -39 L 6.140625 -39 Z M 6.140625 0 "/></g></g></g><g fill="#5e17eb" fill-opacity="1"><g transform="translate(443.290043, 244.066366)"><g><path d="M 23.761719 0.867188 C 35.535156 0.867188 44.417969 -7.800781 44.417969 -19.5 C 44.417969 -31.128906 35.535156 -39.796875 23.761719 -39.796875 C 11.917969 -39.796875 3.035156 -31.203125 3.035156 -19.5 C 3.035156 -7.800781 11.917969 0.867188 23.761719 0.867188 Z M 23.761719 -5.054688 C 15.382812 -5.054688 9.316406 -11.121094 9.316406 -19.5 C 9.316406 -27.808594 15.382812 -33.875 23.761719 -33.875 C 32.066406 -33.875 38.136719 -27.808594 38.136719 -19.429688 C 38.136719 -11.121094 32.066406 -5.054688 23.761719 -5.054688 Z M 23.761719 -5.054688 "/></g></g></g><g fill="#5e17eb" fill-opacity="1"><g transform="translate(490.883295, 244.066366)"><g><path d="M 25.640625 -39.796875 C 19.644531 -39.796875 14.660156 -37.195312 11.699219 -32.863281 L 10.546875 -39 L 6.140625 -39 L 6.140625 0 L 12.277344 0 L 12.277344 -21.234375 C 12.277344 -28.527344 17.40625 -34.234375 24.125 -34.234375 C 30.839844 -34.234375 34.597656 -29.757812 34.597656 -21.882812 L 34.597656 0 L 40.734375 0 L 40.734375 -23.328125 C 40.734375 -32.863281 34.957031 -39.796875 25.640625 -39.796875 Z M 25.640625 -39.796875 "/></g></g></g><g fill="#5e17eb" fill-opacity="1"><g transform="translate(537.248818, 244.066366)"><g><path d="M 39.433594 -39 L 38.640625 -33.007812 C 35.03125 -37.269531 29.613281 -39.796875 23.257812 -39.796875 C 11.699219 -39.796875 3.035156 -31.128906 3.035156 -19.429688 C 3.035156 -7.871094 11.699219 0.867188 23.257812 0.867188 C 29.613281 0.867188 34.957031 -1.660156 38.570312 -5.851562 L 39.21875 0 L 44.273438 0 L 44.273438 -39 Z M 23.691406 -5.054688 C 15.457031 -5.054688 9.316406 -11.265625 9.316406 -19.5 C 9.316406 -27.664062 15.457031 -33.875 23.691406 -33.875 C 31.996094 -33.875 37.992188 -27.734375 37.992188 -19.5 C 37.992188 -11.195312 31.996094 -5.054688 23.691406 -5.054688 Z M 23.691406 -5.054688 "/></g></g></g><g fill="#5e17eb" fill-opacity="1"><g transform="translate(587.730876, 244.066366)"><g><path d="M 6.140625 0 L 12.277344 0 L 12.277344 -52.871094 L 6.140625 -52.871094 Z M 6.140625 0 "/></g></g></g><g fill="#5e17eb" fill-opacity="1"><g transform="translate(606.219306, 244.066366)"><g/></g></g><g fill="#5e17eb" fill-opacity="1"><g transform="translate(625.141039, 244.066366)"><g><path d="M 65.871094 0 L 57.492188 -50.558594 L 51.207031 -50.558594 L 34.453125 -13.433594 L 17.765625 -50.558594 L 11.628906 -50.558594 L 3.105469 0 L 9.605469 0 L 16.25 -39.433594 L 33.65625 -1.226562 L 35.390625 -1.226562 L 52.796875 -39.433594 L 59.371094 0 Z M 65.871094 0 "/></g></g></g><g fill="#5e17eb" fill-opacity="1"><g transform="translate(694.255975, 244.066366)"><g><path d="M 23.761719 0.867188 C 35.535156 0.867188 44.417969 -7.800781 44.417969 -19.5 C 44.417969 -31.128906 35.535156 -39.796875 23.761719 -39.796875 C 11.917969 -39.796875 3.035156 -31.203125 3.035156 -19.5 C 3.035156 -7.800781 11.917969 0.867188 23.761719 0.867188 Z M 23.761719 -5.054688 C 15.382812 -5.054688 9.316406 -11.121094 9.316406 -19.5 C 9.316406 -27.808594 15.382812 -33.875 23.761719 -33.875 C 32.066406 -33.875 38.136719 -27.808594 38.136719 -19.429688 C 38.136719 -11.121094 32.066406 -5.054688 23.761719 -5.054688 Z M 23.761719 -5.054688 "/></g></g></g><g fill="#5e17eb" fill-opacity="1"><g transform="translate(741.849228, 244.066366)"><g><path d="M 25.640625 -39.796875 C 19.644531 -39.796875 14.660156 -37.195312 11.699219 -32.863281 L 10.546875 -39 L 6.140625 -39 L 6.140625 0 L 12.277344 0 L 12.277344 -21.234375 C 12.277344 -28.527344 17.40625 -34.234375 24.125 -34.234375 C 30.839844 -34.234375 34.597656 -29.757812 34.597656 -21.882812 L 34.597656 0 L 40.734375 0 L 40.734375 -23.328125 C 40.734375 -32.863281 34.957031 -39.796875 25.640625 -39.796875 Z M 25.640625 -39.796875 "/></g></g></g><g fill="#5e17eb" fill-opacity="1"><g transform="translate(788.21475, 244.066366)"><g><path d="M 22.316406 -5.632812 C 16.972656 -5.632812 14.085938 -8.523438 14.085938 -13.796875 L 14.085938 -33.441406 L 26.363281 -33.441406 L 26.363281 -39 L 14.085938 -39 L 14.085938 -47.234375 L 13.144531 -47.234375 L 1.082031 -34.523438 L 1.082031 -33.441406 L 7.945312 -33.441406 L 7.945312 -13.578125 C 7.945312 -5.128906 13.144531 0 21.523438 0 L 26.578125 0 L 26.578125 -5.632812 Z M 22.316406 -5.632812 "/></g></g></g><g fill="#5e17eb" fill-opacity="1"><g transform="translate(816.814045, 244.066366)"><g><path d="M 25.640625 -39.796875 C 20.007812 -39.796875 15.3125 -37.484375 12.277344 -33.65625 L 12.277344 -52.871094 L 6.140625 -52.871094 L 6.140625 0 L 12.277344 0 L 12.277344 -21.234375 C 12.277344 -28.527344 17.40625 -34.234375 24.125 -34.234375 C 30.839844 -34.234375 34.597656 -29.757812 34.597656 -21.882812 L 34.597656 0 L 40.734375 0 L 40.734375 -23.328125 C 40.734375 -33.441406 34.957031 -39.796875 25.640625 -39.796875 Z M 25.640625 -39.796875 "/></g></g></g><g fill="#5e17eb" fill-opacity="1"><g transform="translate(863.179568, 244.066366)"><g><path d="M 6.140625 0 L 12.277344 0 L 12.277344 -52.871094 L 6.140625 -52.871094 Z M 6.140625 0 "/></g></g></g><g fill="#5e17eb" fill-opacity="1"><g transform="translate(881.667998, 244.066366)"><g><path d="M 34.667969 -39 L 21.59375 -9.460938 L 7.726562 -39 L 1.082031 -39 L 18.417969 -2.601562 L 17.046875 0.289062 C 13.867188 6.789062 12.0625 8.378906 6.789062 8.378906 L 3.683594 8.378906 L 3.683594 13.941406 L 7.367188 13.941406 C 14.734375 13.941406 18.417969 10.90625 22.605469 1.660156 L 41.242188 -39 Z M 34.667969 -39 "/></g></g></g><g fill="#5e17eb" fill-opacity="1"><g transform="translate(923.989165, 244.066366)"><g/></g></g><g fill="#5e17eb" fill-opacity="1"><g transform="translate(942.910855, 244.066366)"><g><path d="M 21.957031 0.648438 C 31.996094 0.648438 39.796875 -4.765625 39.796875 -14.300781 C 39.796875 -24.84375 30.839844 -26.941406 22.894531 -28.890625 C 16.394531 -30.40625 10.546875 -31.851562 10.546875 -37.339844 C 10.546875 -42.179688 15.167969 -45.070312 21.304688 -45.070312 C 27.445312 -45.070312 32.066406 -41.820312 32.066406 -36.183594 L 38.351562 -36.183594 C 38.351562 -45.359375 31.921875 -51.136719 21.449219 -51.136719 C 10.976562 -51.136719 4.261719 -45.863281 4.261719 -37.125 C 4.261719 -27.011719 12.855469 -24.917969 20.65625 -23.113281 C 27.230469 -21.523438 33.222656 -20.152344 33.222656 -14.226562 C 33.222656 -8.882812 28.242188 -5.5625 21.882812 -5.5625 C 14.878906 -5.5625 9.75 -9.246094 9.75 -15.527344 L 3.25 -15.527344 C 3.25 -5.5625 10.832031 0.648438 21.957031 0.648438 Z M 21.957031 0.648438 "/></g></g></g><g fill="#5e17eb" fill-opacity="1"><g transform="translate(986.026449, 244.066366)"><g><path d="M 39.433594 -39 L 38.640625 -33.007812 C 35.03125 -37.269531 29.613281 -39.796875 23.257812 -39.796875 C 11.699219 -39.796875 3.035156 -31.128906 3.035156 -19.429688 C 3.035156 -7.871094 11.699219 0.867188 23.257812 0.867188 C 29.613281 0.867188 34.957031 -1.660156 38.570312 -5.851562 L 39.21875 0 L 44.273438 0 L 44.273438 -39 Z M 23.691406 -5.054688 C 15.457031 -5.054688 9.316406 -11.265625 9.316406 -19.5 C 9.316406 -27.664062 15.457031 -33.875 23.691406 -33.875 C 31.996094 -33.875 37.992188 -27.734375 37.992188 -19.5 C 37.992188 -11.195312 31.996094 -5.054688 23.691406 -5.054688 Z M 23.691406 -5.054688 "/></g></g></g><g fill="#5e17eb" fill-opacity="1"><g transform="translate(1036.508507, 244.066366)"><g><path d="M 33.65625 -39 L 20.730469 -7.945312 L 7.4375 -39 L 1.082031 -39 L 17.910156 0 L 23.546875 0 L 39.941406 -39 Z M 33.65625 -39 "/></g></g></g><g fill="#5e17eb" fill-opacity="1"><g transform="translate(1077.818575, 244.066366)"><g><path d="M 5.921875 -45.71875 L 12.566406 -45.71875 L 12.566406 -52.726562 L 5.921875 -52.726562 Z M 6.140625 0 L 12.277344 0 L 12.277344 -39 L 6.140625 -39 Z M 6.140625 0 "/></g></g></g><g fill="#5e17eb" fill-opacity="1"><g transform="translate(1096.307004, 244.066366)"><g><path d="M 25.640625 -39.796875 C 19.644531 -39.796875 14.660156 -37.195312 11.699219 -32.863281 L 10.546875 -39 L 6.140625 -39 L 6.140625 0 L 12.277344 0 L 12.277344 -21.234375 C 12.277344 -28.527344 17.40625 -34.234375 24.125 -34.234375 C 30.839844 -34.234375 34.597656 -29.757812 34.597656 -21.882812 L 34.597656 0 L 40.734375 0 L 40.734375 -23.328125 C 40.734375 -32.863281 34.957031 -39.796875 25.640625 -39.796875 Z M 25.640625 -39.796875 "/></g></g></g><g fill="#5e17eb" fill-opacity="1"><g transform="translate(1142.672527, 244.066366)"><g><path d="M 38.351562 -39 L 37.414062 -32.933594 C 33.875 -37.195312 28.527344 -39.796875 22.246094 -39.796875 C 11.410156 -39.796875 3.105469 -31.347656 3.105469 -20.511719 C 3.105469 -9.605469 11.410156 -1.226562 22.246094 -1.226562 C 28.023438 -1.226562 33.007812 -3.394531 36.472656 -7.007812 L 36.472656 -4.621094 C 36.472656 4.042969 31.128906 9.171875 23.328125 9.171875 C 17.695312 9.171875 12.785156 6.429688 11.050781 1.589844 L 4.910156 1.589844 C 7.007812 9.824219 13.796875 14.804688 23.328125 14.804688 C 35.246094 14.804688 42.46875 7.148438 42.46875 -5.417969 L 42.46875 -38.929688 Z M 22.894531 -7.078125 C 15.09375 -7.078125 9.316406 -12.855469 9.316406 -20.511719 C 9.316406 -28.167969 15.09375 -33.945312 22.894531 -33.945312 C 30.695312 -33.945312 36.402344 -28.242188 36.402344 -20.511719 C 36.402344 -12.785156 30.769531 -7.078125 22.894531 -7.078125 Z M 22.894531 -7.078125 "/></g></g></g><g fill="#5e17eb" fill-opacity="1"><g transform="translate(1191.34906, 244.066366)"><g><path d="M 18.488281 0.867188 C 27.734375 0.867188 33.945312 -3.828125 33.945312 -11.121094 C 33.945312 -20.65625 26 -21.957031 19.285156 -23.039062 C 14.085938 -23.835938 9.605469 -24.628906 9.605469 -28.746094 C 9.605469 -32.140625 12.929688 -34.308594 18.199219 -34.308594 C 23.691406 -34.308594 27.011719 -31.996094 27.230469 -27.734375 L 33.007812 -27.734375 C 32.789062 -35.101562 27.15625 -39.796875 18.34375 -39.796875 C 9.535156 -39.796875 3.609375 -35.246094 3.609375 -28.527344 C 3.609375 -19.71875 11.121094 -18.34375 17.765625 -17.191406 C 23.039062 -16.324219 27.878906 -15.457031 27.878906 -10.832031 C 27.878906 -7.078125 24.050781 -4.765625 18.707031 -4.765625 C 13.21875 -4.765625 9.246094 -7.292969 8.957031 -11.917969 L 2.890625 -11.917969 C 3.25 -4.042969 9.246094 0.867188 18.488281 0.867188 Z M 18.488281 0.867188 "/></g></g></g><g fill="#000000" fill-opacity="1"><g transform="translate(162.324921, 612.680368)"><g><path d="M 211.949219 -71.402344 C 211.949219 -127.296875 163.160156 -138.28125 122.128906 -147.328125 L 121.804688 -147.328125 L 121.804688 -209.363281 C 139.574219 -205.164062 153.144531 -193.53125 157.992188 -173.175781 L 205.484375 -173.175781 C 198.699219 -220.671875 163.160156 -245.550781 121.804688 -250.074219 L 121.804688 -278.828125 L 108.234375 -278.828125 L 108.234375 -251.042969 L 106.621094 -251.042969 C 56.863281 -251.042969 19.386719 -226.164062 19.386719 -178.667969 C 19.386719 -126.652344 65.265625 -116.636719 105.652344 -107.589844 L 108.234375 -106.941406 L 108.234375 -35.863281 C 86.589844 -38.769531 66.234375 -50.402344 59.449219 -80.125 L 11.308594 -80.125 C 16.800781 -21.648438 63.972656 0.96875 108.234375 4.199219 L 108.234375 32.308594 L 121.804688 32.308594 L 121.804688 4.523438 C 178.667969 3.878906 211.949219 -25.523438 211.949219 -71.402344 Z M 65.585938 -182.546875 C 65.585938 -201.285156 82.386719 -211.300781 105.652344 -211.300781 L 108.234375 -211.300781 L 108.234375 -150.558594 C 84.328125 -156.375 65.585938 -163.484375 65.585938 -182.546875 Z M 121.804688 -104.035156 C 146.035156 -97.898438 165.097656 -90.140625 165.097656 -69.140625 C 165.097656 -46.203125 146.683594 -35.539062 121.804688 -35.21875 Z M 121.804688 -104.035156 "/></g></g></g><g fill="#000000" fill-opacity="1"><g transform="translate(387.17034, 612.680368)"><g><path d="M 194.175781 0 L 194.175781 -41.679688 L 86.589844 -41.679688 L 124.714844 -75.925781 C 150.558594 -99.1875 183.191406 -134.40625 183.191406 -177.375 C 183.191406 -222.933594 149.914062 -250.71875 103.390625 -250.71875 C 49.109375 -250.71875 18.09375 -218.410156 16.15625 -159.929688 L 59.125 -159.929688 C 61.0625 -195.148438 76.25 -210.976562 103.066406 -210.976562 C 128.914062 -210.976562 140.222656 -195.46875 140.222656 -173.175781 C 140.222656 -150.238281 124.714844 -128.914062 95.3125 -103.066406 L 17.769531 -35.21875 L 17.769531 0 Z M 194.175781 0 "/></g></g></g><g fill="#000000" fill-opacity="1"><g transform="translate(596.509157, 612.680368)"><g><path d="M 105.328125 4.523438 C 158.960938 4.523438 194.824219 -31.984375 194.824219 -84.972656 C 194.824219 -135.050781 162.835938 -169.621094 116.3125 -169.621094 C 99.1875 -169.621094 82.066406 -162.515625 70.433594 -151.851562 L 80.449219 -204.839844 L 183.515625 -204.839844 L 183.515625 -246.519531 L 46.523438 -246.519531 L 20.355469 -105.003906 L 65.585938 -105.003906 C 74.3125 -121.804688 87.878906 -130.527344 106.296875 -130.527344 C 131.175781 -130.527344 148.296875 -111.789062 148.296875 -84.648438 C 148.296875 -56.539062 132.46875 -37.15625 106.621094 -37.15625 C 84.003906 -37.15625 68.496094 -49.109375 63.648438 -72.050781 L 16.800781 -72.050781 C 21.96875 -25.847656 56.863281 4.523438 105.328125 4.523438 Z M 105.328125 4.523438 "/></g></g></g><g fill="#000000" fill-opacity="1"><g transform="translate(808.432435, 612.680368)"><g><path d="M 103.066406 -250.71875 C 53.308594 -250.71875 18.09375 -215.179688 18.09375 -163.808594 C 18.09375 -114.050781 50.726562 -83.035156 97.25 -83.035156 C 115.34375 -83.035156 136.667969 -87.878906 152.820312 -109.851562 C 152.820312 -64.296875 138.929688 -35.21875 101.773438 -35.21875 C 79.480469 -35.21875 64.941406 -46.523438 59.773438 -68.496094 L 18.09375 -68.496094 C 23.910156 -23.585938 53.632812 4.847656 101.773438 4.847656 C 163.160156 4.847656 196.117188 -45.878906 196.117188 -129.558594 C 196.117188 -206.777344 163.160156 -250.71875 103.066406 -250.71875 Z M 103.710938 -210.976562 C 129.882812 -210.976562 146.683594 -191.59375 146.683594 -164.453125 C 146.683594 -137.960938 129.882812 -119.542969 103.710938 -119.542969 C 78.835938 -119.542969 64.617188 -137.636719 64.617188 -164.453125 C 64.617188 -190.945312 78.511719 -210.976562 103.710938 -210.976562 Z M 103.710938 -210.976562 "/></g></g></g><g fill="#000000" fill-opacity="1"><g transform="translate(1022.294028, 612.680368)"><g><path d="M 108.882812 4.523438 C 164.128906 4.523438 198.054688 -32.308594 198.054688 -122.453125 C 198.054688 -213.886719 163.484375 -251.042969 107.589844 -251.042969 C 52.664062 -251.042969 18.417969 -214.210938 18.417969 -124.066406 C 18.417969 -32.308594 53.308594 4.523438 108.882812 4.523438 Z M 107.914062 -37.15625 C 81.742188 -37.15625 64.941406 -56.539062 64.941406 -123.421875 C 64.941406 -189.332031 81.097656 -209.039062 107.265625 -209.039062 C 133.113281 -209.039062 151.53125 -189.65625 151.53125 -123.097656 C 151.53125 -56.539062 133.757812 -37.15625 107.914062 -37.15625 Z M 107.914062 -37.15625 "/></g></g></g></svg>