<svg xmlns="http://www.w3.org/2000/svg" xmlns:xlink="http://www.w3.org/1999/xlink" width="1920" zoomAndPan="magnify" viewBox="0 0 1440 809.999993" height="1080" preserveAspectRatio="xMidYMid meet" version="1.0"><defs><clipPath id="3dde8d9820"><path d="M 1116 145 L 1136.28125 145 L 1136.28125 206 L 1116 206 Z M 1116 145 " clip-rule="nonzero"/></clipPath><clipPath id="a914cda85e"><path d="M 688 60 L 1105 60 L 1105 799.554688 L 688 799.554688 Z M 688 60 " clip-rule="nonzero"/></clipPath><clipPath id="d53efc4387"><path d="M 348.03125 768 L 517 768 L 517 799.554688 L 348.03125 799.554688 Z M 348.03125 768 " clip-rule="nonzero"/></clipPath><clipPath id="6d032e9790"><path d="M 526 768 L 695 768 L 695 799.554688 L 526 799.554688 Z M 526 768 " clip-rule="nonzero"/></clipPath><clipPath id="d98f53366d"><path d="M 348.03125 374 L 520 374 L 520 712 L 348.03125 712 Z M 348.03125 374 " clip-rule="nonzero"/></clipPath><clipPath id="1a07e6a33e"><path d="M 348.03125 121 L 488 121 L 488 351 L 348.03125 351 Z M 348.03125 121 " clip-rule="nonzero"/></clipPath></defs><path fill="#8c7bff" d="M 1080.640625 61.386719 L 1046.039062 61.386719 L 1046.039062 798.605469 L 1080.640625 798.605469 C 1107.238281 798.605469 1128.796875 777.027344 1128.796875 750.410156 L 1128.796875 109.585938 C 1128.796875 82.964844 1107.238281 61.386719 1080.640625 61.386719 " fill-opacity="1" fill-rule="nonzero"/><g clip-path="url(#3dde8d9820)"><path fill="#000000" d="M 1116.6875 145.273438 L 1136.195312 145.273438 L 1136.195312 205.816406 L 1116.6875 205.816406 L 1116.6875 145.273438 " fill-opacity="1" fill-rule="nonzero"/></g><path fill="#ffffff" d="M 1113.371094 145.273438 L 1124.75 145.273438 L 1124.75 205.816406 L 1113.371094 205.816406 L 1113.371094 145.273438 " fill-opacity="1" fill-rule="nonzero"/><path fill="#000000" d="M 1114.324219 204.867188 L 1123.800781 204.867188 L 1123.800781 146.21875 L 1114.324219 146.21875 Z M 1124.75 206.769531 L 1113.371094 206.769531 C 1112.851562 206.769531 1112.425781 206.34375 1112.425781 205.816406 L 1112.425781 145.273438 C 1112.425781 144.746094 1112.851562 144.320312 1113.371094 144.320312 L 1124.75 144.320312 C 1125.277344 144.320312 1125.703125 144.746094 1125.703125 145.273438 L 1125.703125 205.816406 C 1125.703125 206.34375 1125.277344 206.769531 1124.75 206.769531 " fill-opacity="1" fill-rule="nonzero"/><path fill="#ffffff" d="M 737.753906 61.386719 L 1055.425781 61.386719 C 1082.023438 61.386719 1103.582031 82.964844 1103.582031 109.585938 L 1103.582031 750.410156 C 1103.582031 777.027344 1082.023438 798.605469 1055.425781 798.605469 L 737.753906 798.605469 C 711.15625 798.605469 689.597656 777.027344 689.597656 750.410156 L 689.597656 109.585938 C 689.597656 82.964844 711.15625 61.386719 737.753906 61.386719 " fill-opacity="1" fill-rule="nonzero"/><g clip-path="url(#a914cda85e)"><path fill="#000000" d="M 735.085938 62.335938 C 710.527344 62.335938 690.546875 82.308594 690.546875 106.859375 L 690.546875 753.128906 C 690.546875 777.683594 710.527344 797.65625 735.085938 797.65625 L 1058.089844 797.65625 C 1082.648438 797.65625 1102.628906 777.683594 1102.628906 753.128906 L 1102.628906 106.859375 C 1102.628906 82.308594 1082.648438 62.335938 1058.089844 62.335938 Z M 1058.089844 799.554688 L 735.085938 799.554688 C 709.476562 799.554688 688.648438 778.726562 688.648438 753.128906 L 688.648438 106.859375 C 688.648438 81.261719 709.476562 60.433594 735.085938 60.433594 L 1058.089844 60.433594 C 1083.699219 60.433594 1104.53125 81.261719 1104.53125 106.859375 L 1104.53125 753.128906 C 1104.53125 778.726562 1083.699219 799.554688 1058.089844 799.554688 " fill-opacity="1" fill-rule="nonzero"/></g><path fill="#000000" d="M 926.550781 81.332031 L 845.28125 81.332031 C 844.761719 81.332031 844.332031 80.90625 844.332031 80.382812 C 844.332031 79.859375 844.761719 79.429688 845.28125 79.429688 L 926.550781 79.429688 C 927.078125 79.429688 927.5 79.859375 927.5 80.382812 C 927.5 80.90625 927.078125 81.332031 926.550781 81.332031 " fill-opacity="1" fill-rule="nonzero"/><path fill="#000000" d="M 940.925781 75.347656 C 938.152344 75.347656 935.898438 77.605469 935.898438 80.382812 C 935.898438 83.15625 938.152344 85.417969 940.925781 85.417969 C 943.699219 85.417969 945.949219 83.15625 945.949219 80.382812 C 945.949219 77.605469 943.699219 75.347656 940.925781 75.347656 Z M 940.925781 87.316406 C 937.105469 87.316406 933.996094 84.207031 933.996094 80.382812 C 933.996094 76.558594 937.105469 73.445312 940.925781 73.445312 C 944.742188 73.445312 947.855469 76.558594 947.855469 80.382812 C 947.855469 84.207031 944.742188 87.316406 940.925781 87.316406 " fill-opacity="1" fill-rule="nonzero"/><path fill="#000000" d="M 753.3125 103.933594 C 731.582031 103.933594 713.90625 121.601562 713.90625 143.324219 L 713.90625 716.667969 C 713.90625 738.390625 731.582031 756.0625 753.3125 756.0625 L 1039.867188 756.0625 C 1061.597656 756.0625 1079.273438 738.390625 1079.273438 716.667969 L 1079.273438 143.324219 C 1079.273438 121.601562 1061.597656 103.933594 1039.867188 103.933594 Z M 1039.867188 757.960938 L 753.3125 757.960938 C 730.535156 757.960938 712.003906 739.4375 712.003906 716.667969 L 712.003906 143.324219 C 712.003906 120.550781 730.535156 102.027344 753.3125 102.027344 L 1039.867188 102.027344 C 1062.644531 102.027344 1081.175781 120.550781 1081.175781 143.324219 L 1081.175781 716.667969 C 1081.175781 739.4375 1062.644531 757.960938 1039.867188 757.960938 " fill-opacity="1" fill-rule="nonzero"/><path fill="#8c7bff" d="M 975.960938 202.351562 L 923.113281 202.351562 L 923.113281 101.359375 L 975.960938 101.359375 L 975.960938 202.351562 " fill-opacity="1" fill-rule="nonzero"/><path fill="#fda4ff" d="M 1028.808594 202.351562 L 975.960938 202.351562 L 975.960938 101.359375 L 1028.808594 101.359375 L 1028.808594 202.351562 " fill-opacity="1" fill-rule="nonzero"/><path fill="#8c7bff" d="M 1081.660156 202.351562 L 1028.808594 202.351562 L 1028.808594 101.359375 L 1081.660156 101.359375 L 1081.660156 202.351562 " fill-opacity="1" fill-rule="nonzero"/><path fill="#8c7bff" d="M 764.566406 202.351562 L 711.71875 202.351562 L 711.71875 101.359375 L 764.566406 101.359375 L 764.566406 202.351562 " fill-opacity="1" fill-rule="nonzero"/><path fill="#fda4ff" d="M 817.414062 202.351562 L 764.566406 202.351562 L 764.566406 101.359375 L 817.414062 101.359375 L 817.414062 202.351562 " fill-opacity="1" fill-rule="nonzero"/><path fill="#8c7bff" d="M 870.261719 202.351562 L 817.414062 202.351562 L 817.414062 101.359375 L 870.261719 101.359375 L 870.261719 202.351562 " fill-opacity="1" fill-rule="nonzero"/><path fill="#fda4ff" d="M 923.113281 202.351562 L 870.261719 202.351562 L 870.261719 101.359375 L 923.113281 101.359375 L 923.113281 202.351562 " fill-opacity="1" fill-rule="nonzero"/><path fill="#6155ff" d="M 975.960938 202.351562 C 975.960938 218.070312 964.132812 230.8125 949.535156 230.8125 C 934.9375 230.8125 923.105469 218.070312 923.105469 202.351562 L 975.960938 202.351562 " fill-opacity="1" fill-rule="nonzero"/><path fill="#ff7dce" d="M 1028.808594 202.351562 C 1028.808594 218.070312 1016.980469 230.8125 1002.382812 230.8125 C 987.785156 230.8125 975.953125 218.070312 975.953125 202.351562 L 1028.808594 202.351562 " fill-opacity="1" fill-rule="nonzero"/><path fill="#6155ff" d="M 1081.660156 202.351562 C 1081.660156 218.070312 1069.828125 230.8125 1055.230469 230.8125 C 1040.632812 230.8125 1028.800781 218.070312 1028.800781 202.351562 L 1081.660156 202.351562 " fill-opacity="1" fill-rule="nonzero"/><path fill="#6155ff" d="M 764.566406 202.351562 C 764.566406 218.070312 752.734375 230.8125 738.136719 230.8125 C 723.539062 230.8125 711.710938 218.070312 711.710938 202.351562 L 764.566406 202.351562 " fill-opacity="1" fill-rule="nonzero"/><path fill="#ff7dce" d="M 817.414062 202.351562 C 817.414062 218.070312 805.582031 230.8125 790.984375 230.8125 C 776.386719 230.8125 764.558594 218.070312 764.558594 202.351562 L 817.414062 202.351562 " fill-opacity="1" fill-rule="nonzero"/><path fill="#6155ff" d="M 870.261719 202.351562 C 870.261719 218.070312 858.429688 230.8125 843.832031 230.8125 C 829.242188 230.8125 817.40625 218.070312 817.40625 202.351562 L 870.261719 202.351562 " fill-opacity="1" fill-rule="nonzero"/><path fill="#ff7dce" d="M 923.113281 202.351562 C 923.113281 218.070312 911.277344 230.8125 896.6875 230.8125 C 882.089844 230.8125 870.257812 218.070312 870.257812 202.351562 L 923.113281 202.351562 " fill-opacity="1" fill-rule="nonzero"/><path fill="#000000" d="M 825.8125 460.464844 L 953.230469 460.464844 L 977.839844 384.546875 L 801.203125 384.546875 Z M 953.917969 462.371094 L 825.121094 462.371094 C 824.710938 462.371094 824.34375 462.101562 824.21875 461.710938 L 798.988281 383.886719 C 798.898438 383.597656 798.945312 383.285156 799.125 383.039062 C 799.300781 382.789062 799.589844 382.648438 799.890625 382.648438 L 979.152344 382.648438 C 979.453125 382.648438 979.738281 382.789062 979.917969 383.039062 C 980.097656 383.285156 980.144531 383.597656 980.054688 383.886719 L 954.824219 461.710938 C 954.699219 462.101562 954.332031 462.371094 953.917969 462.371094 " fill-opacity="1" fill-rule="nonzero"/><path fill="#000000" d="M 955.09375 460.464844 L 998.640625 460.464844 L 1023.253906 384.546875 L 979.707031 384.546875 Z M 999.332031 462.371094 L 953.785156 462.371094 C 953.484375 462.371094 953.195312 462.222656 953.019531 461.980469 C 952.839844 461.734375 952.785156 461.414062 952.878906 461.125 L 978.113281 383.304688 C 978.238281 382.910156 978.605469 382.648438 979.011719 382.648438 L 1024.558594 382.648438 C 1024.863281 382.648438 1025.148438 382.789062 1025.324219 383.039062 C 1025.507812 383.285156 1025.558594 383.597656 1025.464844 383.886719 L 1000.238281 461.710938 C 1000.109375 462.101562 999.742188 462.371094 999.332031 462.371094 " fill-opacity="1" fill-rule="nonzero"/><path fill="#000000" d="M 980.4375 535.816406 L 831.542969 535.816406 C 831.019531 535.816406 830.59375 535.394531 830.59375 534.867188 L 830.59375 477.554688 C 830.59375 477.027344 831.019531 476.605469 831.542969 476.605469 L 993.371094 476.605469 C 993.898438 476.605469 994.324219 477.027344 994.324219 477.554688 C 994.324219 478.078125 993.898438 478.503906 993.371094 478.503906 L 832.492188 478.503906 L 832.492188 533.917969 L 980.4375 533.917969 C 980.960938 533.917969 981.386719 534.34375 981.386719 534.867188 C 981.386719 535.394531 980.960938 535.816406 980.4375 535.816406 " fill-opacity="1" fill-rule="nonzero"/><path fill="#8c7bff" d="M 957.617188 541.03125 C 952.023438 541.03125 947.476562 545.585938 947.476562 551.1875 C 947.476562 556.785156 952.023438 561.339844 957.617188 561.339844 C 963.214844 561.339844 967.765625 556.785156 967.765625 551.1875 C 967.765625 545.585938 963.214844 541.03125 957.617188 541.03125 Z M 957.617188 563.242188 C 950.976562 563.242188 945.570312 557.835938 945.570312 551.1875 C 945.570312 544.539062 950.976562 539.128906 957.617188 539.128906 C 964.261719 539.128906 969.667969 544.539062 969.667969 551.1875 C 969.667969 557.835938 964.261719 563.242188 957.617188 563.242188 " fill-opacity="1" fill-rule="nonzero"/><path fill="#8c7bff" d="M 857.210938 541.03125 C 851.617188 541.03125 847.0625 545.585938 847.0625 551.1875 C 847.0625 556.785156 851.617188 561.339844 857.210938 561.339844 C 862.804688 561.339844 867.355469 556.785156 867.355469 551.1875 C 867.355469 545.585938 862.804688 541.03125 857.210938 541.03125 Z M 857.210938 563.242188 C 850.570312 563.242188 845.164062 557.835938 845.164062 551.1875 C 845.164062 544.539062 850.570312 539.128906 857.210938 539.128906 C 863.851562 539.128906 869.257812 544.539062 869.257812 551.1875 C 869.257812 557.835938 863.851562 563.242188 857.210938 563.242188 " fill-opacity="1" fill-rule="nonzero"/><path fill="#000000" d="M 966.25 423.917969 L 812.652344 423.917969 C 812.132812 423.917969 811.707031 423.492188 811.707031 422.96875 C 811.707031 422.441406 812.132812 422.015625 812.652344 422.015625 L 966.25 422.015625 C 966.777344 422.015625 967.203125 422.441406 967.203125 422.96875 C 967.203125 423.492188 966.777344 423.917969 966.25 423.917969 " fill-opacity="1" fill-rule="nonzero"/><path fill="#000000" d="M 922.613281 462.371094 C 922.5625 462.371094 922.515625 462.367188 922.464844 462.355469 C 921.945312 462.277344 921.59375 461.789062 921.675781 461.269531 L 934.003906 383.449219 C 934.085938 382.929688 934.582031 382.578125 935.089844 382.65625 C 935.609375 382.738281 935.964844 383.226562 935.882812 383.746094 L 923.550781 461.566406 C 923.476562 462.035156 923.070312 462.371094 922.613281 462.371094 " fill-opacity="1" fill-rule="nonzero"/><path fill="#000000" d="M 891.210938 462.371094 C 890.6875 462.371094 890.257812 461.945312 890.257812 461.417969 L 890.257812 383.597656 C 890.257812 383.070312 890.6875 382.648438 891.210938 382.648438 C 891.738281 382.648438 892.164062 383.070312 892.164062 383.597656 L 892.164062 461.417969 C 892.164062 461.945312 891.738281 462.371094 891.210938 462.371094 " fill-opacity="1" fill-rule="nonzero"/><path fill="#000000" d="M 856.605469 462.371094 C 856.117188 462.371094 855.703125 461.996094 855.65625 461.503906 L 848.605469 383.683594 C 848.558594 383.160156 848.941406 382.699219 849.46875 382.652344 C 849.996094 382.609375 850.453125 382.988281 850.5 383.511719 L 857.550781 461.332031 C 857.597656 461.855469 857.210938 462.320312 856.691406 462.367188 C 856.660156 462.367188 856.628906 462.371094 856.605469 462.371094 " fill-opacity="1" fill-rule="nonzero"/><path fill="#ffffff" d="M 867.484375 306.632812 C 868.148438 308.976562 866.722656 310.878906 864.304688 310.878906 C 861.890625 310.878906 859.390625 308.976562 858.726562 306.632812 C 858.070312 304.285156 859.492188 302.382812 861.90625 302.382812 C 864.324219 302.382812 866.820312 304.285156 867.484375 306.632812 " fill-opacity="1" fill-rule="nonzero"/><path fill="#8c7bff" d="M 861.90625 303.335938 C 861.046875 303.335938 860.347656 303.636719 859.929688 304.1875 C 859.507812 304.746094 859.40625 305.527344 859.644531 306.375 C 860.1875 308.300781 862.324219 309.925781 864.304688 309.925781 C 865.160156 309.925781 865.863281 309.625 866.28125 309.074219 C 866.703125 308.515625 866.808594 307.734375 866.570312 306.886719 C 866.023438 304.960938 863.886719 303.335938 861.90625 303.335938 Z M 864.304688 311.828125 C 861.449219 311.828125 858.597656 309.660156 857.816406 306.890625 C 857.410156 305.453125 857.625 304.085938 858.417969 303.042969 C 859.199219 302.003906 860.441406 301.433594 861.90625 301.433594 C 864.765625 301.433594 867.617188 303.601562 868.398438 306.375 C 868.800781 307.808594 868.589844 309.175781 867.796875 310.21875 C 867.007812 311.257812 865.773438 311.828125 864.304688 311.828125 " fill-opacity="1" fill-rule="nonzero"/><path fill="#ffffff" d="M 864.230469 311.015625 L 796.347656 310.878906 L 792.910156 302.382812 L 861.101562 302.425781 L 864.230469 311.015625 " fill-opacity="1" fill-rule="nonzero"/><path fill="#8c7bff" d="M 864.859375 311.828125 L 796.347656 311.828125 C 795.960938 311.828125 795.609375 311.59375 795.46875 311.234375 L 792.03125 302.742188 C 791.910156 302.449219 791.949219 302.117188 792.125 301.855469 C 792.300781 301.589844 792.59375 301.433594 792.910156 301.433594 L 861.429688 301.433594 C 861.949219 301.433594 862.375 301.859375 862.375 302.382812 C 862.375 302.910156 861.949219 303.335938 861.429688 303.335938 L 794.324219 303.335938 L 796.988281 309.925781 L 864.859375 309.925781 C 865.386719 309.925781 865.8125 310.351562 865.8125 310.878906 C 865.8125 311.40625 865.386719 311.828125 864.859375 311.828125 " fill-opacity="1" fill-rule="nonzero"/><path fill="#ffffff" d="M 799.574219 306.625 C 800.238281 309.113281 798.816406 311.132812 796.398438 311.132812 C 793.976562 311.132812 791.484375 309.113281 790.820312 306.625 C 790.15625 304.136719 791.578125 302.117188 794 302.117188 C 796.417969 302.117188 798.910156 304.136719 799.574219 306.625 " fill-opacity="1" fill-rule="nonzero"/><path fill="#8c7bff" d="M 794 303.070312 C 793.183594 303.070312 792.5 303.371094 792.085938 303.917969 C 791.605469 304.539062 791.480469 305.414062 791.738281 306.378906 C 792.285156 308.441406 794.421875 310.179688 796.398438 310.179688 C 797.214844 310.179688 797.894531 309.878906 798.3125 309.332031 C 798.789062 308.714844 798.914062 307.835938 798.65625 306.871094 C 798.109375 304.808594 795.976562 303.070312 794 303.070312 Z M 796.398438 312.082031 C 793.535156 312.082031 790.679688 309.792969 789.902344 306.871094 C 789.496094 305.339844 789.742188 303.84375 790.578125 302.757812 C 791.363281 301.734375 792.578125 301.167969 794 301.167969 C 796.863281 301.167969 799.714844 303.460938 800.492188 306.378906 C 800.898438 307.90625 800.65625 309.40625 799.816406 310.492188 C 799.03125 311.515625 797.816406 312.082031 796.398438 312.082031 " fill-opacity="1" fill-rule="nonzero"/><path fill="#000000" d="M 903.441406 384.546875 L 799.890625 384.546875 C 799.484375 384.546875 799.121094 384.285156 798.992188 383.890625 L 773.761719 307.40625 C 773.667969 307.121094 773.714844 306.800781 773.894531 306.554688 C 774.074219 306.308594 774.359375 306.164062 774.664062 306.164062 L 794.828125 306.164062 C 795.347656 306.164062 795.773438 306.589844 795.773438 307.109375 C 795.773438 307.636719 795.347656 308.0625 794.828125 308.0625 L 775.980469 308.0625 L 800.582031 382.648438 L 902.117188 382.648438 L 877.0625 308.0625 L 869.484375 308.0625 C 868.960938 308.0625 868.535156 307.636719 868.535156 307.109375 C 868.535156 306.589844 868.960938 306.164062 869.484375 306.164062 L 877.75 306.164062 C 878.152344 306.164062 878.519531 306.421875 878.648438 306.808594 L 904.339844 383.292969 C 904.4375 383.582031 904.390625 383.902344 904.210938 384.152344 C 904.035156 384.398438 903.746094 384.546875 903.441406 384.546875 " fill-opacity="1" fill-rule="nonzero"/><path fill="#ff7dce" d="M 979.136719 682.5625 L 837.265625 682.5625 C 820.015625 682.5625 806.035156 668.585938 806.035156 651.34375 L 806.035156 646.875 C 806.035156 629.636719 820.015625 615.660156 837.265625 615.660156 L 979.136719 615.660156 C 996.386719 615.660156 1010.367188 629.636719 1010.367188 646.875 L 1010.367188 651.34375 C 1010.367188 668.585938 996.386719 682.5625 979.136719 682.5625 " fill-opacity="1" fill-rule="nonzero"/><path fill="#fda4ff" d="M 975.5625 676.414062 L 833.6875 676.414062 C 816.441406 676.414062 802.460938 662.4375 802.460938 645.195312 L 802.460938 640.726562 C 802.460938 623.484375 816.441406 609.507812 833.6875 609.507812 L 975.5625 609.507812 C 992.808594 609.507812 1006.789062 623.484375 1006.789062 640.726562 L 1006.789062 645.195312 C 1006.789062 662.4375 992.808594 676.414062 975.5625 676.414062 " fill-opacity="1" fill-rule="nonzero"/><path fill="#000000" d="M 883.160156 649.109375 C 883.160156 646.523438 881.226562 645.226562 877.359375 645.226562 L 869.292969 645.226562 L 869.292969 652.996094 L 877.359375 652.996094 C 881.226562 652.996094 883.160156 651.699219 883.160156 649.109375 Z M 869.292969 633.921875 L 869.292969 641.34375 L 876.359375 641.34375 C 878.101562 641.34375 879.441406 641.027344 880.375 640.398438 C 881.308594 639.777344 881.78125 638.859375 881.78125 637.652344 C 881.78125 636.421875 881.308594 635.496094 880.375 634.867188 C 879.441406 634.238281 878.101562 633.921875 876.359375 633.921875 Z M 886.886719 645.359375 C 887.757812 646.5 888.191406 647.917969 888.191406 649.609375 C 888.191406 651.941406 887.296875 653.742188 885.503906 655.007812 C 883.710938 656.28125 881.097656 656.910156 877.664062 656.910156 L 864.300781 656.910156 L 864.300781 630 L 876.898438 630 C 880.074219 630 882.519531 630.621094 884.234375 631.867188 C 885.953125 633.109375 886.808594 634.820312 886.808594 636.996094 C 886.808594 638.332031 886.503906 639.511719 885.886719 640.539062 C 885.273438 641.5625 884.429688 642.355469 883.351562 642.917969 C 884.835938 643.40625 886.011719 644.21875 886.886719 645.359375 " fill-opacity="1" fill-rule="nonzero"/><path fill="#000000" d="M 896.410156 654.164062 C 894.339844 652.074219 893.300781 649.082031 893.300781 645.1875 L 893.300781 630 L 898.292969 630 L 898.292969 644.992188 C 898.292969 650.277344 900.570312 652.917969 905.132812 652.917969 C 909.664062 652.917969 911.929688 650.277344 911.929688 644.992188 L 911.929688 630 L 916.847656 630 L 916.847656 645.1875 C 916.847656 649.082031 915.816406 652.074219 913.753906 654.164062 C 911.691406 656.253906 908.808594 657.300781 905.09375 657.300781 C 901.378906 657.300781 898.488281 656.253906 896.410156 654.164062 " fill-opacity="1" fill-rule="nonzero"/><path fill="#000000" d="M 935.054688 647.417969 L 935.054688 656.910156 L 930.0625 656.910156 L 930.0625 647.496094 L 919.496094 630 L 924.835938 630 L 932.710938 643.113281 L 940.660156 630 L 945.582031 630 L 935.054688 647.417969 " fill-opacity="1" fill-rule="nonzero"/><path fill="#ff7dce" d="M 833.6875 610.457031 C 816.992188 610.457031 803.410156 624.039062 803.410156 640.726562 L 803.410156 645.195312 C 803.410156 661.886719 816.992188 675.460938 833.6875 675.460938 L 975.5625 675.460938 C 992.257812 675.460938 1005.835938 661.886719 1005.835938 645.195312 L 1005.835938 640.726562 C 1005.835938 624.039062 992.257812 610.457031 975.5625 610.457031 Z M 975.5625 677.359375 L 833.6875 677.359375 C 815.945312 677.359375 801.507812 662.929688 801.507812 645.195312 L 801.507812 640.726562 C 801.507812 622.992188 815.945312 608.558594 833.6875 608.558594 L 975.5625 608.558594 C 993.304688 608.558594 1007.734375 622.992188 1007.734375 640.726562 L 1007.734375 645.195312 C 1007.734375 662.929688 993.304688 677.359375 975.5625 677.359375 " fill-opacity="1" fill-rule="nonzero"/><path fill="#000000" d="M 433.550781 777.503906 L 355.339844 760.550781 L 375.015625 674.210938 L 421.332031 708.171875 L 415.941406 732.953125 L 433.550781 777.503906 " fill-opacity="1" fill-rule="nonzero"/><path fill="#4ada85" d="M 357.265625 771.835938 L 353.917969 765.847656 C 351.46875 761.480469 350.183594 756.554688 350.183594 751.546875 L 350.183594 750.738281 C 350.183594 746.378906 351.160156 742.074219 353.039062 738.132812 L 357.636719 728.488281 L 364.765625 731.125 C 377.761719 735.933594 391.085938 739.804688 404.636719 742.710938 L 419.875 745.972656 L 417.394531 743.339844 C 412.191406 737.800781 411.492188 729.414062 415.710938 723.09375 L 416.707031 721.601562 L 464.222656 754.90625 L 471.429688 754.90625 C 479.394531 754.90625 487.332031 754 495.089844 752.199219 L 497.0625 751.746094 L 498.21875 752.851562 C 502.933594 757.371094 506.441406 763 508.425781 769.222656 L 509.40625 772.300781 L 471.304688 788.019531 L 418.011719 785.605469 L 357.265625 771.835938 " fill-opacity="1" fill-rule="nonzero"/><path fill="#000000" d="M 418.140625 784.65625 L 471.136719 787.0625 L 508.238281 771.757812 L 507.519531 769.507812 C 505.589844 763.460938 502.148438 757.9375 497.558594 753.535156 L 496.777344 752.785156 L 495.304688 753.125 C 487.488281 754.9375 479.453125 755.855469 471.429688 755.855469 L 464.222656 755.855469 C 464.027344 755.855469 463.835938 755.796875 463.675781 755.683594 L 416.957031 722.941406 L 416.503906 723.621094 C 412.507812 729.601562 413.160156 737.445312 418.085938 742.6875 L 420.566406 745.324219 C 420.851562 745.628906 420.90625 746.082031 420.703125 746.441406 C 420.5 746.804688 420.082031 746.996094 419.675781 746.902344 L 404.4375 743.640625 C 390.886719 740.734375 377.429688 736.824219 364.4375 732.015625 L 358.121094 729.679688 L 353.894531 738.542969 C 352.089844 742.328125 351.136719 746.546875 351.136719 750.738281 L 351.136719 751.546875 C 351.136719 756.382812 352.386719 761.171875 354.746094 765.386719 L 357.886719 771.003906 Z M 471.304688 788.972656 C 471.289062 788.972656 471.273438 788.972656 471.261719 788.972656 L 417.96875 786.550781 C 417.914062 786.546875 417.855469 786.542969 417.800781 786.53125 L 357.054688 772.761719 C 356.792969 772.703125 356.570312 772.535156 356.4375 772.300781 L 353.089844 766.316406 C 350.566406 761.8125 349.234375 756.703125 349.234375 751.546875 L 349.234375 750.738281 C 349.234375 746.265625 350.253906 741.765625 352.179688 737.722656 L 356.78125 728.078125 C 356.992188 727.636719 357.507812 727.429688 357.96875 727.597656 L 365.097656 730.230469 C 378.003906 735.011719 391.375 738.894531 404.835938 741.78125 L 417.097656 744.410156 L 416.703125 743.988281 C 411.164062 738.097656 410.433594 729.289062 414.921875 722.566406 L 415.917969 721.078125 C 416.058594 720.863281 416.28125 720.714844 416.53125 720.667969 C 416.78125 720.625 417.042969 720.675781 417.253906 720.828125 L 464.523438 753.957031 L 471.429688 753.957031 C 479.308594 753.957031 487.199219 753.054688 494.875 751.273438 L 496.847656 750.816406 C 497.160156 750.746094 497.488281 750.835938 497.722656 751.058594 L 498.875 752.167969 C 503.6875 756.78125 507.304688 762.582031 509.332031 768.933594 L 510.316406 772.011719 C 510.464844 772.484375 510.226562 772.988281 509.769531 773.175781 L 471.664062 788.898438 C 471.550781 788.945312 471.429688 788.972656 471.304688 788.972656 " fill-opacity="1" fill-rule="nonzero"/><g clip-path="url(#d53efc4387)"><path fill="#000000" d="M 478.429688 793.589844 L 484.8125 791.535156 L 486.296875 796.109375 L 498.234375 792.460938 L 496.695312 787.699219 L 503.074219 785.640625 L 504.648438 790.496094 L 516.21875 786.960938 L 511.515625 771.613281 L 470.277344 784.117188 L 438.878906 784.117188 L 389.316406 768.484375 L 348.507812 768.484375 L 348.507812 799.257812 L 360.984375 799.257812 L 360.984375 794.71875 L 367.695312 794.71875 L 367.695312 799.257812 L 380.179688 799.257812 L 380.179688 794.71875 L 386.886719 794.71875 L 386.886719 799.257812 L 398.539062 799.257812 L 398.539062 783.625 L 427.449219 792.902344 L 427.449219 799.257812 L 440.179688 799.257812 L 440.179688 794.71875 L 446.886719 794.71875 L 446.886719 799.257812 L 459.371094 799.257812 L 459.371094 794.71875 L 466.078125 794.71875 L 466.078125 799.257812 L 475.570312 799.257812 L 479.882812 798.074219 L 478.429688 793.589844 " fill-opacity="1" fill-rule="nonzero"/></g><path fill="#000000" d="M 619.445312 769.484375 L 539.410156 769.484375 L 539.410156 704.320312 L 592.769531 704.320312 L 592.769531 729.675781 L 619.445312 769.484375 " fill-opacity="1" fill-rule="nonzero"/><path fill="#4ada85" d="M 535.328125 771.550781 L 531.976562 765.566406 C 529.53125 761.195312 528.246094 756.269531 528.246094 751.261719 L 528.246094 750.457031 C 528.246094 746.09375 529.222656 741.785156 531.097656 737.847656 L 535.699219 728.203125 L 542.828125 730.839844 C 555.820312 735.648438 569.148438 739.519531 582.699219 742.425781 L 597.933594 745.6875 L 595.457031 743.050781 C 590.25 737.511719 589.554688 729.125 593.773438 722.808594 L 594.769531 721.320312 L 642.28125 754.621094 L 649.492188 754.621094 C 657.457031 754.621094 665.394531 753.710938 673.152344 751.914062 L 675.125 751.453125 L 676.277344 752.5625 C 680.996094 757.085938 684.5 762.714844 686.484375 768.9375 L 687.46875 772.015625 L 649.363281 787.738281 L 596.070312 785.316406 L 535.328125 771.550781 " fill-opacity="1" fill-rule="nonzero"/><g clip-path="url(#6d032e9790)"><path fill="#000000" d="M 656.492188 793.308594 L 662.875 791.246094 L 664.355469 795.828125 L 676.296875 792.175781 L 674.753906 787.414062 L 681.136719 785.351562 L 682.707031 790.210938 L 694.28125 786.671875 L 689.574219 771.332031 L 648.335938 783.832031 L 616.941406 783.832031 L 567.375 768.199219 L 526.570312 768.199219 L 526.570312 799.257812 L 539.046875 799.257812 L 539.046875 794.433594 L 545.753906 794.433594 L 545.753906 799.257812 L 558.238281 799.257812 L 558.238281 794.433594 L 564.945312 794.433594 L 564.945312 799.257812 L 576.597656 799.257812 L 576.597656 783.339844 L 605.507812 792.621094 L 605.507812 799.257812 L 618.238281 799.257812 L 618.238281 794.433594 L 624.945312 794.433594 L 624.945312 799.257812 L 637.433594 799.257812 L 637.433594 794.433594 L 644.136719 794.433594 L 644.136719 799.257812 L 653.632812 799.257812 L 657.941406 797.785156 L 656.492188 793.308594 " fill-opacity="1" fill-rule="nonzero"/></g><path fill="#8c7bff" d="M 519.035156 375.800781 L 437.964844 375.800781 L 349.863281 710.484375 L 430.933594 710.484375 L 519.035156 375.800781 " fill-opacity="1" fill-rule="nonzero"/><g clip-path="url(#d98f53366d)"><path fill="#000000" d="M 351.097656 709.539062 L 430.199219 709.539062 L 517.800781 376.753906 L 438.699219 376.753906 Z M 430.933594 711.4375 L 349.863281 711.4375 C 349.570312 711.4375 349.292969 711.300781 349.109375 711.066406 C 348.929688 710.832031 348.871094 710.53125 348.945312 710.242188 L 437.046875 375.5625 C 437.15625 375.140625 437.535156 374.851562 437.964844 374.851562 L 519.035156 374.851562 C 519.328125 374.851562 519.605469 374.988281 519.789062 375.222656 C 519.96875 375.457031 520.03125 375.757812 519.953125 376.042969 L 431.851562 710.730469 C 431.742188 711.148438 431.363281 711.4375 430.933594 711.4375 " fill-opacity="1" fill-rule="nonzero"/></g><path fill="#8c7bff" d="M 519.945312 375.800781 L 437.964844 381.820312 L 521.144531 525.046875 L 521.144531 711.703125 L 602.210938 711.703125 L 602.210938 541.746094 C 602.210938 526.863281 598.277344 512.25 590.800781 499.378906 L 519.945312 375.800781 " fill-opacity="1" fill-rule="nonzero"/><path fill="#000000" d="M 540.511719 411.675781 L 519.945312 375.800781 L 437.964844 375.800781 L 423.195312 431.820312 C 440.796875 436.476562 466.539062 437.097656 473.453125 421.871094 C 478.738281 410.234375 495.175781 404.957031 540.511719 411.675781 " fill-opacity="1" fill-rule="nonzero"/><path fill="#000000" d="M 492.691406 476.65625 C 492.613281 476.65625 492.53125 476.644531 492.449219 476.625 C 491.941406 476.488281 491.640625 475.972656 491.773438 475.464844 L 499.441406 446.375 C 499.578125 445.871094 500.09375 445.566406 500.605469 445.699219 C 501.113281 445.832031 501.414062 446.351562 501.28125 446.863281 L 493.613281 475.949219 C 493.5 476.375 493.113281 476.65625 492.691406 476.65625 " fill-opacity="1" fill-rule="nonzero"/><path fill="#955b50" d="M 453.457031 298.226562 L 473.113281 299.191406 L 474.347656 273.53125 L 454.695312 272.570312 L 453.457031 298.226562 " fill-opacity="1" fill-rule="nonzero"/><path fill="#000000" d="M 454.332031 280.097656 L 454.695312 272.570312 L 474.347656 273.53125 L 473.546875 290.144531 C 471.757812 290.417969 468.199219 290.691406 464.207031 289.144531 C 457.953125 286.714844 455.074219 281.542969 454.332031 280.097656 " fill-opacity="1" fill-rule="nonzero"/><path fill="#000000" d="M 444.695312 238.640625 L 451.773438 265.527344 L 483.152344 266.230469 L 491.417969 239.683594 L 444.695312 238.640625 " fill-opacity="1" fill-rule="nonzero"/><path fill="#955b50" d="M 451.660156 266.542969 C 451.191406 276.289062 457.886719 284.539062 466.617188 284.964844 C 475.347656 285.394531 482.804688 277.839844 483.273438 268.09375 C 483.742188 258.34375 477.046875 250.097656 468.320312 249.671875 C 459.585938 249.242188 452.128906 256.796875 451.660156 266.542969 " fill-opacity="1" fill-rule="nonzero"/><path fill="#ffffff" d="M 460.222656 274.730469 C 461.683594 276.214844 463.605469 277.265625 465.8125 277.605469 C 470.738281 278.355469 475.355469 275.328125 476.808594 270.675781 L 460.222656 274.730469 " fill-opacity="1" fill-rule="nonzero"/><path fill="#955b50" d="M 608.792969 233.6875 C 608.792969 233.6875 605.527344 223.453125 615.855469 215.585938 C 618.25 213.761719 623.46875 210.335938 627.933594 207.585938 C 633.015625 204.460938 637.734375 200.492188 641.828125 196.148438 L 646.460938 191.242188 C 648.816406 188.742188 653.863281 188.175781 656.464844 190.417969 L 657.019531 190.902344 C 659.65625 193.175781 658.566406 197.816406 656.347656 200.5 L 643.089844 217.109375 L 651.59375 221.042969 C 656.800781 223.058594 662.464844 223.585938 667.957031 222.566406 L 690.207031 218.890625 C 693.90625 218.277344 697.492188 220.484375 698.601562 224.058594 L 698.792969 224.667969 L 710.523438 221.515625 C 714.007812 220.699219 718.734375 222.355469 719.707031 225.796875 C 720.667969 229.167969 718.925781 232.683594 714.328125 234.308594 L 643.910156 260.253906 L 633.960938 299.804688 L 623.308594 345.144531 C 623.308594 345.144531 620.652344 356.1875 618.65625 359.238281 C 611.117188 370.753906 602.222656 371.085938 596.90625 370.777344 C 574.234375 369.445312 498.457031 343.644531 498.457031 343.644531 L 525.203125 306.417969 L 583.078125 324.925781 L 592.257812 294.042969 L 608.792969 233.6875 " fill-opacity="1" fill-rule="nonzero"/><path fill="#000000" d="M 506.867188 345.109375 C 515.535156 347.660156 565.84375 362.4375 589.292969 368.789062 C 607.460938 373.714844 617.8125 362.601562 621.445312 350.558594 C 622.273438 347.800781 623.46875 342.730469 624.339844 339.027344 L 624.867188 336.808594 C 629.421875 317.703125 642.851562 260.605469 642.984375 260.035156 C 643.058594 259.722656 643.285156 259.46875 643.589844 259.359375 L 715.664062 233.414062 C 718.484375 232.394531 720.054688 229.34375 719.234375 226.457031 C 718.398438 223.503906 715.394531 221.738281 712.398438 222.441406 L 700.695312 225.582031 C 700.199219 225.71875 699.691406 225.4375 699.542969 224.953125 L 699.351562 224.34375 C 698.382812 221.234375 695.230469 219.292969 692.015625 219.828125 L 669.765625 223.503906 C 664.117188 224.554688 658.28125 224.011719 652.90625 221.929688 L 642.746094 218 C 642.460938 217.886719 642.253906 217.644531 642.175781 217.351562 C 642.097656 217.054688 642.167969 216.738281 642.359375 216.507812 L 656.652344 199.210938 C 658.519531 196.945312 658.234375 193.539062 656.007812 191.621094 L 655.453125 191.136719 C 653.230469 189.222656 649.914062 189.390625 647.898438 191.527344 L 643.210938 196.503906 C 639.058594 200.914062 634.351562 204.753906 629.210938 207.917969 C 623.246094 211.585938 619.082031 214.292969 617.167969 215.753906 C 607.445312 223.164062 609.695312 233.371094 609.71875 233.472656 C 609.753906 233.625 609.75 233.785156 609.710938 233.933594 C 609.59375 234.378906 597.882812 278.339844 593.597656 292.867188 C 591.21875 300.925781 583.988281 325.191406 583.988281 325.191406 C 583.917969 325.441406 583.746094 325.644531 583.519531 325.761719 C 583.289062 325.882812 583.023438 325.90625 582.78125 325.824219 L 532.429688 309.261719 Z M 597.621094 371.871094 C 594.890625 371.871094 591.953125 371.480469 588.796875 370.621094 C 563.191406 363.683594 505.628906 346.722656 505.050781 346.550781 C 504.757812 346.464844 504.523438 346.242188 504.421875 345.953125 C 504.320312 345.660156 504.367188 345.34375 504.546875 345.09375 L 531.289062 307.589844 C 531.53125 307.25 531.964844 307.105469 532.359375 307.238281 L 582.445312 323.714844 C 583.796875 319.179688 589.675781 299.449219 591.773438 292.328125 C 595.902344 278.339844 606.933594 236.976562 607.820312 233.652344 C 607.515625 231.929688 606.207031 221.71875 616.019531 214.242188 C 618.007812 212.726562 622.109375 210.054688 628.214844 206.296875 C 633.210938 203.21875 637.792969 199.488281 641.828125 195.203125 L 646.515625 190.226562 C 649.230469 187.34375 653.699219 187.117188 656.695312 189.699219 L 657.25 190.183594 C 660.25 192.769531 660.640625 197.367188 658.113281 200.421875 L 644.664062 216.703125 L 653.59375 220.160156 C 658.636719 222.109375 664.117188 222.621094 669.4375 221.632812 L 691.710938 217.949219 C 695.757812 217.285156 699.738281 219.664062 701.078125 223.519531 L 711.933594 220.597656 C 715.949219 219.660156 719.949219 222.007812 721.0625 225.941406 C 722.152344 229.777344 720.0625 233.847656 716.304688 235.203125 L 644.714844 260.96875 C 643.375 266.679688 631.042969 319.097656 626.710938 337.25 L 626.191406 339.460938 C 625.316406 343.191406 624.113281 348.296875 623.261719 351.113281 C 620.152344 361.425781 611.742188 371.867188 597.621094 371.871094 " fill-opacity="1" fill-rule="nonzero"/><path fill="#000000" d="M 638.9375 223.027344 C 638.71875 223.027344 638.5 222.953125 638.324219 222.808594 C 637.921875 222.46875 637.867188 221.867188 638.207031 221.46875 L 642.582031 216.25 C 642.914062 215.84375 643.515625 215.792969 643.917969 216.128906 C 644.320312 216.46875 644.371094 217.066406 644.035156 217.46875 L 639.664062 222.6875 C 639.472656 222.910156 639.207031 223.027344 638.9375 223.027344 " fill-opacity="1" fill-rule="nonzero"/><path fill="#955b50" d="M 666.21875 230.449219 L 672.546875 228.902344 C 676.566406 227.917969 680.21875 225.789062 683.046875 222.773438 L 698.566406 206.265625 C 700.796875 203.890625 704.523438 203.746094 706.9375 205.941406 C 709.234375 208.027344 709.539062 211.527344 707.644531 213.980469 L 692.136719 234.058594 C 690.890625 235.675781 689.320312 237.03125 687.53125 238.042969 L 677.910156 243.472656 L 666.21875 230.449219 " fill-opacity="1" fill-rule="nonzero"/><path fill="#000000" d="M 687.53125 238.992188 C 687.199219 238.992188 686.882812 238.816406 686.707031 238.511719 C 686.445312 238.050781 686.609375 237.472656 687.066406 237.214844 C 688.753906 236.261719 690.203125 235.007812 691.386719 233.476562 L 706.890625 213.398438 C 708.46875 211.347656 708.210938 208.382812 706.296875 206.644531 C 704.28125 204.808594 701.125 204.933594 699.261719 206.914062 L 687.398438 219.644531 C 687.039062 220.023438 686.4375 220.046875 686.054688 219.691406 C 685.671875 219.332031 685.652344 218.730469 686.007812 218.347656 L 697.875 205.617188 C 700.445312 202.878906 704.800781 202.707031 707.578125 205.238281 C 710.21875 207.636719 710.574219 211.734375 708.398438 214.558594 L 692.890625 234.636719 C 691.550781 236.371094 689.90625 237.792969 688 238.867188 C 687.851562 238.953125 687.691406 238.992188 687.53125 238.992188 " fill-opacity="1" fill-rule="nonzero"/><path fill="#955b50" d="M 650.617188 237.792969 L 656.597656 235.222656 C 660.402344 233.585938 663.648438 230.878906 665.941406 227.441406 L 678.515625 208.601562 C 680.324219 205.890625 683.96875 205.132812 686.714844 206.898438 C 689.320312 208.574219 690.203125 211.972656 688.738281 214.707031 L 676.773438 237.066406 C 675.808594 238.875 674.488281 240.46875 672.894531 241.761719 L 664.300781 248.703125 L 650.617188 237.792969 " fill-opacity="1" fill-rule="nonzero"/><path fill="#000000" d="M 669.808594 246.59375 C 669.527344 246.59375 669.253906 246.46875 669.0625 246.234375 C 668.734375 245.820312 668.804688 245.226562 669.21875 244.902344 C 672.875 241.984375 675.910156 238.238281 678 234.0625 L 687.890625 214.285156 C 689.121094 211.980469 688.371094 209.097656 686.199219 207.695312 C 683.90625 206.222656 680.8125 206.863281 679.300781 209.128906 L 666.734375 227.96875 C 664.332031 231.574219 660.953125 234.382812 656.972656 236.089844 L 644.277344 240.457031 C 643.78125 240.628906 643.238281 240.363281 643.066406 239.867188 C 642.898438 239.371094 643.160156 238.828125 643.65625 238.660156 L 656.289062 234.320312 C 659.867188 232.777344 662.957031 230.210938 665.152344 226.914062 L 677.722656 208.074219 C 679.804688 204.949219 684.070312 204.066406 687.226562 206.097656 C 690.230469 208.035156 691.261719 212.011719 689.578125 215.15625 L 679.703125 234.910156 C 677.488281 239.332031 674.269531 243.304688 670.398438 246.386719 C 670.226562 246.523438 670.015625 246.59375 669.808594 246.59375 " fill-opacity="1" fill-rule="nonzero"/><path fill="#000000" d="M 550.996094 358.628906 L 570.019531 364.40625 C 570.832031 354.742188 561.0625 353.042969 562.8125 341.644531 C 565.113281 326.671875 556.148438 314.296875 556.148438 314.296875 L 550.996094 358.628906 " fill-opacity="1" fill-rule="nonzero"/><path fill="#fed101" d="M 556.667969 315.371094 L 556.667969 371.601562 L 538.089844 364.820312 L 538.089844 413.769531 L 426.457031 415.820312 L 428.269531 405.265625 L 432.859375 378.539062 L 435.652344 362.316406 L 399.703125 362.433594 L 394.867188 347.820312 C 387.46875 329.757812 403.207031 309.625 419.390625 301.433594 C 429.394531 296.382812 453.0625 298.363281 453.0625 298.363281 L 470.945312 318.277344 L 474.0625 298.304688 C 474.0625 298.304688 486.808594 298.378906 494.09375 298.371094 C 502.386719 298.363281 512.597656 297.707031 525.863281 300.808594 C 548.078125 305.988281 556.667969 315.371094 556.667969 315.371094 " fill-opacity="1" fill-rule="nonzero"/><path fill="#fcb503" d="M 556.667969 329.410156 L 395.195312 329.410156 C 393.121094 337.957031 393.632812 347.3125 397.425781 356.136719 L 556.667969 356.136719 L 556.667969 329.410156 " fill-opacity="1" fill-rule="nonzero"/><path fill="#fcb503" d="M 538.089844 378.539062 L 538.089844 405.265625 L 428.269531 405.265625 L 432.859375 378.539062 L 538.089844 378.539062 " fill-opacity="1" fill-rule="nonzero"/><path fill="#fcb503" d="M 434.703125 298.367188 C 419.324219 298.367188 406.820312 306.632812 399.914062 318.277344 L 470.046875 318.277344 L 452.394531 298.367188 L 434.703125 298.367188 " fill-opacity="1" fill-rule="nonzero"/><path fill="#fcb503" d="M 556.667969 312.023438 C 543.117188 299.988281 523.578125 298.371094 505.542969 298.371094 L 472.640625 298.371094 L 470.59375 318.277344 L 556.667969 318.277344 L 556.667969 312.023438 " fill-opacity="1" fill-rule="nonzero"/><path fill="#ffffff" d="M 452.164062 298.066406 L 471.195312 318.789062 L 474.0625 298.3125 Z M 452.164062 298.066406 " fill-opacity="1" fill-rule="nonzero"/><path fill="#000000" d="M 477.320312 363.328125 L 400.96875 363.222656 C 400.636719 363.222656 400.328125 363.050781 400.15625 362.769531 L 399.148438 361.097656 C 391.210938 347.96875 390.972656 332.152344 398.511719 318.792969 C 406.0625 305.40625 419.757812 297.414062 435.148438 297.414062 L 453.0625 297.414062 C 453.332031 297.414062 453.589844 297.53125 453.769531 297.726562 L 470.625 316.503906 L 472.625 298.265625 C 472.683594 297.746094 473.152344 297.375 473.675781 297.425781 C 474.195312 297.484375 474.570312 297.953125 474.515625 298.472656 L 472.285156 318.820312 C 472.242188 319.195312 471.988281 319.507812 471.628906 319.617188 C 471.273438 319.734375 470.882812 319.632812 470.632812 319.351562 L 452.636719 299.316406 L 435.148438 299.316406 C 420.453125 299.316406 407.378906 306.945312 400.164062 319.726562 C 392.96875 332.484375 393.195312 347.582031 400.777344 360.117188 L 401.507812 361.324219 L 475.597656 361.425781 L 459.203125 335.410156 C 458.921875 334.964844 459.054688 334.378906 459.5 334.101562 C 459.945312 333.820312 460.53125 333.953125 460.808594 334.398438 L 478.125 361.867188 C 478.308594 362.160156 478.320312 362.53125 478.152344 362.835938 C 477.984375 363.136719 477.667969 363.328125 477.320312 363.328125 " fill-opacity="1" fill-rule="nonzero"/><path fill="#000000" d="M 538.089844 406.214844 C 537.5625 406.214844 537.136719 405.792969 537.136719 405.265625 L 537.136719 361.136719 C 537.136719 360.609375 537.5625 360.183594 538.089844 360.183594 C 538.613281 360.183594 539.039062 360.609375 539.039062 361.136719 L 539.039062 405.265625 C 539.039062 405.792969 538.613281 406.214844 538.089844 406.214844 " fill-opacity="1" fill-rule="nonzero"/><path fill="#955b50" d="M 571.617188 412.292969 L 578.863281 427.90625 C 578.863281 427.90625 597.289062 413.921875 601.84375 410.601562 C 602.53125 409.976562 607.941406 407.09375 612.121094 398.972656 C 612.160156 398.78125 616.800781 391.679688 611.527344 384.464844 L 611.390625 384.28125 C 609.183594 381.257812 604.546875 381.621094 602.851562 384.957031 C 600.84375 388.902344 599.621094 391.894531 595.589844 394.828125 L 571.617188 412.292969 " fill-opacity="1" fill-rule="nonzero"/><path fill="#000000" d="M 572.808594 412.601562 L 579.230469 426.4375 C 583.039062 423.550781 597.296875 412.742188 601.253906 409.855469 C 601.378906 409.753906 601.589844 409.601562 601.871094 409.402344 C 603.488281 408.28125 607.785156 405.296875 611.253906 398.570312 C 611.285156 398.507812 611.320312 398.441406 611.367188 398.355469 C 612.542969 396.207031 614.839844 390.605469 610.757812 385.027344 L 610.625 384.839844 C 609.78125 383.6875 608.425781 383.074219 607 383.183594 C 605.578125 383.296875 604.34375 384.121094 603.699219 385.386719 L 603.132812 386.511719 C 601.4375 389.894531 599.972656 392.816406 596.152344 395.601562 Z M 578.863281 428.859375 C 578.785156 428.859375 578.710938 428.847656 578.632812 428.832031 C 578.355469 428.761719 578.121094 428.570312 578 428.308594 L 570.757812 412.695312 C 570.566406 412.285156 570.691406 411.792969 571.058594 411.527344 L 595.03125 394.0625 C 598.480469 391.546875 599.71875 389.082031 601.433594 385.664062 L 602.003906 384.527344 C 602.953125 382.664062 604.761719 381.453125 606.847656 381.289062 C 608.9375 381.125 610.925781 382.027344 612.160156 383.71875 L 612.292969 383.90625 C 617.015625 390.363281 614.386719 396.800781 613.035156 399.269531 L 612.988281 399.351562 C 612.980469 399.371094 612.972656 399.390625 612.964844 399.40625 C 609.277344 406.574219 604.683594 409.765625 602.953125 410.96875 C 602.730469 411.121094 602.566406 411.230469 602.480469 411.304688 C 602.457031 411.324219 602.429688 411.351562 602.40625 411.367188 C 597.910156 414.644531 579.621094 428.527344 579.4375 428.664062 C 579.269531 428.789062 579.070312 428.859375 578.863281 428.859375 " fill-opacity="1" fill-rule="nonzero"/><path fill="#955b50" d="M 466.875 363.113281 L 494.304688 406.320312 L 584.714844 406.332031 L 584.714844 451.546875 L 487.574219 451.570312 C 473.511719 451.582031 460.425781 444.394531 452.898438 432.535156 L 408.792969 363.039062 L 466.875 363.113281 " fill-opacity="1" fill-rule="nonzero"/><path fill="#955b50" d="M 634.429688 437.484375 L 639.339844 432.183594 C 641.828125 429.503906 642.070312 425.453125 639.9375 422.488281 L 635.113281 415.804688 L 623.414062 428.832031 L 549.941406 428.832031 L 549.941406 444.183594 L 619.074219 444.183594 C 624.902344 444.183594 630.46875 441.753906 634.429688 437.484375 " fill-opacity="1" fill-rule="nonzero"/><path fill="#955b50" d="M 632.164062 447.058594 L 634.945312 444.058594 C 637.421875 441.386719 637.675781 437.328125 635.539062 434.371094 L 630.714844 427.679688 L 619.015625 440.707031 L 549.941406 440.707031 L 549.941406 451.390625 L 561.664062 451.390625 C 566.515625 451.390625 575.167969 456.058594 586.113281 456.058594 L 611.53125 456.058594 C 619.367188 456.058594 626.84375 452.796875 632.164062 447.058594 " fill-opacity="1" fill-rule="nonzero"/><path fill="#955b50" d="M 636.144531 427.164062 L 642.042969 420.804688 C 644.523438 418.128906 644.773438 414.070312 642.636719 411.113281 L 637.8125 404.421875 L 626.113281 417.453125 L 580.59375 417.453125 L 580.59375 432.808594 L 623.210938 432.808594 C 628.121094 432.808594 632.808594 430.761719 636.144531 427.164062 " fill-opacity="1" fill-rule="nonzero"/><path fill="#955b50" d="M 633.988281 415.984375 L 640.136719 409.347656 C 642.421875 406.890625 642.648438 403.171875 640.6875 400.449219 C 638.050781 396.800781 632.714844 396.515625 629.710938 399.867188 L 626.371094 403.582031 C 624.777344 405.363281 622.5 406.375 620.109375 406.375 L 581.886719 406.375 C 571.894531 406.375 564.859375 406.945312 555.230469 421.742188 L 620.824219 421.726562 C 625.824219 421.726562 630.59375 419.648438 633.988281 415.984375 " fill-opacity="1" fill-rule="nonzero"/><path fill="#000000" d="M 466.875 363.113281 L 479.855469 383.5625 C 465.105469 383.28125 468.242188 374.171875 450.761719 375.628906 C 432.1875 377.179688 424.480469 377.628906 413.519531 370.488281 L 408.792969 363.039062 L 466.875 363.113281 " fill-opacity="1" fill-rule="nonzero"/><path fill="#000000" d="M 619.070312 445.132812 L 605.546875 445.132812 C 605.023438 445.132812 604.597656 444.707031 604.597656 444.183594 C 604.597656 443.65625 605.023438 443.230469 605.546875 443.230469 L 619.070312 443.230469 C 624.621094 443.230469 629.964844 440.902344 633.730469 436.835938 L 638.648438 431.535156 C 640.808594 429.199219 641.027344 425.628906 639.167969 423.042969 C 638.859375 422.625 638.957031 422.027344 639.378906 421.71875 C 639.804688 421.414062 640.398438 421.511719 640.710938 421.933594 C 643.101562 425.25 642.816406 429.832031 640.039062 432.828125 L 635.125 438.128906 C 631 442.582031 625.144531 445.132812 619.070312 445.132812 " fill-opacity="1" fill-rule="nonzero"/><path fill="#000000" d="M 623.210938 433.757812 L 605.421875 433.757812 C 604.894531 433.757812 604.472656 433.332031 604.472656 432.808594 C 604.472656 432.28125 604.894531 431.855469 605.421875 431.855469 L 623.210938 431.855469 C 627.839844 431.855469 632.300781 429.910156 635.445312 426.515625 L 641.34375 420.160156 C 643.511719 417.820312 643.730469 414.253906 641.863281 411.667969 L 639.984375 409.0625 C 639.679688 408.640625 639.777344 408.042969 640.199219 407.738281 C 640.628906 407.433594 641.222656 407.527344 641.527344 407.953125 L 643.40625 410.558594 C 645.796875 413.875 645.515625 418.453125 642.738281 421.453125 L 636.84375 427.808594 C 633.339844 431.589844 628.367188 433.757812 623.210938 433.757812 " fill-opacity="1" fill-rule="nonzero"/><path fill="#000000" d="M 611.53125 457.011719 L 587.808594 457.011719 C 580.257812 457.011719 575.246094 455.632812 570.824219 454.414062 C 567.195312 453.414062 563.765625 452.472656 559.472656 452.472656 L 487.546875 452.472656 C 473.085938 452.472656 459.832031 445.191406 452.089844 432.996094 L 407.992188 363.546875 C 407.804688 363.253906 407.792969 362.882812 407.957031 362.582031 C 408.128906 362.277344 408.445312 362.089844 408.792969 362.089844 L 466.875 362.160156 C 467.199219 362.167969 467.503906 362.328125 467.675781 362.605469 L 494.824219 405.371094 L 579.953125 405.414062 C 580.480469 405.417969 580.90625 405.839844 580.902344 406.363281 C 580.902344 406.890625 580.476562 407.316406 579.953125 407.316406 L 494.300781 407.269531 C 493.976562 407.269531 493.671875 407.105469 493.5 406.832031 L 466.351562 364.066406 L 410.523438 363.992188 L 453.691406 431.980469 C 461.085938 443.617188 473.742188 450.570312 487.546875 450.570312 L 559.472656 450.570312 C 564.023438 450.570312 567.570312 451.546875 571.328125 452.582031 C 575.84375 453.824219 580.511719 455.113281 587.808594 455.113281 L 611.53125 455.113281 C 619.074219 455.113281 626.34375 451.941406 631.464844 446.414062 L 634.246094 443.410156 C 636.121094 441.398438 636.570312 438.488281 635.398438 435.996094 C 635.175781 435.523438 635.382812 434.953125 635.855469 434.734375 C 636.328125 434.511719 636.898438 434.714844 637.121094 435.1875 C 638.621094 438.378906 638.039062 442.117188 635.640625 444.703125 L 632.859375 447.707031 C 627.378906 453.617188 619.601562 457.011719 611.53125 457.011719 " fill-opacity="1" fill-rule="nonzero"/><path fill="#000000" d="M 620.824219 422.679688 L 606.023438 422.679688 C 605.496094 422.679688 605.070312 422.253906 605.070312 421.726562 C 605.070312 421.203125 605.496094 420.777344 606.023438 420.777344 L 620.824219 420.777344 C 625.542969 420.777344 630.085938 418.796875 633.292969 415.339844 L 639.445312 408.703125 C 641.40625 406.585938 641.605469 403.34375 639.917969 401.003906 C 638.828125 399.5 637.144531 398.582031 635.285156 398.480469 C 633.429688 398.382812 631.65625 399.117188 630.414062 400.5 L 627.078125 404.21875 C 625.304688 406.191406 622.765625 407.324219 620.109375 407.324219 L 596.652344 407.316406 C 596.128906 407.316406 595.703125 406.890625 595.703125 406.363281 C 595.703125 405.839844 596.128906 405.414062 596.652344 405.414062 L 620.109375 405.425781 C 622.226562 405.425781 624.25 404.519531 625.664062 402.949219 L 629.003906 399.230469 C 630.628906 397.417969 632.953125 396.457031 635.390625 396.585938 C 637.820312 396.714844 640.035156 397.921875 641.453125 399.890625 C 643.671875 402.96875 643.414062 407.21875 640.835938 409.996094 L 634.6875 416.628906 C 631.121094 420.476562 626.070312 422.679688 620.824219 422.679688 " fill-opacity="1" fill-rule="nonzero"/><path fill="#000000" d="M 561.835938 474.339844 C 561.464844 474.339844 561.113281 474.121094 560.960938 473.757812 L 531.679688 404.039062 C 531.480469 403.550781 531.707031 402.996094 532.191406 402.796875 C 532.675781 402.59375 533.230469 402.820312 533.433594 403.304688 L 562.710938 473.023438 C 562.914062 473.503906 562.6875 474.066406 562.203125 474.265625 C 562.085938 474.320312 561.960938 474.339844 561.835938 474.339844 " fill-opacity="1" fill-rule="nonzero"/><path fill="#ffffff" d="M 517.859375 483.332031 L 570.351562 471.46875 L 621 608.828125 L 535.195312 628.015625 L 517.859375 483.332031 " fill-opacity="1" fill-rule="nonzero"/><path fill="#000000" d="M 518.90625 484.066406 L 536.011719 626.863281 L 619.730469 608.136719 L 569.746094 472.574219 Z M 535.195312 628.96875 C 535 628.96875 534.804688 628.90625 534.644531 628.796875 C 534.425781 628.640625 534.28125 628.398438 534.25 628.132812 L 516.917969 483.445312 C 516.859375 482.960938 517.175781 482.515625 517.652344 482.40625 L 570.140625 470.539062 C 570.605469 470.4375 571.078125 470.691406 571.242188 471.136719 L 621.890625 608.5 C 621.984375 608.753906 621.964844 609.039062 621.832031 609.28125 C 621.703125 609.523438 621.472656 609.695312 621.207031 609.753906 L 535.402344 628.945312 C 535.332031 628.960938 535.261719 628.96875 535.195312 628.96875 " fill-opacity="1" fill-rule="nonzero"/><path fill="#000000" d="M 621 609.777344 C 620.964844 609.777344 620.929688 609.777344 620.890625 609.769531 L 573.996094 604.417969 C 573.59375 604.378906 573.265625 604.078125 573.175781 603.683594 L 545.222656 477.222656 C 545.109375 476.710938 545.433594 476.203125 545.945312 476.089844 C 546.460938 475.972656 546.964844 476.300781 547.078125 476.8125 L 574.886719 602.609375 L 621.105469 607.886719 C 621.628906 607.941406 622 608.414062 621.941406 608.9375 C 621.890625 609.417969 621.476562 609.777344 621 609.777344 " fill-opacity="1" fill-rule="nonzero"/><path fill="#000000" d="M 535.996094 628.785156 C 535.683594 628.785156 535.375 628.632812 535.195312 628.351562 C 534.910156 627.90625 535.042969 627.324219 535.484375 627.039062 L 573.59375 602.675781 C 574.03125 602.394531 574.621094 602.527344 574.90625 602.964844 C 575.1875 603.410156 575.058594 603.992188 574.617188 604.277344 L 536.507812 628.640625 C 536.347656 628.738281 536.171875 628.785156 535.996094 628.785156 " fill-opacity="1" fill-rule="nonzero"/><path fill="#000000" d="M 530.300781 481.472656 C 529.777344 481.472656 529.351562 481.046875 529.351562 480.519531 L 529.351562 450.816406 C 529.351562 450.292969 529.777344 449.871094 530.300781 449.871094 C 530.824219 449.871094 531.25 450.292969 531.25 450.816406 L 531.25 480.519531 C 531.25 481.046875 530.824219 481.472656 530.300781 481.472656 " fill-opacity="1" fill-rule="nonzero"/><path fill="#000000" d="M 495.183594 468.484375 C 495.015625 468.484375 494.847656 468.4375 494.691406 468.347656 C 494.242188 468.074219 494.097656 467.492188 494.371094 467.042969 L 504.488281 450.328125 C 504.757812 449.878906 505.34375 449.734375 505.792969 450.007812 C 506.242188 450.277344 506.386719 450.859375 506.113281 451.3125 L 495.996094 468.023438 C 495.820312 468.320312 495.503906 468.484375 495.183594 468.484375 " fill-opacity="1" fill-rule="nonzero"/><path fill="#000000" d="M 524.730469 475.914062 C 524.222656 475.914062 523.804688 475.511719 523.78125 475.003906 L 520.898438 404.550781 C 520.875 404.027344 521.285156 403.582031 521.808594 403.5625 C 522.332031 403.550781 522.773438 403.949219 522.796875 404.472656 L 525.679688 474.925781 C 525.703125 475.449219 525.296875 475.890625 524.769531 475.914062 C 524.757812 475.914062 524.746094 475.914062 524.730469 475.914062 " fill-opacity="1" fill-rule="nonzero"/><path fill="#fda4ff" d="M 487.121094 465.507812 L 533.554688 477.183594 L 518.21875 605.933594 L 444.910156 587.316406 L 487.121094 465.507812 " fill-opacity="1" fill-rule="nonzero"/><path fill="#000000" d="M 514.351562 603.957031 C 514.148438 603.957031 513.945312 603.890625 513.769531 603.757812 L 484.347656 581.050781 C 484.054688 580.824219 483.917969 580.441406 484.007812 580.078125 L 510.363281 471.429688 C 510.488281 470.917969 511 470.605469 511.507812 470.726562 C 512.019531 470.851562 512.332031 471.367188 512.210938 471.878906 L 486 579.925781 L 514.929688 602.25 C 515.347656 602.574219 515.425781 603.167969 515.101562 603.585938 C 514.917969 603.824219 514.636719 603.957031 514.351562 603.957031 " fill-opacity="1" fill-rule="nonzero"/><path fill="#000000" d="M 449.105469 586.835938 C 448.644531 586.835938 448.242188 586.5 448.167969 586.03125 C 448.085938 585.511719 448.441406 585.027344 448.960938 584.945312 L 484.785156 579.363281 C 485.296875 579.289062 485.789062 579.636719 485.871094 580.15625 C 485.949219 580.671875 485.59375 581.160156 485.078125 581.242188 L 449.253906 586.824219 C 449.203125 586.832031 449.15625 586.835938 449.105469 586.835938 " fill-opacity="1" fill-rule="nonzero"/><path fill="#ff7dce" d="M 531.570312 98.929688 C 531.570312 98.929688 511.847656 98.953125 504.0625 108.394531 C 495.296875 119.027344 501.007812 128.507812 496.238281 137.472656 C 493.757812 142.136719 485.308594 148.148438 479.421875 148.527344 C 479.421875 148.527344 510.601562 167.058594 528.269531 157.101562 C 545.9375 147.140625 552.738281 131.621094 552.738281 131.621094 L 531.570312 98.929688 " fill-opacity="1" fill-rule="nonzero"/><path fill="#ffffff" d="M 532.851562 108.421875 C 532.851562 108.421875 522.75 108.949219 518.289062 114.136719 C 514.386719 118.675781 515.5625 122.820312 516.074219 128.902344 C 516.414062 132.910156 514.347656 137.507812 510.441406 138.828125 C 510.441406 138.828125 520.425781 145.421875 532.585938 138.394531 C 543.875 131.867188 544.691406 126.710938 544.691406 126.710938 L 532.851562 108.421875 " fill-opacity="1" fill-rule="nonzero"/><path fill="#000000" d="M 570.660156 117.652344 L 534.804688 184.570312 L 581.304688 154.402344 C 584.265625 152.484375 586.050781 149.230469 586.089844 145.703125 L 586.390625 118.183594 Z M 532.222656 188.328125 C 531.992188 188.328125 531.761719 188.25 531.582031 188.082031 C 531.261719 187.789062 531.179688 187.3125 531.386719 186.9375 L 569.261719 116.234375 C 569.433594 115.914062 569.769531 115.714844 570.132812 115.734375 L 587.382812 116.320312 C 587.898438 116.335938 588.308594 116.765625 588.300781 117.28125 L 587.992188 145.722656 C 587.945312 149.890625 585.835938 153.730469 582.339844 155.996094 L 532.742188 188.179688 C 532.582031 188.28125 532.402344 188.328125 532.222656 188.328125 " fill-opacity="1" fill-rule="nonzero"/><path fill="#000000" d="M 528.246094 61.953125 C 526.25 61.953125 524.269531 62.527344 522.542969 63.644531 L 476.039062 93.820312 L 551.703125 88.382812 L 557.640625 73.785156 L 532.425781 62.824219 C 531.082031 62.242188 529.660156 61.953125 528.246094 61.953125 Z M 472.425781 95.984375 C 472.019531 95.984375 471.652344 95.722656 471.523438 95.335938 C 471.386719 94.921875 471.542969 94.472656 471.90625 94.234375 L 521.507812 62.054688 C 525 59.785156 529.367188 59.421875 533.183594 61.085938 L 559.25 72.414062 C 559.722656 72.621094 559.945312 73.167969 559.75 73.644531 L 553.242188 89.644531 C 553.101562 89.980469 552.789062 90.210938 552.429688 90.234375 L 472.492188 95.984375 C 472.46875 95.984375 472.449219 95.984375 472.425781 95.984375 " fill-opacity="1" fill-rule="nonzero"/><path fill="#8c7bff" d="M 550.414062 135.542969 L 526.734375 98.980469 C 526.734375 98.980469 556.863281 39.855469 633.117188 18.902344 C 652.441406 13.597656 674.738281 10.746094 700.25 11.917969 C 700.46875 11.933594 700.675781 11.941406 700.882812 11.949219 L 700.960938 11.960938 L 700.929688 12.035156 C 691.546875 36.089844 679.753906 55.476562 666.90625 71.085938 C 616.660156 132.183594 550.414062 135.542969 550.414062 135.542969 " fill-opacity="1" fill-rule="nonzero"/><path fill="#fed101" d="M 589.128906 105.292969 C 581.042969 110.539062 570.242188 108.234375 565 100.144531 C 559.761719 92.050781 562.070312 81.234375 570.15625 75.992188 C 578.242188 70.742188 589.042969 73.050781 594.285156 81.140625 C 599.523438 89.230469 597.214844 100.046875 589.128906 105.292969 " fill-opacity="1" fill-rule="nonzero"/><path fill="#ffffff" d="M 585.457031 99.617188 C 580.503906 102.835938 573.882812 101.421875 570.671875 96.460938 C 567.460938 91.507812 568.875 84.878906 573.832031 81.667969 C 578.785156 78.449219 585.402344 79.863281 588.613281 84.820312 C 591.824219 89.777344 590.410156 96.40625 585.457031 99.617188 " fill-opacity="1" fill-rule="nonzero"/><path fill="#000000" d="M 579.628906 80.890625 C 577.765625 80.890625 575.945312 81.425781 574.347656 82.464844 C 569.839844 85.386719 568.550781 91.4375 571.472656 95.945312 C 572.886719 98.132812 575.066406 99.636719 577.609375 100.175781 C 580.152344 100.71875 582.753906 100.238281 584.9375 98.820312 C 589.445312 95.898438 590.738281 89.847656 587.816406 85.339844 C 586.402344 83.152344 584.21875 81.648438 581.675781 81.105469 C 580.992188 80.960938 580.308594 80.890625 579.628906 80.890625 Z M 579.664062 102.296875 C 578.847656 102.296875 578.027344 102.210938 577.214844 102.035156 C 574.171875 101.386719 571.566406 99.589844 569.875 96.976562 C 566.382812 91.59375 567.925781 84.363281 573.3125 80.871094 C 575.921875 79.175781 579.03125 78.601562 582.070312 79.25 C 585.113281 79.898438 587.71875 81.691406 589.410156 84.304688 C 592.902344 89.691406 591.359375 96.921875 585.972656 100.414062 C 584.0625 101.65625 581.886719 102.296875 579.664062 102.296875 " fill-opacity="1" fill-rule="nonzero"/><path fill="#fed101" d="M 636.5 71.316406 C 629.671875 75.742188 620.554688 73.796875 616.132812 66.964844 C 611.710938 60.136719 613.65625 51.007812 620.480469 46.582031 C 627.308594 42.152344 636.425781 44.101562 640.847656 50.933594 C 645.265625 57.761719 643.320312 66.886719 636.5 71.316406 " fill-opacity="1" fill-rule="nonzero"/><path fill="#ffffff" d="M 633.394531 66.523438 C 629.214844 69.234375 623.628906 68.042969 620.917969 63.859375 C 618.207031 59.675781 619.402344 54.085938 623.582031 51.371094 C 627.765625 48.65625 633.351562 49.851562 636.058594 54.035156 C 638.773438 58.222656 637.578125 63.8125 633.394531 66.523438 " fill-opacity="1" fill-rule="nonzero"/><path fill="#000000" d="M 633.394531 66.523438 L 633.40625 66.523438 Z M 628.476562 50.867188 C 626.933594 50.867188 625.425781 51.308594 624.101562 52.167969 C 620.363281 54.59375 619.292969 59.605469 621.714844 63.34375 C 622.886719 65.152344 624.695312 66.398438 626.804688 66.851562 C 628.914062 67.296875 631.070312 66.902344 632.878906 65.726562 C 636.613281 63.304688 637.683594 58.289062 635.261719 54.554688 C 634.089844 52.738281 632.285156 51.496094 630.171875 51.042969 C 629.609375 50.925781 629.039062 50.867188 628.476562 50.867188 Z M 628.507812 68.929688 C 627.808594 68.929688 627.105469 68.855469 626.40625 68.710938 C 623.800781 68.148438 621.570312 66.613281 620.121094 64.378906 C 617.132812 59.757812 618.453125 53.566406 623.066406 50.574219 C 625.300781 49.125 627.96875 48.632812 630.570312 49.1875 C 633.175781 49.742188 635.40625 51.28125 636.859375 53.519531 C 639.847656 58.136719 638.527344 64.328125 633.914062 67.320312 C 632.277344 68.382812 630.410156 68.929688 628.507812 68.929688 " fill-opacity="1" fill-rule="nonzero"/><path fill="#fed101" d="M 667.070312 71.335938 L 632.941406 18.632812 C 652.464844 13.332031 675.015625 10.558594 700.882812 11.941406 L 700.957031 11.949219 L 700.917969 12.023438 C 691.621094 36.207031 679.878906 55.671875 667.070312 71.335938 " fill-opacity="1" fill-rule="nonzero"/><path fill="#fcb503" d="M 667.160156 71.472656 L 650.179688 45.257812 L 700.5 12.304688 C 700.714844 12.320312 700.929688 12.328125 701.136719 12.335938 L 701.210938 12.347656 L 701.175781 12.421875 C 691.796875 36.476562 680.003906 55.863281 667.160156 71.472656 " fill-opacity="1" fill-rule="nonzero"/><g clip-path="url(#1a07e6a33e)"><path fill="#000000" d="M 468.828125 129.082031 C 468.4375 129.082031 468.070312 128.835938 467.933594 128.449219 C 467.753906 127.953125 468.011719 127.410156 468.507812 127.234375 C 479.277344 123.386719 486.75 121.511719 486.824219 121.492188 C 487.332031 121.367188 487.847656 121.675781 487.972656 122.183594 C 488.101562 122.691406 487.792969 123.210938 487.28125 123.339844 C 487.207031 123.355469 479.820312 125.210938 469.148438 129.027344 C 469.042969 129.0625 468.933594 129.082031 468.828125 129.082031 Z M 434.066406 144.566406 C 433.734375 144.566406 433.40625 144.390625 433.234375 144.074219 C 432.980469 143.613281 433.148438 143.039062 433.609375 142.785156 C 438.964844 139.828125 444.734375 136.980469 450.75 134.320312 C 451.230469 134.101562 451.792969 134.320312 452.003906 134.800781 C 452.214844 135.277344 452 135.84375 451.519531 136.054688 C 445.554688 138.695312 439.835938 141.523438 434.527344 144.449219 C 434.382812 144.527344 434.222656 144.566406 434.066406 144.566406 Z M 403.277344 166.730469 C 403.03125 166.730469 402.785156 166.632812 402.597656 166.4375 C 402.230469 166.066406 402.238281 165.460938 402.613281 165.097656 C 406.910156 160.90625 411.878906 156.804688 417.378906 152.902344 C 417.808594 152.597656 418.398438 152.699219 418.703125 153.125 C 419.007812 153.558594 418.90625 154.144531 418.480469 154.453125 C 413.058594 158.296875 408.164062 162.335938 403.941406 166.457031 C 403.757812 166.636719 403.515625 166.730469 403.277344 166.730469 Z M 383.375 198.527344 C 383.292969 198.527344 383.207031 198.515625 383.125 198.492188 C 382.617188 198.355469 382.320312 197.832031 382.457031 197.324219 C 384.089844 191.351562 386.757812 185.480469 390.378906 179.859375 C 390.664062 179.417969 391.253906 179.292969 391.695312 179.578125 C 392.136719 179.859375 392.261719 180.445312 391.980469 180.890625 C 388.460938 186.34375 385.875 192.042969 384.289062 197.824219 C 384.175781 198.25 383.792969 198.527344 383.375 198.527344 Z M 438.871094 206.144531 C 438.722656 206.144531 438.574219 206.109375 438.433594 206.042969 C 437.199219 205.398438 435.878906 204.816406 434.511719 204.320312 C 430.359375 202.792969 425.632812 202.324219 420.566406 202.929688 C 420.050781 203 419.570312 202.625 419.511719 202.105469 C 419.445312 201.582031 419.820312 201.109375 420.339844 201.050781 C 425.707031 200.40625 430.730469 200.90625 435.164062 202.535156 C 436.609375 203.0625 438.003906 203.675781 439.308594 204.351562 C 439.773438 204.59375 439.957031 205.167969 439.714844 205.636719 C 439.546875 205.957031 439.214844 206.144531 438.871094 206.144531 Z M 386.84375 219.5625 C 386.574219 219.5625 386.308594 219.449219 386.117188 219.230469 C 385.777344 218.828125 385.824219 218.230469 386.222656 217.886719 C 391.359375 213.5 396.6875 209.851562 402.058594 207.050781 C 402.523438 206.8125 403.097656 206.992188 403.339844 207.457031 C 403.582031 207.921875 403.402344 208.496094 402.9375 208.734375 C 397.695312 211.46875 392.488281 215.035156 387.457031 219.332031 C 387.28125 219.488281 387.058594 219.5625 386.84375 219.5625 Z M 385.582031 235.808594 C 385.191406 235.808594 384.828125 235.570312 384.6875 235.183594 C 382.390625 228.832031 381.011719 222.519531 380.589844 216.425781 C 380.554688 215.902344 380.949219 215.449219 381.472656 215.410156 C 382.003906 215.378906 382.449219 215.769531 382.488281 216.292969 C 382.898438 222.214844 384.238281 228.347656 386.476562 234.535156 C 386.652344 235.03125 386.398438 235.574219 385.90625 235.753906 C 385.800781 235.792969 385.691406 235.808594 385.582031 235.808594 Z M 453.167969 238.261719 C 453.097656 238.261719 453.023438 238.253906 452.953125 238.234375 C 452.441406 238.121094 452.121094 237.613281 452.238281 237.097656 C 452.773438 234.753906 453.046875 232.386719 453.046875 230.058594 C 453.046875 226.160156 452.300781 222.457031 450.835938 219.0625 C 450.625 218.578125 450.847656 218.019531 451.332031 217.8125 C 451.8125 217.601562 452.371094 217.824219 452.578125 218.308594 C 454.152344 221.945312 454.945312 225.898438 454.945312 230.058594 C 454.945312 232.53125 454.660156 235.039062 454.09375 237.519531 C 453.992188 237.964844 453.601562 238.261719 453.167969 238.261719 Z M 362.875 248.835938 C 362.714844 248.835938 362.554688 248.792969 362.40625 248.710938 C 361.949219 248.453125 361.789062 247.871094 362.046875 247.414062 C 365.203125 241.863281 368.839844 236.550781 372.863281 231.617188 C 373.195312 231.207031 373.792969 231.148438 374.199219 231.480469 C 374.605469 231.808594 374.667969 232.410156 374.335938 232.816406 C 370.382812 237.667969 366.800781 242.894531 363.703125 248.355469 C 363.527344 248.664062 363.207031 248.835938 362.875 248.835938 Z M 409.199219 263.671875 C 409.101562 263.671875 409.007812 263.660156 408.910156 263.632812 C 402.632812 261.632812 397.222656 257.75 393.257812 252.386719 C 392.949219 251.96875 393.035156 251.371094 393.457031 251.0625 C 393.878906 250.746094 394.476562 250.839844 394.785156 251.261719 C 398.511719 256.292969 403.59375 259.945312 409.488281 261.820312 C 409.984375 261.976562 410.265625 262.511719 410.105469 263.011719 C 409.976562 263.417969 409.601562 263.671875 409.199219 263.671875 Z M 427.957031 264.082031 C 427.53125 264.082031 427.144531 263.796875 427.035156 263.367188 C 426.910156 262.859375 427.214844 262.34375 427.722656 262.214844 C 433.839844 260.664062 439.46875 257.457031 443.578125 253.183594 C 443.941406 252.804688 444.542969 252.796875 444.917969 253.160156 C 445.296875 253.519531 445.308594 254.125 444.945312 254.5 C 440.597656 259.023438 434.648438 262.417969 428.191406 264.058594 C 428.113281 264.074219 428.035156 264.082031 427.957031 264.082031 Z M 350.203125 284.449219 C 350.152344 284.449219 350.101562 284.445312 350.050781 284.4375 C 349.535156 284.355469 349.179688 283.867188 349.261719 283.351562 C 350.25 277.136719 351.859375 270.898438 354.042969 264.804688 C 354.222656 264.3125 354.765625 264.058594 355.257812 264.234375 C 355.75 264.410156 356.007812 264.953125 355.832031 265.449219 C 353.6875 271.429688 352.109375 277.550781 351.140625 283.648438 C 351.066406 284.117188 350.664062 284.449219 350.203125 284.449219 Z M 351.921875 322.136719 C 351.496094 322.136719 351.113281 321.855469 351 321.421875 C 349.398438 315.234375 348.441406 308.859375 348.160156 302.472656 C 348.136719 301.949219 348.539062 301.503906 349.066406 301.484375 C 349.578125 301.457031 350.03125 301.863281 350.058594 302.386719 C 350.335938 308.640625 351.273438 314.886719 352.839844 320.949219 C 352.972656 321.457031 352.667969 321.976562 352.160156 322.109375 C 352.078125 322.125 352 322.136719 351.921875 322.136719 Z M 364.601562 350.710938 C 364.289062 350.710938 363.984375 350.558594 363.800781 350.277344 C 361.515625 346.734375 359.449219 343.070312 357.65625 339.386719 C 357.425781 338.917969 357.621094 338.347656 358.09375 338.117188 C 358.566406 337.886719 359.132812 338.085938 359.363281 338.554688 C 361.125 342.167969 363.152344 345.765625 365.398438 349.25 C 365.683594 349.691406 365.554688 350.277344 365.113281 350.558594 C 364.953125 350.664062 364.777344 350.710938 364.601562 350.710938 " fill-opacity="1" fill-rule="nonzero"/></g></svg>